<?xml version="1.0" encoding="UTF-8"?>
<svg width="18px" height="20px" viewBox="0 0 18 20" version="1.1" xmlns="http://www.w3.org/2000/svg" xmlns:xlink="http://www.w3.org/1999/xlink">
    <!-- Generator: Sketch 52.6 (67491) - http://www.bohemiancoding.com/sketch -->
    <title>图标/公安交管</title>
    <desc>Created with Sketch.</desc>
    <defs>
        <linearGradient x1="0%" y1="0%" x2="100%" y2="100%" id="linearGradient-1">
            <stop stop-color="#699AFF" offset="0%"></stop>
            <stop stop-color="#3861FF" offset="100%"></stop>
        </linearGradient>
        <linearGradient x1="100%" y1="100%" x2="0%" y2="0%" id="linearGradient-2">
            <stop stop-color="#FF3434" offset="0%"></stop>
            <stop stop-color="#FF7979" offset="100%"></stop>
        </linearGradient>
    </defs>
    <g id="图标/公安交管" stroke="none" stroke-width="1" fill="none" fill-rule="evenodd">
        <g id="公安交管" fill-rule="nonzero">
            <polygon id="Path" points="0 0 18 0 18 20 0 20"></polygon>
            <g id="Group-22" transform="translate(0.000000, 1.000000)">
                <path d="M11.3460606,13.1267052 C10.7937759,13.1267052 10.3460606,12.6789899 10.3460606,12.1267052 C10.3460606,11.5744204 10.7937759,11.1267052 11.3460606,11.1267052 C11.8983454,11.1267052 12.3460606,11.5744204 12.3460606,12.1267052 C12.3460606,12.6789899 11.8983454,13.1267052 11.3460606,13.1267052 Z M5.69030303,13.1273396 C5.13801828,13.1273396 4.69030303,12.6796244 4.69030303,12.1273396 C4.69030303,11.5750549 5.13801828,11.1273396 5.69030303,11.1273396 C6.24258778,11.1273396 6.69030303,11.5750549 6.69030303,12.1273396 C6.69030303,12.6796244 6.24258778,13.1273396 5.69030303,13.1273396 Z M15.2680808,10.143265 L15.2680808,9.99923863 C15.2680808,9.86028805 15.1969697,9.73719942 15.0919192,9.63758645 C15.0547475,9.47325677 15.0305051,9.30067889 14.980404,9.1452319 C14.9690909,9.10970116 14.9408081,9.08178415 14.9214141,9.05006028 C15.0523232,8.9307785 15.129899,8.82989658 15.129899,8.7645454 C15.129899,8.7645454 13.0927273,8 8.7,8 C4.30727273,8 2.26848485,8.7645454 2.26848485,8.7645454 C2.26848485,8.8292621 2.34444444,8.92824059 2.47212121,9.04561893 C2.46323232,9.06401878 2.44626263,9.07797729 2.43979798,9.09701161 C2.38323232,9.26451367 2.35575758,9.45168454 2.31454545,9.63060719 C2.20545455,9.73085464 2.13272727,9.85648119 2.13272727,9.99860415 L2.13272727,10.1331134 C1.2810101,10.4287799 0.7,11.216801 0.7,12.1983377 C0.7,13.2674323 2.00343434,14.1842523 3.01353535,14.4761119 C3.95979798,16.9461329 7.40626263,18 8.7,18 C9.98969697,18 13.4216162,16.9524776 14.3783838,14.4970497 C15.5016162,14.2172451 16.7,13.2166741 16.7,12.1977032 C16.7,11.2548696 16.1012121,10.4516211 15.2680808,10.143265 Z M13.7909091,13.4323964 C13.4474747,13.4323964 13.1509091,13.6214707 13.0789899,13.8854134 C12.5189899,15.9633272 9.56222222,16.8579405 8.7,16.8579405 C7.83777778,16.8579405 4.8810101,15.9633272 4.3210101,13.8835099 C4.25474747,13.6373327 3.93555556,13.4526997 3.61636364,13.4311275 C3.28909091,13.4082863 2.15454545,12.782057 2.15454545,12.1983377 C2.15454545,11.9324916 2.2240404,11.7066176 2.32828283,11.5308673 C2.46161616,11.6450733 2.64909091,11.7186727 2.86161616,11.7186727 C3.26484848,11.7186727 3.59131313,11.4623438 3.59131313,11.1457395 L3.59131313,10.6609987 C3.59454545,10.6432333 3.60666667,10.6280058 3.60828283,10.609606 C3.62848485,10.3374151 3.67292929,10.0817207 3.72868687,9.83427447 C4.92787879,10.4224351 6.7420202,11.0144026 8.70080808,11.0144026 C10.660404,11.0144026 12.4745455,10.4218006 13.6737374,9.83300552 C13.7294949,10.0810862 13.7739394,10.3374151 13.7933333,10.608337 C13.7949495,10.6261024 13.8062626,10.6400609 13.8094949,10.6571918 L13.8094949,11.145105 C13.8094949,11.4617093 14.1359596,11.7180382 14.5391919,11.7180382 C14.7452525,11.7180382 14.9294949,11.6501491 15.0620202,11.5422879 C15.1694949,11.7161348 15.2462626,11.9369329 15.2462626,12.1977032 C15.2454545,12.7738088 14.2127273,13.4323964 13.7909091,13.4323964 Z" id="Shape" fill="url(#linearGradient-1)"></path>
                <path d="M9.05085039,6.68538462 C13.6310391,6.68538462 15.5834124,7.43923077 15.5834124,7.43923077 C15.5834124,6.07 18.81436,3.76615385 17.8044834,3.76615385 C12.1807282,3.76615385 11.0089756,-1.03916875e-13 9.00812168,-1.03916875e-13 C7.00644608,-1.03916875e-13 6.5364303,3.76615385 0.253666914,3.76615385 C-0.765248415,3.76615385 1.6144119,6.04461538 1.6144119,7.43923077 C1.6144119,7.43923077 4.47066164,6.68538462 9.05085039,6.68538462 Z M7.36635327,2.94846154 L10.6531769,2.94846154 C10.6531769,2.94846154 10.6531769,3.71769231 10.6531769,4.48692308 C10.6531769,5.25615385 9.00976509,6.02538462 9.00976509,6.02538462 C9.00976509,6.02538462 7.36635327,5.25615385 7.36635327,4.48692308 C7.36635327,3.71769231 7.36635327,2.94846154 7.36635327,2.94846154 Z" id="Shape" fill="url(#linearGradient-2)"></path>
            </g>
        </g>
    </g>
</svg>