<?xml version="1.0" encoding="UTF-8"?>
<svg width="50px" height="20px" viewBox="0 0 50 20" version="1.1" xmlns="http://www.w3.org/2000/svg" xmlns:xlink="http://www.w3.org/1999/xlink">
    <!-- Generator: Sketch 52.5 (67469) - http://www.bohemiancoding.com/sketch -->
    <title>风险等级/警报</title>
    <desc>Created with Sketch.</desc>
    <defs>
        <filter x="-24.0%" y="-60.0%" width="148.0%" height="220.0%" filterUnits="objectBoundingBox" id="filter-1">
            <feOffset dx="1" dy="2" in="SourceAlpha" result="shadowOffsetOuter1"></feOffset>
            <feGaussianBlur stdDeviation="2" in="shadowOffsetOuter1" result="shadowBlurOuter1"></feGaussianBlur>
            <feColorMatrix values="0 0 0 0 0.894117647   0 0 0 0 0.109803922   0 0 0 0 0.0901960784  0 0 0 0.15 0" type="matrix" in="shadowBlurOuter1" result="shadowMatrixOuter1"></feColorMatrix>
            <feMerge>
                <feMergeNode in="shadowMatrixOuter1"></feMergeNode>
                <feMergeNode in="SourceGraphic"></feMergeNode>
            </feMerge>
        </filter>
    </defs>
    <g id="风险等级/警报" stroke="none" stroke-width="1" fill="none" fill-rule="evenodd">
        <g id="Group" filter="url(#filter-1)">
            <path d="M2,-1.0658141e-14 L47.4676192,-1.02140518e-14 C48.5721887,-1.0416958e-14 49.4676192,0.8954305 49.4676192,2 C49.4676192,2.36248789 49.3691036,2.71816071 49.1826051,3.02899151 L45.9260924,8.45651273 C45.3560641,9.4065599 45.3560641,10.5934401 45.9260924,11.5434873 L49.1826051,16.9710085 C49.7509014,17.918169 49.4437713,19.1466895 48.4966108,19.7149859 C48.1857799,19.9014843 47.8301071,20 47.4676192,20 L2,20 C0.8954305,20 -6.85592422e-14,19.1045695 -7.01660952e-14,18 L-6.75015599e-14,2 C-6.76368306e-14,0.8954305 0.8954305,-1.04552349e-14 2,-1.0658141e-14 Z" id="Rectangle" fill="#E41C17" fill-rule="nonzero"></path>
            <path d="M13.9667663,10.7206687 C13.9372535,10.9273936 13.842985,11.1266516 13.683961,11.2856756 L9.44132034,15.5283163 C9.05079605,15.9188406 8.41763107,15.9188406 8.02710678,15.5283163 C7.63658249,15.137792 7.63658249,14.504627 8.02710678,14.1141027 L10.6771652,11.4640443 L5,11.4640443 C4.44771525,11.4640443 4,11.0163291 4,10.4640443 C4,10.4043779 4.00522559,10.3459321 4.01524407,10.2891394 C4.02613921,10.0485981 4.12342678,9.81124072 4.30710678,9.62756072 L8.54974747,5.38492003 C8.94027176,4.99439574 9.57343674,4.99439574 9.96396103,5.38492003 C10.3544853,5.77544432 10.3544853,6.4086093 9.96396103,6.79913359 L7.29905031,9.46404431 L13,9.46404431 C13.5522847,9.46404431 14,9.91175956 14,10.4640443 C14,10.5527579 13.988448,10.6387735 13.9667663,10.7206687 Z" id="Combined-Shape" fill="#FFFFFF" fill-rule="nonzero"></path>
            <path d="M17.364,4.604 L18.72,4.604 L18.72,4.124 L19.656,4.124 L19.656,4.604 L20.748,4.604 L20.748,4.124 L21.684,4.124 L21.684,4.604 L23.052,4.604 L23.052,5.42 L21.684,5.42 L21.684,5.876 L20.748,5.876 L20.748,5.42 L19.656,5.42 L19.656,5.876 L19.008,5.876 L18.948,6.08 L22.716,6.08 L22.716,6.584 C23.3560032,5.93599676 23.7879989,5.10000512 24.012,4.076 L25.044,4.244 L24.9,4.796 L27.612,4.796 L27.612,5.72 L26.964,5.72 C26.7959992,6.46400372 26.508002,7.08799748 26.1,7.592 C26.6120026,7.8720014 27.2039966,8.111999 27.876,8.312 L27.36,9.224 C26.567996,8.95999868 25.9080026,8.6480018 25.38,8.288 C24.8119972,8.70400208 24.124004,9.00799904 23.316,9.2 L22.896,8.288 C23.6000035,8.13599924 24.1679978,7.92400136 24.6,7.652 C24.3039985,7.34799848 24.0800008,7.04000156 23.928,6.728 C23.735999,6.97600124 23.5160012,7.21199888 23.268,7.436 L22.716,6.74 C22.6759998,7.81200536 22.5760008,8.47599872 22.416,8.732 C22.3839998,8.78000024 22.3320004,8.83999964 22.26,8.912 L22.8,8.84 C22.9280006,9.0800012 23.0319996,9.31199888 23.112,9.536 L27.708,9.536 L27.708,10.34 L17.304,10.34 L17.304,9.536 L22.02,9.536 L21.792,9.152 C21.6479993,9.1920002 21.5080007,9.212 21.372,9.212 L20.88,9.212 L20.796,8.924 L18.276,8.924 L18.276,7.448 C18.0599989,7.71200132 17.8440011,7.93599908 17.628,8.12 L17.028,7.376 C17.5480026,6.95199788 17.903999,6.3800036 18.096,5.66 L18.72,5.756 L18.72,5.42 L17.364,5.42 L17.364,4.604 Z M20.916,8.492 L21.168,8.492 C21.3840011,8.46799988 21.5199997,8.36400092 21.576,8.18 C21.6320003,7.97199896 21.664,7.52400344 21.672,6.836 L18.648,6.836 L18.432,7.208 L20.916,7.208 L20.916,8.492 Z M20.064,8.348 L20.064,7.796 L19.116,7.796 L19.116,8.348 L20.064,8.348 Z M24.54,5.72 L24.468,5.864 C24.6360008,6.32000228 24.919998,6.71599832 25.32,7.052 C25.6480016,6.65999804 25.8719994,6.21600248 25.992,5.72 L24.54,5.72 Z M18.756,10.76 L26.352,10.76 L26.352,11.42 L18.756,11.42 L18.756,10.76 Z M18.756,11.84 L26.352,11.84 L26.352,12.5 L18.756,12.5 L18.756,11.84 Z M26.784,12.968 L26.784,15.332 L25.68,15.332 L25.68,15.008 L19.452,15.008 L19.452,15.332 L18.348,15.332 L18.348,12.968 L26.784,12.968 Z M19.452,14.264 L25.68,14.264 L25.68,13.7 L19.452,13.7 L19.452,14.264 Z M33.18,9.98 C32.7559979,10.188001 32.3280022,10.3839991 31.896,10.568 L31.896,14 C31.896,14.800004 31.5120038,15.2 30.744,15.2 L29.616,15.2 L29.352,14.108 C29.7040018,14.1560002 30.0319985,14.18 30.336,14.18 C30.6320015,14.18 30.78,14.0280015 30.78,13.724 L30.78,11.012 C30.2519974,11.204001 29.7240026,11.3839992 29.196,11.552 L28.908,10.424 C29.6040035,10.2639992 30.2279972,10.088001 30.78,9.896 L30.78,7.364 L29.136,7.364 L29.136,6.272 L30.78,6.272 L30.78,4.196 L31.896,4.196 L31.896,6.272 L33.144,6.272 L33.144,7.364 L31.896,7.364 L31.896,9.464 C32.3600023,9.25599896 32.787998,9.052001 33.18,8.852 L33.18,9.98 Z M34.752,9.908 L34.752,15.236 L33.672,15.236 L33.672,4.58 L39.204,4.58 C39.204,5.96400692 39.1280008,6.90399752 38.976,7.4 C38.8239992,7.85600228 38.344004,8.084 37.536,8.084 L36.636,8.084 L36.324,7.1 L37.02,7.112 C37.3000014,7.112 37.5119993,7.10000012 37.656,7.076 C37.7840006,7.0359998 37.8839996,6.9560006 37.956,6.836 C38.0360004,6.66799916 38.0879999,6.26000324 38.112,5.612 L34.752,5.612 L34.752,8.864 L39.288,8.864 L39.288,9.848 C39.095999,11.0880062 38.7120029,12.1399957 38.136,13.004 C38.6960028,13.5160026 39.3519962,13.971998 40.104,14.372 L39.336,15.26 C38.6079964,14.7959977 37.9920025,14.3200024 37.488,13.832 C36.9439973,14.4160029 36.2800039,14.8959981 35.496,15.272 L34.944,14.276 C35.6400035,13.9399983 36.2279976,13.5080026 36.708,12.98 C35.9479962,12.0439953 35.472001,11.0200056 35.28,9.908 L34.752,9.908 Z M36.3,9.908 C36.4520008,10.716004 36.7999973,11.4639966 37.344,12.152 C37.7280019,11.5199968 38.019999,10.7720043 38.22,9.908 L36.3,9.908 Z" id="警报" fill="#FFFFFF"></path>
        </g>
    </g>
</svg>