<?xml version="1.0" encoding="UTF-8"?>
<svg width="50px" height="20px" viewBox="0 0 50 20" version="1.1" xmlns="http://www.w3.org/2000/svg" xmlns:xlink="http://www.w3.org/1999/xlink">
    <!-- Generator: Sketch 52.5 (67469) - http://www.bohemiancoding.com/sketch -->
    <title>风险等级/利好</title>
    <desc>Created with Sketch.</desc>
    <defs>
        <filter x="-24.0%" y="-60.0%" width="148.0%" height="220.0%" filterUnits="objectBoundingBox" id="filter-1">
            <feOffset dx="1" dy="2" in="SourceAlpha" result="shadowOffsetOuter1"></feOffset>
            <feGaussianBlur stdDeviation="2" in="shadowOffsetOuter1" result="shadowBlurOuter1"></feGaussianBlur>
            <feColorMatrix values="0 0 0 0 0.0705882353   0 0 0 0 0.788235294   0 0 0 0 0.68627451  0 0 0 0.15 0" type="matrix" in="shadowBlurOuter1" result="shadowMatrixOuter1"></feColorMatrix>
            <feMerge>
                <feMergeNode in="shadowMatrixOuter1"></feMergeNode>
                <feMergeNode in="SourceGraphic"></feMergeNode>
            </feMerge>
        </filter>
    </defs>
    <g id="风险等级/利好" stroke="none" stroke-width="1" fill="none" fill-rule="evenodd">
        <g id="Group" filter="url(#filter-1)">
            <path d="M2,-1.92351581e-14 L47.4676192,-7.54951657e-15 C48.5721887,-1.16766419e-14 49.4676192,0.8954305 49.4676192,2 C49.4676192,2.36248789 49.3691036,2.71816071 49.1826051,3.02899151 L45.9260924,8.45651273 C45.3560641,9.4065599 45.3560641,10.5934401 45.9260924,11.5434873 L49.1826051,16.9710085 C49.7509014,17.918169 49.4437713,19.1466895 48.4966108,19.7149859 C48.1857799,19.9014843 47.8301071,20 47.4676192,20 L2,20 C0.8954305,20 5.07683657e-15,19.1045695 1.99840144e-15,18 L6.88338275e-15,2 C6.748112e-15,0.8954305 0.8954305,-1.93370191e-14 2,-1.95399252e-14 Z" id="Rectangle" fill="#12C9AF" fill-rule="nonzero"></path>
            <path d="M7.77534621,10.777254 L12.3996155,6.26776695 C12.7683898,5.90814629 13.3566432,5.90814629 13.7254174,6.26776695 C14.08244,6.61592764 14.089624,7.18759165 13.7414634,7.54461426 C13.7361821,7.5500299 13.7308331,7.55537896 13.7254174,7.56066017 L8.42220984,12.732233 C8.05343557,13.0918537 7.46518221,13.0918537 7.09640794,12.732233 C7.04542408,12.6825147 7.00157437,12.6282385 6.96487483,12.5706805 C6.95173245,12.5591958 6.9388304,12.5472884 6.92618636,12.5349582 L4.27458256,9.94917172 C3.91755996,9.60101103 3.91037596,9.02934702 4.25853665,8.67232442 C4.26381786,8.66690878 4.26916692,8.66155972 4.27458256,8.6562785 C4.64335683,8.29665784 5.23161019,8.29665784 5.60038446,8.6562785 L7.77534621,10.777254 Z" id="Combined-Shape" fill="#FFFFFF" fill-rule="nonzero"></path>
            <path d="M17.16,7.304 L19.416,7.304 L19.416,5.972 C18.8559972,6.07600052 18.2440033,6.15199976 17.58,6.2 L17.22,5.144 C19.22801,4.97599916 20.835994,4.64800244 22.044,4.16 L22.596,5.108 C21.8999965,5.37200132 21.2240033,5.5839992 20.568,5.744 L20.568,7.304 L22.716,7.304 L22.716,8.396 L20.568,8.396 L20.568,8.78 C21.2320033,9.31600268 21.9839958,10.0039958 22.824,10.844 L22.152,11.864 C21.5039968,11.0479959 20.976002,10.4160022 20.568,9.968 L20.568,15.236 L19.416,15.236 L19.416,10.316 C18.8879974,11.316005 18.2080042,12.2559956 17.376,13.136 L16.86,11.804 C18.0120058,10.8199951 18.8639972,9.69200636 19.416,8.42 L19.416,8.396 L17.16,8.396 L17.16,7.304 Z M23.544,5.288 L24.672,5.288 L24.672,12.632 L23.544,12.632 L23.544,5.288 Z M24.48,15.128 L24.24,14.024 C24.8640031,14.0640002 25.4079977,14.084 25.872,14.084 C26.1760015,14.084 26.328,13.9080018 26.328,13.556 L26.328,4.196 L27.48,4.196 L27.48,13.844 C27.48,14.7000043 27.076004,15.128 26.268,15.128 L24.48,15.128 Z M32.04,4.148 C31.9119994,4.9080038 31.7800007,5.64399644 31.644,6.356 L33.648,6.356 L33.648,6.98 C33.5679996,8.84400932 33.2000033,10.475993 32.544,11.876 C33.2000033,12.3800025 33.7399979,12.8439979 34.164,13.268 L33.384,14.168 C33.0159982,13.7919981 32.5560028,13.3640024 32.004,12.884 C31.403997,13.8360048 30.6720043,14.6439967 29.808,15.308 L29.028,14.348 C29.8840043,13.7319969 30.5799973,13.0000042 31.116,12.152 C30.6279976,11.759998 30.0280036,11.3000026 29.316,10.772 C29.6520017,9.80399516 29.9719985,8.69600624 30.276,7.448 L29.124,7.448 L29.124,6.356 L30.516,6.356 C30.7000009,5.41999532 30.8359996,4.652003 30.924,4.052 L32.04,4.148 Z M31.632,11.192 C32.1360025,10.0879945 32.4359995,8.84000696 32.532,7.448 L31.416,7.448 C31.1439986,8.60000576 30.8600015,9.59199584 30.564,10.424 C30.8520014,10.624001 31.2079979,10.8799984 31.632,11.192 Z M33.936,9.104 L36.54,9.104 L36.54,7.724 C37.1560031,7.17199724 37.7359973,6.52800368 38.28,5.792 L34.272,5.792 L34.272,4.688 L39.588,4.688 L39.588,5.792 C39.0359972,6.58400396 38.4000036,7.34399636 37.68,8.072 L37.68,9.104 L40.02,9.104 L40.02,10.208 L37.68,10.208 L37.68,13.772 C37.68,14.6600044 37.3400034,15.104 36.66,15.104 L34.884,15.104 L34.584,14.024 L36.192,14.036 C36.4240012,14.036 36.54,13.832002 36.54,13.424 L36.54,10.208 L33.936,10.208 L33.936,9.104 Z" id="利好" fill="#FFFFFF"></path>
        </g>
    </g>
</svg>