<?xml version="1.0" encoding="UTF-8"?>
<svg width="5px" height="10px" viewBox="0 0 5 10" version="1.1" xmlns="http://www.w3.org/2000/svg" xmlns:xlink="http://www.w3.org/1999/xlink">
    <!-- Generator: Sketch 52.5 (67469) - http://www.bohemiancoding.com/sketch -->
    <title>right</title>
    <desc>Created with Sketch.</desc>
    <g id="智惠平台-风险查询" stroke="none" stroke-width="1" fill="none" fill-rule="evenodd">
        <g id="企业详情/负向" transform="translate(-350.000000, -389.000000)" fill="#010028" fill-rule="nonzero">
            <g id="执行公告" transform="translate(0.000000, 383.000000)">
                <g id="执行公告标题" transform="translate(16.000000, 0.000000)">
                    <g id="全部" transform="translate(282.000000, 2.000000)">
                        <path d="M55.876113,9 L52.1087635,4.86050436 C51.9351428,4.6697331 51.9351428,4.37819486 52.1087635,4.1874236 L52.1396687,4.1534655 C52.3091519,3.9672405 52.5975103,3.95366853 52.7837353,4.12315165 C52.7943096,4.13277535 52.8044254,4.14289115 52.8140491,4.1534655 L56.8912365,8.63340541 C56.9852629,8.73671989 57.0283681,8.86958827 57.0205522,9 C57.0283681,9.13041173 56.9852629,9.26328011 56.8912365,9.36659459 L52.8140491,13.8465345 C52.644566,14.0327595 52.3562076,14.0463315 52.1699826,13.8768483 C52.1594082,13.8672246 52.1492924,13.8571089 52.1396687,13.8465345 L52.1087635,13.8125764 C51.9351428,13.6218051 51.9351428,13.3302669 52.1087635,13.1394956 L55.876113,9 Z" id="right"></path>
                    </g>
                </g>
            </g>
        </g>
    </g>
</svg>