<?xml version="1.0" encoding="UTF-8"?>
<svg width="18px" height="20px" viewBox="0 0 18 20" version="1.1" xmlns="http://www.w3.org/2000/svg" xmlns:xlink="http://www.w3.org/1999/xlink">
    <!-- Generator: Sketch 52.6 (67491) - http://www.bohemiancoding.com/sketch -->
    <title>图标/涉诉信息</title>
    <desc>Created with Sketch.</desc>
    <defs>
        <linearGradient x1="0%" y1="0%" x2="100%" y2="100%" id="linearGradient-1">
            <stop stop-color="#699AFF" offset="0%"></stop>
            <stop stop-color="#3861FF" offset="100%"></stop>
        </linearGradient>
        <linearGradient x1="100%" y1="100%" x2="0%" y2="0%" id="linearGradient-2">
            <stop stop-color="#FF3434" offset="0%"></stop>
            <stop stop-color="#FF7979" offset="100%"></stop>
        </linearGradient>
    </defs>
    <g id="图标/涉诉信息" stroke="none" stroke-width="1" fill="none" fill-rule="evenodd">
        <g id="涉诉信息" fill-rule="nonzero">
            <polygon id="Path" points="0 0 18 0 18 20 0 20"></polygon>
            <g id="Group-10">
                <path d="M10.1213203,3.29289322 L14.7071068,7.87867966 L15.4142136,7.17157288 C15.8047379,6.78104858 16.4379028,6.78104858 16.8284271,7.17157288 C17.2189514,7.56209717 17.2189514,8.19526215 16.8284271,8.58578644 L12.5857864,12.8284271 C12.1952621,13.2189514 11.5620972,13.2189514 11.1715729,12.8284271 C10.7810486,12.4379028 10.7810486,11.8047379 11.1715729,11.4142136 L11.8786797,10.7071068 L7.29289322,6.12132034 L6.58578644,6.82842712 C6.19526215,7.21895142 5.56209717,7.21895142 5.17157288,6.82842712 C4.78104858,6.43790283 4.78104858,5.80473785 5.17157288,5.41421356 L9.41421356,1.17157288 C9.80473785,0.781048584 10.4379028,0.781048584 10.8284271,1.17157288 C11.2189514,1.56209717 11.2189514,2.19526215 10.8284271,2.58578644 L10.1213203,3.29289322 Z M0.757359313,15.8284271 L7.82842712,8.75735931 C8.21895142,8.36683502 8.8521164,8.36683502 9.24264069,8.75735931 C9.63316498,9.1478836 9.63316498,9.78104858 9.24264069,10.1715729 L2.17157288,17.2426407 C1.78104858,17.633165 1.1478836,17.633165 0.757359313,17.2426407 C0.366835021,16.8521164 0.366835021,16.2189514 0.757359313,15.8284271 Z" id="Combined-Shape" fill="url(#linearGradient-1)"></path>
                <path d="M8.08535285,17 C8.03007711,16.8436105 8,16.6753177 8,16.5 C8,15.6715729 8.67157288,15 9.5,15 L15.5,15 C16.3284271,15 17,15.6715729 17,16.5 C17,16.6753177 16.9699229,16.8436105 16.9146471,17 L17,17 C17.5522847,17 18,17.4477153 18,18 C18,18.5522847 17.5522847,19 17,19 L8,19 C7.44771525,19 7,18.5522847 7,18 C7,17.4477153 7.44771525,17 8,17 L8.08535285,17 Z" id="Combined-Shape" fill="url(#linearGradient-2)"></path>
            </g>
        </g>
    </g>
</svg>