<?xml version="1.0" encoding="UTF-8"?>
<svg width="18px" height="20px" viewBox="0 0 18 20" version="1.1" xmlns="http://www.w3.org/2000/svg" xmlns:xlink="http://www.w3.org/1999/xlink">
    <!-- Generator: Sketch 52.6 (67491) - http://www.bohemiancoding.com/sketch -->
    <title>图标/市场监管</title>
    <desc>Created with Sketch.</desc>
    <defs>
        <linearGradient x1="0%" y1="0%" x2="100%" y2="100%" id="linearGradient-1">
            <stop stop-color="#699AFF" offset="0%"></stop>
            <stop stop-color="#3861FF" offset="100%"></stop>
        </linearGradient>
        <linearGradient x1="100%" y1="100%" x2="0%" y2="0%" id="linearGradient-2">
            <stop stop-color="#FF3434" offset="0%"></stop>
            <stop stop-color="#FF7979" offset="100%"></stop>
        </linearGradient>
    </defs>
    <g id="图标/市场监管" stroke="none" stroke-width="1" fill="none" fill-rule="evenodd">
        <g id="市场监管" fill-rule="nonzero">
            <polygon id="Path" points="0 0 18 0 18 20 0 20"></polygon>
            <g id="Group-21">
                <path d="M7.42874124,18.4281469 L7,19.5 C6.87353516,19.8333333 6.20686849,20 5,20 C3.79313151,20 2.79313151,19.3333333 2,18 L2.65442612,15.3822955 C1.01494448,13.7521882 0,11.4946206 0,9 C0,4.02943725 4.02943725,0 9,0 C13.9705627,0 18,4.02943725 18,9 C18,11.4946206 16.9850555,13.7521882 15.3455739,15.3822955 L16,18 C15.2068685,19.3333333 14.2068685,20 13,20 C11.7931315,20 11.1264648,19.8333333 11,19.5 L10.5712588,18.4281469 C10.2050147,18.7764258 9.63731971,19 9,19 C8.36268029,19 7.79498532,18.7764258 7.42874124,18.4281469 Z M9,16 C12.8659932,16 16,12.8659932 16,9 C16,5.13400675 12.8659932,2 9,2 C5.13400675,2 2,5.13400675 2,9 C2,12.8659932 5.13400675,16 9,16 Z" id="Combined-Shape" fill="url(#linearGradient-1)"></path>
                <polygon id="Star" fill="url(#linearGradient-2)" points="9 11.5 6.06107374 13.045085 6.62235871 9.77254249 4.24471742 7.45491503 7.53053687 6.97745751 9 4 10.4694631 6.97745751 13.7552826 7.45491503 11.3776413 9.77254249 11.9389263 13.045085"></polygon>
            </g>
        </g>
    </g>
</svg>