<?xml version="1.0" encoding="UTF-8"?>
<svg width="18px" height="20px" viewBox="0 0 18 20" version="1.1" xmlns="http://www.w3.org/2000/svg" xmlns:xlink="http://www.w3.org/1999/xlink">
    <!-- Generator: Sketch 52.6 (67491) - http://www.bohemiancoding.com/sketch -->
    <title>图标/央行银监处罚</title>
    <desc>Created with Sketch.</desc>
    <defs>
        <linearGradient x1="100%" y1="100%" x2="0%" y2="0%" id="linearGradient-1">
            <stop stop-color="#FF3434" offset="0%"></stop>
            <stop stop-color="#FF7979" offset="100%"></stop>
        </linearGradient>
        <linearGradient x1="0%" y1="0%" x2="100%" y2="100%" id="linearGradient-2">
            <stop stop-color="#699AFF" offset="0%"></stop>
            <stop stop-color="#3861FF" offset="100%"></stop>
        </linearGradient>
    </defs>
    <g id="图标/央行银监处罚" stroke="none" stroke-width="1" fill="none" fill-rule="evenodd">
        <g id="Group-4">
            <polygon id="Path" fill-rule="nonzero" points="0 0 18 0 18 20 0 20"></polygon>
            <g id="Group-3">
                <path d="M5.15133355,9.99947744 L5.72291308,10.1376771 C5.6589835,10.4554121 5.53261945,10.6969092 5.34381713,10.8621754 C5.15501482,11.0274416 4.90734505,11.1207912 4.6008004,11.1422269 C4.22151634,11.168749 3.90072061,11.0609826 3.6384036,10.8189243 C3.37608659,10.576866 3.22921683,10.2311293 3.19778993,9.78170365 C3.16454645,9.30629965 3.26147455,8.92850451 3.48857714,8.6483069 C3.71567973,8.36810928 4.0292597,8.21402509 4.42932645,8.18604969 C4.7787354,8.16161664 5.06976554,8.24503319 5.30242561,8.43630185 C5.44085535,8.54931722 5.5505345,8.71785644 5.63146634,8.94192455 L5.07013174,9.11822949 C5.02600535,8.9725144 4.9473656,8.86054094 4.83421013,8.78230576 C4.72105467,8.70407058 4.58784277,8.67031242 4.43457045,8.68103026 C4.22284681,8.69583542 4.05638091,8.78383297 3.93516774,8.94502554 C3.81395458,9.10621811 3.76524736,9.35696889 3.7890446,9.69728542 C3.81429512,10.0583846 3.89722396,10.3110251 4.03783361,10.4552145 C4.17844325,10.599404 4.3526589,10.6642314 4.56048579,10.6496987 C4.71375811,10.6389808 4.84219027,10.5810531 4.94578611,10.4759138 C5.04938196,10.3707744 5.11789708,10.2119639 5.15133355,9.99947744 Z M8.02975696,9.32950415 C8.20538021,9.36828773 8.34382092,9.44500604 8.44508319,9.55966134 C8.54714323,9.67521993 8.60394005,9.81547842 8.61547536,9.980441 C8.62455828,10.1103328 8.60319189,10.2387624 8.55137556,10.3657337 C8.49955924,10.4927051 8.42393668,10.5965395 8.32450563,10.6772401 C8.22507458,10.7579407 8.09931517,10.8120921 7.94722362,10.8396959 C7.85183032,10.8568086 7.62043107,10.8795158 7.25301893,10.9078183 L6.28078365,10.9758036 L6.08105125,8.1194972 L7.22279448,8.03965874 C7.44880622,8.02385446 7.6179968,8.02148656 7.73037132,8.03255498 C7.84274583,8.04362339 7.94485911,8.07596674 8.03671422,8.129586 C8.12856933,8.18320526 8.20719558,8.25765373 8.27259532,8.35293364 C8.33799506,8.44821356 8.37500877,8.55755048 8.38363754,8.68094769 C8.39299295,8.81473625 8.36553174,8.94000263 8.30125311,9.0567506 C8.23697582,9.17349612 8.14509461,9.26410851 8.02560672,9.3285905 L8.02975696,9.32950415 Z M6.69101129,8.55457086 L6.7371977,9.21506737 L7.11518096,9.1886362 C7.33989377,9.17292275 7.4792983,9.15991151 7.53339871,9.1496021 C7.63129901,9.13100882 7.70652397,9.09148577 7.75907583,9.03103176 C7.8116277,8.97057776 7.83467885,8.89424031 7.82822997,8.80201713 C7.82205359,8.71369071 7.792681,8.64362959 7.74011134,8.59183167 C7.68754167,8.54003374 7.61278926,8.51165076 7.51585186,8.50668186 C7.45824533,8.50418375 7.29370759,8.51242623 7.02223373,8.53140953 L6.69101129,8.55457086 Z M6.77044102,9.69046899 L6.82384832,10.454229 L7.35770096,10.4168983 C7.56552784,10.4023657 7.69695732,10.3873016 7.75199333,10.3717057 C7.83663197,10.3501239 7.90379105,10.3072492 7.95347259,10.2430801 C8.00315413,10.178911 8.02445224,10.0961699 8.01736756,9.99485425 C8.01137284,9.90912566 7.9855041,9.83784059 7.93976058,9.7809969 C7.89401706,9.7241532 7.83090027,9.68484089 7.75040832,9.66305878 C7.66991637,9.64127667 7.49848224,9.63955938 7.2361008,9.65790688 L6.77044102,9.69046899 Z M10.8735085,9.66497818 C10.9914034,9.74570025 11.0875045,9.83192652 11.1618144,9.92365951 C11.2369113,10.0163638 11.335535,10.178585 11.4576885,10.4103279 L11.7674807,10.9919485 L11.0777587,10.9437184 L10.7042696,10.2930332 C10.5717248,10.0605637 10.4801974,9.9135228 10.4296847,9.85190612 C10.3791721,9.79028945 10.3241413,9.7466312 10.2645909,9.72093008 C10.2050404,9.69522896 10.1090218,9.67774638 9.97653214,9.6684818 L9.8596301,9.66030721 L9.77624932,10.852708 L9.1995326,10.81238 L9.399265,7.95607359 L10.6130978,8.04095305 C10.9183436,8.06229791 11.1383366,8.10346001 11.2730836,8.16444058 C11.4078307,8.22542115 11.5121811,8.32441184 11.5861381,8.46141563 C11.6600951,8.59841942 11.6911693,8.75134869 11.6793615,8.92020803 C11.6643746,9.13452951 11.5890028,9.30709928 11.4532436,9.43792254 C11.3174855,9.56874475 11.1229936,9.64357494 10.8697622,9.66241535 L10.8735085,9.66497818 Z M9.89151099,9.20438927 L10.3182034,9.23422651 C10.594873,9.25357313 10.7684439,9.25396314 10.8389215,9.23539656 C10.9093991,9.21682999 10.966119,9.18033349 11.0090831,9.12590597 C11.0520471,9.07147845 11.0765261,9.00140145 11.0825208,8.91567286 C11.0892422,8.81955293 11.0690159,8.74014989 11.0218414,8.67746137 C10.9746668,8.61477285 10.9048645,8.57236586 10.8124324,8.55023914 C10.7661255,8.5404747 10.6260715,8.52741805 10.3922663,8.51106879 L9.94219343,8.47959664 L9.89151099,9.20438927 Z M13.980223,10.0913734 L14.5270063,10.3077766 C14.4194787,10.6135222 14.2607345,10.8350825 14.050769,10.9724642 C13.8408035,11.1098459 13.5825523,11.167818 13.2760076,11.1463823 C12.8967236,11.1198602 12.594048,10.9684964 12.3679718,10.6922863 C12.1418957,10.4160763 12.0445725,10.0532639 12.0759994,9.60383826 C12.1092429,9.12843427 12.2578066,8.76780559 12.521695,8.52194141 C12.7855834,8.27607723 13.117556,8.16713447 13.5176228,8.19510986 C13.8670317,8.21954291 14.1436203,8.34265123 14.3473966,8.5644385 C14.4687505,8.69561971 14.5539061,8.8777831 14.6028661,9.11093413 L14.0224575,9.20740061 C13.9990401,9.0569624 13.9367494,8.93513412 13.8355834,8.84191212 C13.7344174,8.74869012 13.6072001,8.69672098 13.4539278,8.68600314 C13.2422041,8.67119798 13.0651114,8.73517156 12.9226442,8.87792581 C12.780177,9.02068005 12.697046,9.26221181 12.6732488,9.60252833 C12.6479982,9.96362754 12.6949593,10.2253508 12.8141332,10.3877061 C12.9333072,10.5500613 13.0968051,10.638504 13.304632,10.6530366 C13.4579043,10.6637545 13.5931486,10.6242648 13.7103688,10.5345664 C13.827589,10.4448681 13.9175395,10.2971385 13.980223,10.0913734 Z" id="Combined-Shape" fill="url(#linearGradient-1)"></path>
                <path d="M9,20 C4.02943725,20 0,12.5228475 0,7 C0,3.31810167 3,0.984768335 9,0 C15,0.984768335 18,3.31810167 18,7 C18,12.5228475 13.9705627,20 9,20 Z M9,18 C12.8659932,18 16,12.018278 16,7.6 C16,4.65448133 13.6666667,2.78781467 9,2 C4.33333333,2.78781467 2,4.65448133 2,7.6 C2,12.018278 5.13400675,18 9,18 Z M4.8022513,12 L8,12 L8,15.8037908 C6.66312526,15.2774641 5.51994076,13.7546851 4.8022513,12 Z M4.19010997,7 C4.64472469,5.67555899 5.91468803,4.7469562 8,4.21419163 L8,7 L4.19010997,7 Z M13.80989,7 L10,7 L10,4.21419163 C12.085312,4.7469562 13.3552753,5.67555899 13.80989,7 Z M13.1977487,12 C12.4800592,13.7546851 11.3368747,15.2774641 10,15.8037908 L10,12 L13.1977487,12 Z" id="Combined-Shape" fill="url(#linearGradient-2)" fill-rule="nonzero"></path>
            </g>
        </g>
    </g>
</svg>