<?xml version="1.0" encoding="UTF-8"?>
<svg width="50px" height="20px" viewBox="0 0 50 20" version="1.1" xmlns="http://www.w3.org/2000/svg" xmlns:xlink="http://www.w3.org/1999/xlink">
    <!-- Generator: Sketch 52.5 (67469) - http://www.bohemiancoding.com/sketch -->
    <title>风险等级/中性</title>
    <desc>Created with Sketch.</desc>
    <defs>
        <filter x="-24.0%" y="-60.0%" width="148.0%" height="220.0%" filterUnits="objectBoundingBox" id="filter-1">
            <feOffset dx="1" dy="2" in="SourceAlpha" result="shadowOffsetOuter1"></feOffset>
            <feGaussianBlur stdDeviation="2" in="shadowOffsetOuter1" result="shadowBlurOuter1"></feGaussianBlur>
            <feColorMatrix values="0 0 0 0 0.415686275   0 0 0 0 0.439215686   0 0 0 0 0.898039216  0 0 0 0.15 0" type="matrix" in="shadowBlurOuter1" result="shadowMatrixOuter1"></feColorMatrix>
            <feMerge>
                <feMergeNode in="shadowMatrixOuter1"></feMergeNode>
                <feMergeNode in="SourceGraphic"></feMergeNode>
            </feMerge>
        </filter>
    </defs>
    <g id="风险等级/中性" stroke="none" stroke-width="1" fill="none" fill-rule="evenodd">
        <g id="Group-2" filter="url(#filter-1)">
            <path d="M2,-1.03882045e-14 L47.4676192,-1.0658141e-14 C48.5721887,-1.08610472e-14 49.4676192,0.8954305 49.4676192,2 C49.4676192,2.36248789 49.3691036,2.71816071 49.1826051,3.02899151 L45.9260924,8.45651273 C45.3560641,9.4065599 45.3560641,10.5934401 45.9260924,11.5434873 L49.1826051,16.9710085 C49.7509014,17.918169 49.4437713,19.1466895 48.4966108,19.7149859 C48.1857799,19.9014843 47.8301071,20 47.4676192,20 L2,20 C0.8954305,20 -2.62380273e-16,19.1045695 -8.8817842e-16,18 L-2.22044605e-16,2 C-3.57315355e-16,0.8954305 0.8954305,-1.04552349e-14 2,-1.0658141e-14 Z" id="Rectangle" fill="#6A70E5" fill-rule="nonzero"></path>
            <path d="M9,5 C9.55228475,5 10,5.44771525 10,6 L10,14 C10,14.5522847 9.55228475,15 9,15 C8.44771525,15 8,14.5522847 8,14 L8,6 C8,5.44771525 8.44771525,5 9,5 Z M13,8 C13.5522847,8 14,8.44771525 14,9 L14,11 C14,11.5522847 13.5522847,12 13,12 C12.4477153,12 12,11.5522847 12,11 L12,9 C12,8.44771525 12.4477153,8 13,8 Z M5,8 C5.55228475,8 6,8.44771525 6,9 L6,11 C6,11.5522847 5.55228475,12 5,12 C4.44771525,12 4,11.5522847 4,11 L4,9 C4,8.44771525 4.44771525,8 5,8 Z" id="Combined-Shape" fill="#FFFFFF" fill-rule="nonzero"></path>
            <path d="M21.912,4.112 L23.088,4.112 L23.088,6.188 L27.36,6.188 L27.36,11.984 L26.22,11.984 L26.22,11.3 L23.088,11.3 L23.088,15.32 L21.912,15.32 L21.912,11.3 L18.792,11.3 L18.792,11.984 L17.652,11.984 L17.652,6.188 L21.912,6.188 L21.912,4.112 Z M18.792,10.184 L21.912,10.184 L21.912,7.304 L18.792,7.304 L18.792,10.184 Z M23.088,10.184 L26.22,10.184 L26.22,7.304 L23.088,7.304 L23.088,10.184 Z M30.18,6.572 C30.1559999,7.75600592 30.0280012,8.89999448 29.796,10.004 L28.872,9.74 C29.1200012,8.6999948 29.2599998,7.62400556 29.292,6.512 L30.18,6.572 Z M32.556,6.224 C32.7720011,6.75200264 32.9599992,7.2959972 33.12,7.856 C33.4400016,6.91999532 33.6239998,5.952005 33.672,4.952 L34.716,5.096 C34.6919999,5.56800236 34.6520003,5.98799816 34.596,6.356 L36.024,6.356 L36.024,4.208 L37.176,4.208 L37.176,6.356 L39.696,6.356 L39.696,7.46 L37.176,7.46 L37.176,10.112 L39.564,10.112 L39.564,11.228 L37.176,11.228 L37.176,13.796 L40.008,13.796 L40.008,14.9 L32.688,14.9 L32.688,13.796 L36.024,13.796 L36.024,11.228 L33.336,11.228 L33.336,10.112 L36.024,10.112 L36.024,7.46 L34.38,7.46 C34.1639989,8.3000042 33.860002,9.06799652 33.468,9.764 L32.628,9.02 C32.7240005,8.82799904 32.8079996,8.64800084 32.88,8.48 L32.364,8.612 C32.1879991,7.81999604 31.9760012,7.11200312 31.728,6.488 L32.556,6.224 Z M30.552,4.196 L31.692,4.196 L31.692,15.188 L30.552,15.188 L30.552,4.196 Z" id="中性" fill="#FFFFFF"></path>
        </g>
    </g>
</svg>