<?xml version="1.0" encoding="UTF-8"?>
<svg width="351px" height="246px" viewBox="0 0 351 246" version="1.1" xmlns="http://www.w3.org/2000/svg" xmlns:xlink="http://www.w3.org/1999/xlink">
    <!-- Generator: Sketch 52.5 (67469) - http://www.bohemiancoding.com/sketch -->
    <title>banner/2 1</title>
    <desc>Created with Sketch.</desc>
    <defs>
        <rect id="path-1" x="0" y="0" width="335" height="230" rx="10"></rect>
        <filter x="-4.2%" y="-4.3%" width="108.4%" height="112.2%" filterUnits="objectBoundingBox" id="filter-2">
            <feOffset dx="0" dy="4" in="SourceAlpha" result="shadowOffsetOuter1"></feOffset>
            <feGaussianBlur stdDeviation="4" in="shadowOffsetOuter1" result="shadowBlurOuter1"></feGaussianBlur>
            <feColorMatrix values="0 0 0 0 0.133333333   0 0 0 0 0.133333333   0 0 0 0 0.133333333  0 0 0 0.03 0" type="matrix" in="shadowBlurOuter1"></feColorMatrix>
        </filter>
        <linearGradient x1="50%" y1="0%" x2="50%" y2="100%" id="linearGradient-3">
            <stop stop-color="#699AFF" offset="0%"></stop>
            <stop stop-color="#3861FF" offset="100%"></stop>
        </linearGradient>
        <linearGradient x1="50%" y1="100%" x2="50%" y2="3.061617e-15%" id="linearGradient-4">
            <stop stop-color="#FF3434" offset="0%"></stop>
            <stop stop-color="#FF7979" offset="100%"></stop>
        </linearGradient>
        <linearGradient x1="2.23311055%" y1="2.23311055%" x2="95.9027147%" y2="95.9027147%" id="linearGradient-5">
            <stop stop-color="#F58D81" offset="0%"></stop>
            <stop stop-color="#E7463A" offset="100%"></stop>
        </linearGradient>
        <linearGradient x1="2.26923772%" y1="5.03069808e-14%" x2="100%" y2="97.7307623%" id="linearGradient-6">
            <stop stop-color="#69DDDB" offset="0%"></stop>
            <stop stop-color="#4EC871" offset="100%"></stop>
        </linearGradient>
    </defs>
    <g id="风险报告" stroke="none" stroke-width="1" fill="none" fill-rule="evenodd">
        <g id="Apple-TV" transform="translate(-382.000000, -90.000000)">
            <g id="banner/2" transform="translate(390.000000, 94.000000)">
                <g>
                    <g id="box/圆角10阴影4-8" fill-rule="nonzero">
                        <g id="Rectangle">
                            <use fill="black" fill-opacity="1" filter="url(#filter-2)" xlink:href="#path-1"></use>
                            <use fill="#FFFFFF" xlink:href="#path-1"></use>
                        </g>
                    </g>
                    <path d="M31,198.5 L161,198.5" id="Line" stroke="#D7D7DA" stroke-width="0.5" stroke-linecap="square" stroke-dasharray="2,3" fill-rule="nonzero"></path>
                    <path d="M31,173.5 L161,173.5" id="Line" stroke="#D7D7DA" stroke-width="0.5" stroke-linecap="square" stroke-dasharray="2,3" fill-rule="nonzero"></path>
                    <path d="M31,148.5 L161,148.5" id="Line" stroke="#D7D7DA" stroke-width="0.5" stroke-linecap="square" stroke-dasharray="2,3" fill-rule="nonzero"></path>
                    <path d="M31,123.5 L161,123.5" id="Line" stroke="#D7D7DA" stroke-width="0.5" stroke-linecap="square" stroke-dasharray="2,3" fill-rule="nonzero"></path>
                    <path id="Path-8" d="M240.625,205.5 L250.992188,205.5 L250.992188,189 L251.992188,189 L251.992188,206 L251.992188,206.5 L251.492188,206.5 L240.625,206.5 L240.625,210 L239.625,210 L239.625,202 L240.625,202 L240.625,205.5 Z" fill="#979797" fill-rule="nonzero"></path>
                    <path d="M251,196 C223.385763,196 201,173.614237 201,146 C201,118.385763 223.385763,96 251,96 C278.614237,96 301,118.385763 301,146 C301,173.614237 278.614237,196 251,196 Z M251,176 C267.568542,176 281,162.568542 281,146 C281,129.431458 267.568542,116 251,116 C234.431458,116 221,129.431458 221,146 C221,162.568542 234.431458,176 251,176 Z" id="Combined-Shape" fill="url(#linearGradient-3)" fill-rule="nonzero"></path>
                    <path id="Path-7" d="M259.471392,90.5487103 L257.973918,105.051355 L256.979207,104.948645 L258.47668,90.4460011 L254.99519,90.0865192 L255.097899,89.0918077 L263.055591,89.9134808 L262.952882,90.9081923 L259.471392,90.5487103 Z" fill="#979797" fill-rule="nonzero"></path>
                    <path d="M251,96 C256.274322,96 261.357904,96.8166558 266.131195,98.3304175 L261.069945,117.731877 C257.922411,116.610549 254.532506,116 251,116 L251,96 Z" id="Combined-Shape" fill="url(#linearGradient-4)" fill-rule="nonzero"></path>
                    <path d="M31,97.5 L161,97.5" id="Line" stroke="#D7D7DA" stroke-width="0.5" stroke-linecap="square" stroke-dasharray="2,3" fill-rule="nonzero"></path>
                    <rect id="Rectangle" fill="url(#linearGradient-3)" fill-rule="nonzero" x="41" y="166" width="10" height="32" rx="5"></rect>
                    <path d="M86,110 L86,110 C88.7614237,110 91,112.238576 91,115 L91,197 C91,197.552285 90.5522847,198 90,198 L82,198 C81.4477153,198 81,197.552285 81,197 L81,115 C81,112.238576 83.2385763,110 86,110 Z" id="Rectangle" fill="url(#linearGradient-5)" fill-rule="nonzero"></path>
                    <path d="M126,182 L126,182 C128.761424,182 131,184.238576 131,187 L131,197 C131,197.552285 130.552285,198 130,198 L122,198 C121.447715,198 121,197.552285 121,197 L121,187 C121,184.238576 123.238576,182 126,182 Z" id="Rectangle" fill="url(#linearGradient-6)" fill-rule="nonzero"></path>
                    <text id="胜负关系-一清二楚" font-family="PingFang-SC-Bold, PingFang SC" font-size="20" font-weight="bold" fill="#010028">
                        <tspan x="88.17" y="36">胜负关系 一清二楚</tspan>
                    </text>
                    <text id="原/被告胜负平统计" opacity="0.6" font-family="PingFang-SC-Medium, PingFang SC" font-size="14" font-weight="400" fill="#010028">
                        <tspan x="12" y="62">原/被告胜负平统计</tspan>
                    </text>
                    <text id="原/被告涉案数统计" opacity="0.6" font-family="PingFang-SC-Medium, PingFang SC" font-size="14" font-weight="400" fill="#010028">
                        <tspan x="191" y="62">原/被告涉案数统计</tspan>
                    </text>
                    <text id="胜" font-family="PingFang-SC-Medium, PingFang SC" font-size="10" font-weight="400" fill="#868592">
                        <tspan x="41" y="212">胜</tspan>
                    </text>
                    <text id="0" font-family="PingFang-SC-Medium, PingFang SC" font-size="10" font-weight="400" fill="#868592">
                        <tspan x="18" y="202">0</tspan>
                    </text>
                    <text id="20" font-family="PingFang-SC-Medium, PingFang SC" font-size="10" font-weight="400" fill="#868592">
                        <tspan x="12" y="177">20</tspan>
                    </text>
                    <text id="40" font-family="PingFang-SC-Medium, PingFang SC" font-size="10" font-weight="400" fill="#868592">
                        <tspan x="12" y="152">40</tspan>
                    </text>
                    <text id="60" font-family="PingFang-SC-Medium, PingFang SC" font-size="10" font-weight="400" fill="#868592">
                        <tspan x="12" y="127">60</tspan>
                    </text>
                    <text id="80" font-family="PingFang-SC-Medium, PingFang SC" font-size="10" font-weight="400" fill="#868592">
                        <tspan x="12" y="101">80</tspan>
                    </text>
                    <text id="数量：条" font-family="PingFang-SC-Medium, PingFang SC" font-size="10" font-weight="400" fill="#868592">
                        <tspan x="12" y="83">数量：条</tspan>
                    </text>
                    <text id="负" font-family="PingFang-SC-Medium, PingFang SC" font-size="10" font-weight="400" fill="#868592">
                        <tspan x="81" y="212">负</tspan>
                    </text>
                    <text id="平" font-family="PingFang-SC-Medium, PingFang SC" font-size="10" font-weight="400" fill="#868592">
                        <tspan x="121" y="212">平</tspan>
                    </text>
                    <text id="被告数91.56%" font-family="PingFang-SC-Medium, PingFang SC" font-size="10" font-weight="400" fill="#868592">
                        <tspan x="168.83" y="210">被告数91.56%</tspan>
                    </text>
                    <text id="原告数9.44%" font-family="PingFang-SC-Medium, PingFang SC" font-size="10" font-weight="400" fill="#868592">
                        <tspan x="248.33" y="83">原告数9.44%</tspan>
                    </text>
                </g>
            </g>
        </g>
    </g>
</svg>