<?xml version="1.0" encoding="UTF-8"?>
<svg width="351px" height="246px" viewBox="0 0 351 246" version="1.1" xmlns="http://www.w3.org/2000/svg" xmlns:xlink="http://www.w3.org/1999/xlink">
    <!-- Generator: Sketch 52.5 (67469) - http://www.bohemiancoding.com/sketch -->
    <title>banner/1 1</title>
    <desc>Created with Sketch.</desc>
    <defs>
        <rect id="path-1" x="0" y="0" width="335" height="230" rx="10"></rect>
        <filter x="-4.2%" y="-4.3%" width="108.4%" height="112.2%" filterUnits="objectBoundingBox" id="filter-2">
            <feOffset dx="0" dy="4" in="SourceAlpha" result="shadowOffsetOuter1"></feOffset>
            <feGaussianBlur stdDeviation="4" in="shadowOffsetOuter1" result="shadowBlurOuter1"></feGaussianBlur>
            <feColorMatrix values="0 0 0 0 0.133333333   0 0 0 0 0.133333333   0 0 0 0 0.133333333  0 0 0 0.03 0" type="matrix" in="shadowBlurOuter1"></feColorMatrix>
        </filter>
        <linearGradient x1="2.23311055%" y1="2.23311055%" x2="95.9027147%" y2="95.9027147%" id="linearGradient-3">
            <stop stop-color="#F58D81" offset="0%"></stop>
            <stop stop-color="#E7463A" offset="100%"></stop>
        </linearGradient>
        <linearGradient x1="0%" y1="0%" x2="100%" y2="100%" id="linearGradient-4">
            <stop stop-color="#699AFF" offset="0%"></stop>
            <stop stop-color="#3861FF" offset="100%"></stop>
        </linearGradient>
        <linearGradient x1="2.26923772%" y1="5.03069808e-14%" x2="100%" y2="97.7307623%" id="linearGradient-5">
            <stop stop-color="#69DDDB" offset="0%"></stop>
            <stop stop-color="#4EC871" offset="100%"></stop>
        </linearGradient>
        <linearGradient x1="50%" y1="0%" x2="50%" y2="100%" id="linearGradient-6">
            <stop stop-color="#699AFF" offset="0%"></stop>
            <stop stop-color="#3861FF" offset="100%"></stop>
        </linearGradient>
        <linearGradient x1="100%" y1="-5.55111512e-15%" x2="2.26923772%" y2="97.7307623%" id="linearGradient-7">
            <stop stop-color="#69DDDB" offset="0%"></stop>
            <stop stop-color="#4EC871" offset="100%"></stop>
        </linearGradient>
    </defs>
    <g id="风险报告" stroke="none" stroke-width="1" fill="none" fill-rule="evenodd">
        <g id="Apple-TV" transform="translate(-28.000000, -90.000000)">
            <g id="banner/1" transform="translate(36.000000, 94.000000)">
                <g>
                    <g id="box/圆角10阴影4-8" fill-rule="nonzero">
                        <g id="Rectangle">
                            <use fill="black" fill-opacity="1" filter="url(#filter-2)" xlink:href="#path-1"></use>
                            <use fill="#FFFFFF" xlink:href="#path-1"></use>
                        </g>
                    </g>
                    <text id="裁判文书涉案金额统计" opacity="0.6" font-family="PingFang-SC-Medium, PingFang SC" font-size="14" font-weight="400" fill="#010028">
                        <tspan x="98" y="62">裁判文书涉案金额统计</tspan>
                    </text>
                    <g id="Group-9" transform="translate(95.000000, 72.000000)">
                        <circle id="Oval" fill="url(#linearGradient-3)" fill-rule="nonzero" cx="5" cy="7" r="5"></circle>
                        <text id="未完结" font-family="PingFang-SC-Medium, PingFang SC" font-size="10" font-weight="400" fill="#868592">
                            <tspan x="14" y="11">未完结</tspan>
                        </text>
                        <circle id="Oval" fill="url(#linearGradient-4)" fill-rule="nonzero" cx="65" cy="7" r="5"></circle>
                        <text id="已完结" font-family="PingFang-SC-Medium, PingFang SC" font-size="10" font-weight="400" fill="#868592">
                            <tspan x="74" y="11">已完结</tspan>
                        </text>
                        <circle id="Oval" fill="url(#linearGradient-5)" fill-rule="nonzero" cx="125" cy="7" r="5"></circle>
                        <text id="数量" font-family="PingFang-SC-Medium, PingFang SC" font-size="10" font-weight="400" fill="#868592">
                            <tspan x="134" y="11">数量</tspan>
                        </text>
                    </g>
                    <path d="M46,198.5 L301,198.5" id="Line" stroke="#D7D7DA" stroke-width="0.5" stroke-linecap="square" stroke-dasharray="2,3" fill-rule="nonzero"></path>
                    <path d="M46,173.5 L301,173.5" id="Line" stroke="#D7D7DA" stroke-width="0.5" stroke-linecap="square" stroke-dasharray="2,3" fill-rule="nonzero"></path>
                    <path d="M46,148.5 L301,148.5" id="Line" stroke="#D7D7DA" stroke-width="0.5" stroke-linecap="square" stroke-dasharray="2,3" fill-rule="nonzero"></path>
                    <path d="M46,123.5 L301,123.5" id="Line" stroke="#D7D7DA" stroke-width="0.5" stroke-linecap="square" stroke-dasharray="2,3" fill-rule="nonzero"></path>
                    <path d="M46,97.5 L301,97.5" id="Line" stroke="#D7D7DA" stroke-width="0.5" stroke-linecap="square" stroke-dasharray="2,3" fill-rule="nonzero"></path>
                    <rect id="Rectangle" fill="url(#linearGradient-3)" fill-rule="nonzero" x="54" y="196" width="10" height="2" rx="1"></rect>
                    <rect id="Rectangle" fill="url(#linearGradient-6)" fill-rule="nonzero" x="65" y="196" width="10" height="2" rx="1"></rect>
                    <path d="M100,186 L100,186 C102.761424,186 105,188.238576 105,191 L105,197 C105,197.552285 104.552285,198 104,198 L96,198 C95.4477153,198 95,197.552285 95,197 L95,191 C95,188.238576 97.2385763,186 100,186 Z" id="Rectangle" fill="url(#linearGradient-3)" fill-rule="nonzero"></path>
                    <rect id="Rectangle" fill="url(#linearGradient-6)" fill-rule="nonzero" x="106" y="193" width="10" height="5" rx="2.5"></rect>
                    <path d="M141,182 L141,182 C143.761424,182 146,184.238576 146,187 L146,197 C146,197.552285 145.552285,198 145,198 L137,198 C136.447715,198 136,197.552285 136,197 L136,187 C136,184.238576 138.238576,182 141,182 Z" id="Rectangle" fill="url(#linearGradient-3)" fill-rule="nonzero"></path>
                    <path d="M152,188 L152,188 C154.761424,188 157,190.238576 157,193 L157,197 C157,197.552285 156.552285,198 156,198 L148,198 C147.447715,198 147,197.552285 147,197 L147,193 C147,190.238576 149.238576,188 152,188 Z" id="Rectangle" fill="url(#linearGradient-6)" fill-rule="nonzero"></path>
                    <path d="M182,124 L182,124 C184.761424,124 187,126.238576 187,129 L187,197 C187,197.552285 186.552285,198 186,198 L178,198 C177.447715,198 177,197.552285 177,197 L177,129 C177,126.238576 179.238576,124 182,124 Z" id="Rectangle" fill="url(#linearGradient-3)" fill-rule="nonzero"></path>
                    <path d="M193,179 L193,179 C195.761424,179 198,181.238576 198,184 L198,197 C198,197.552285 197.552285,198 197,198 L189,198 C188.447715,198 188,197.552285 188,197 L188,184 C188,181.238576 190.238576,179 193,179 Z" id="Rectangle" fill="url(#linearGradient-6)" fill-rule="nonzero"></path>
                    <path d="M223,135 L223,135 C225.761424,135 228,137.238576 228,140 L228,197 C228,197.552285 227.552285,198 227,198 L219,198 C218.447715,198 218,197.552285 218,197 L218,140 C218,137.238576 220.238576,135 223,135 Z" id="Rectangle" fill="url(#linearGradient-3)" fill-rule="nonzero"></path>
                    <path d="M233,190 L235,190 C237.209139,190 239,191.790861 239,194 L239,197 C239,197.552285 238.552285,198 238,198 L230,198 C229.447715,198 229,197.552285 229,197 L229,194 C229,191.790861 230.790861,190 233,190 Z" id="Rectangle" fill="url(#linearGradient-6)" fill-rule="nonzero"></path>
                    <path d="M264,108 L264,108 C266.761424,108 269,110.238576 269,113 L269,197 C269,197.552285 268.552285,198 268,198 L260,198 C259.447715,198 259,197.552285 259,197 L259,113 C259,110.238576 261.238576,108 264,108 Z" id="Rectangle" fill="url(#linearGradient-3)" fill-rule="nonzero"></path>
                    <path d="M275,159 L275,159 C277.761424,159 280,161.238576 280,164 L280,197 C280,197.552285 279.552285,198 279,198 L271,198 C270.447715,198 270,197.552285 270,197 L270,164 C270,161.238576 272.238576,159 275,159 Z" id="Rectangle" fill="url(#linearGradient-6)" fill-rule="nonzero"></path>
                    <text id="是否履行-一目了然" font-family="PingFang-SC-Bold, PingFang SC" font-size="20" font-weight="bold" fill="#010028">
                        <tspan x="88.17" y="36">是否履行 一目了然</tspan>
                    </text>
                    <path d="M64.5415039,196 C78.4044976,194.16268 92.0547255,193.16268 105.492187,193 C125.648381,192.755981 131.44043,196.699219 146.5354,195.007347 C161.630371,193.315475 175.077148,182.84668 187.459961,182 C199.842773,181.15332 211.211426,191 228.437744,188 C239.921956,186 253.605225,175.375081 269.487549,156.125244" id="Path-2" stroke="url(#linearGradient-7)" stroke-width="2" stroke-linecap="round" stroke-linejoin="round" fill-rule="nonzero"></path>
                    <text id="1月" font-family="PingFang-SC-Medium, PingFang SC" font-size="10" font-weight="400" fill="#868592">
                        <tspan x="56" y="212">1月</tspan>
                    </text>
                    <text id="0" font-family="PingFang-SC-Medium, PingFang SC" font-size="10" font-weight="400" fill="#868592">
                        <tspan x="33" y="202">0</tspan>
                    </text>
                    <text id="0" font-family="PingFang-SC-Medium, PingFang SC" font-size="10" font-weight="400" fill="#868592">
                        <tspan x="305" y="202">0</tspan>
                    </text>
                    <text id="100M" font-family="PingFang-SC-Medium, PingFang SC" font-size="10" font-weight="400" fill="#868592">
                        <tspan x="12.18" y="177">100M</tspan>
                    </text>
                    <text id="200M" font-family="PingFang-SC-Medium, PingFang SC" font-size="10" font-weight="400" fill="#868592">
                        <tspan x="12.18" y="152">200M</tspan>
                    </text>
                    <text id="300M" font-family="PingFang-SC-Medium, PingFang SC" font-size="10" font-weight="400" fill="#868592">
                        <tspan x="12.18" y="127">300M</tspan>
                    </text>
                    <text id="400M" font-family="PingFang-SC-Medium, PingFang SC" font-size="10" font-weight="400" fill="#868592">
                        <tspan x="12.18" y="101">400M</tspan>
                    </text>
                    <text id="200" font-family="PingFang-SC-Medium, PingFang SC" font-size="10" font-weight="400" fill="#868592">
                        <tspan x="305" y="177">200</tspan>
                    </text>
                    <text id="400" font-family="PingFang-SC-Medium, PingFang SC" font-size="10" font-weight="400" fill="#868592">
                        <tspan x="305" y="152">400</tspan>
                    </text>
                    <text id="600" font-family="PingFang-SC-Medium, PingFang SC" font-size="10" font-weight="400" fill="#868592">
                        <tspan x="305" y="127">600</tspan>
                    </text>
                    <text id="800" font-family="PingFang-SC-Medium, PingFang SC" font-size="10" font-weight="400" fill="#868592">
                        <tspan x="305" y="101">800</tspan>
                    </text>
                    <text id="金额：元" font-family="PingFang-SC-Medium, PingFang SC" font-size="10" font-weight="400" fill="#868592">
                        <tspan x="12" y="83">金额：元</tspan>
                    </text>
                    <text id="数量：条" font-family="PingFang-SC-Medium, PingFang SC" font-size="10" font-weight="400" fill="#868592">
                        <tspan x="283" y="83">数量：条</tspan>
                    </text>
                    <text id="2月" font-family="PingFang-SC-Medium, PingFang SC" font-size="10" font-weight="400" fill="#868592">
                        <tspan x="98" y="212">2月</tspan>
                    </text>
                    <text id="3月" font-family="PingFang-SC-Medium, PingFang SC" font-size="10" font-weight="400" fill="#868592">
                        <tspan x="138" y="212">3月</tspan>
                    </text>
                    <text id="4月" font-family="PingFang-SC-Medium, PingFang SC" font-size="10" font-weight="400" fill="#868592">
                        <tspan x="180" y="212">4月</tspan>
                    </text>
                    <text id="5月" font-family="PingFang-SC-Medium, PingFang SC" font-size="10" font-weight="400" fill="#868592">
                        <tspan x="222" y="212">5月</tspan>
                    </text>
                    <text id="6月" font-family="PingFang-SC-Medium, PingFang SC" font-size="10" font-weight="400" fill="#868592">
                        <tspan x="262" y="212">6月</tspan>
                    </text>
                    <text id="…" font-family="PingFang-SC-Medium, PingFang SC" font-size="10" font-weight="400" fill="#868592">
                        <tspan x="294" y="209">…</tspan>
                    </text>
                </g>
            </g>
        </g>
    </g>
</svg>