<?xml version="1.0" encoding="UTF-8"?>
<svg width="22px" height="22px" viewBox="0 0 22 22" version="1.1" xmlns="http://www.w3.org/2000/svg" xmlns:xlink="http://www.w3.org/1999/xlink">
    <!-- Generator: Sketch 52.5 (67469) - http://www.bohemiancoding.com/sketch -->
    <title>风险查询1</title>
    <desc>Created with Sketch.</desc>
    <g id="Page-1" stroke="none" stroke-width="1" fill="none" fill-rule="evenodd">
        <g id="风险查询1" fill-rule="nonzero">
            <rect id="Rectangle" fill-opacity="0" fill="#FFFFFF" x="0" y="0" width="22" height="22"></rect>
            <path d="M12.3403762,2.41367511 C14.1816384,1.84344668 15.6781796,1.73555498 16.83,2.09 C17.7378663,2.4319481 18.5388118,2.97577929 19.2328366,3.72149356 C15.1104757,4.5335609 11.5392935,6.88097847 9.13962839,10.1434078 C8.04670456,9.0329393 7.10986381,7.76839877 6.36465783,6.38533795 C8.02661272,4.65685145 10.0617108,3.28977187 12.3403762,2.41367511 Z M4.7463726,1.94935765 C6.52201163,0.720138878 8.67690709,1.98951966e-13 11,1.98951966e-13 C12.4476383,1.98951966e-13 13.8299625,0.279642519 15.0959006,0.787855393 C11.5082997,1.23557847 8.27846089,2.83507442 5.78811463,5.20461277 C5.3335468,4.17071623 4.98196982,3.08130155 4.7463726,1.94935765 Z" id="Combined-Shape" fill="#9C9BA8"></path>
            <path d="M3.72154421,2.76742051 C4.5336585,6.88967282 6.88104629,10.4607564 10.1434078,12.8603716 C9.0329393,13.9532954 7.76839877,14.8901362 6.38533795,15.6353422 C4.57416581,13.8938843 3.15980489,11.7427293 2.29133039,9.33095219 C1.69373577,7.63948883 1.58995898,6.25250477 1.98,5.17 C2.21767573,4.44150836 2.79819047,3.64064853 3.72154421,2.76742051 Z M5.20461277,16.2118854 C4.17071623,16.6664532 3.08130155,17.0180302 1.94935765,17.2536274 C0.720138878,15.4779884 -5.68434189e-14,13.3230929 -5.68434189e-14,11 C-5.68434189e-14,9.55236174 0.279642519,8.17003749 0.787855393,6.90409941 C1.23557847,10.4917003 2.83507442,13.7215391 5.20461277,16.2118854 Z" id="Combined-Shape" fill="#9C9BA8"></path>
            <path d="M2.7675539,18.2784295 C6.88974985,17.4662909 10.4607823,15.1189185 12.8603716,11.8565922 C13.9532954,12.9670607 14.8901362,14.2316012 15.6353422,15.6146621 C13.9526564,17.3647093 11.8874604,18.7442772 9.57423972,19.6188801 C7.78877241,20.2674287 6.3206925,20.4011353 5.17,20.02 C4.35965809,19.6878018 3.55884272,19.1072783 2.7675539,18.2784295 Z M6.90409941,21.2121446 C10.4917003,20.7644215 13.7215391,19.1649256 16.2118854,16.7953872 C16.6664532,17.8292838 17.0180302,18.9186985 17.2536274,20.0506423 C15.4779884,21.2798611 13.3230929,22 11,22 C9.55236174,22 8.17003749,21.7203575 6.90409941,21.2121446 Z" id="Combined-Shape" fill="#9C9BA8"></path>
            <path d="M18.0808744,19.4117647 C17.2672503,15.2660443 14.9154934,11.6746303 11.6470588,9.26135443 C12.7595938,8.16220948 14.0264875,7.22003606 15.412122,6.47058824 C17.2438712,8.2385664 18.6704953,10.4264251 19.5383526,12.8799351 C20.1175745,14.54975 20.2133428,15.9216053 19.8256578,16.995501 C19.5205129,17.7919762 18.9389184,18.5973974 18.0808744,19.4117647 Z M16.8235298,5.57149735 C17.8518359,5.11677961 18.9353598,4.76508668 20.061183,4.52941176 C21.2837551,6.30563639 22,8.46124252 22,10.7851016 C22,12.2332172 21.7218696,13.6159974 21.2164047,14.8823529 C20.7711026,11.2935689 19.1802555,8.06266491 16.8235298,5.57149735 Z" id="Combined-Shape" fill="#9C9BA8"></path>
        </g>
    </g>
</svg>