<?xml version="1.0" encoding="UTF-8"?>
<svg width="22px" height="22px" viewBox="0 0 22 22" version="1.1" xmlns="http://www.w3.org/2000/svg" xmlns:xlink="http://www.w3.org/1999/xlink">
    <!-- Generator: Sketch 52.5 (67469) - http://www.bohemiancoding.com/sketch -->
    <title>风险报告2</title>
    <desc>Created with Sketch.</desc>
    <defs>
        <linearGradient x1="80.1963405%" y1="100%" x2="0%" y2="-1.11022302e-14%" id="linearGradient-1">
            <stop stop-color="#365AE4" offset="0%"></stop>
            <stop stop-color="#3861FF" offset="100%"></stop>
        </linearGradient>
    </defs>
    <g id="Page-1" stroke="none" stroke-width="1" fill="none" fill-rule="evenodd">
        <g id="风险报告2">
            <rect id="Rectangle" fill-opacity="0" fill="#FFFFFF" fill-rule="nonzero" x="0" y="0" width="22" height="22"></rect>
            <g id="导航/图标/风险报告">
                <g id="report_icon">
                    <path d="M16,22 L4,22 C1.790861,22 2.705415e-16,20.209139 0,18 L12,18 C12,20.209139 13.790861,22 16,22 Z" id="Combined-Shape" fill="#D7000F" fill-rule="nonzero"></path>
                    <path d="M19,16.5 L19,17.75 C19,19.2687831 17.7687831,20.5 16.25,20.5 C14.7312169,20.5 13.5,19.2687831 13.5,17.75 L13.5,16.5 L3,16.5 L3,4 C3,1.790861 4.790861,4.05812251e-16 7,0 L22,0 L22,0.611311603 C20.2747728,1.0553544 19,2.62145469 19,4.48529412 L19,16.5 Z M6.75,5 C6.33578644,5 6,5.33578644 6,5.75 C6,6.16421356 6.33578644,6.5 6.75,6.5 L13.25,6.5 C13.6642136,6.5 14,6.16421356 14,5.75 C14,5.33578644 13.6642136,5 13.25,5 L6.75,5 Z M6.75,9 C6.33578644,9 6,9.33578644 6,9.75 C6,10.1642136 6.33578644,10.5 6.75,10.5 L10.25,10.5 C10.6642136,10.5 11,10.1642136 11,9.75 C11,9.33578644 10.6642136,9 10.25,9 L6.75,9 Z" id="Combined-Shape" fill="url(#linearGradient-1)" fill-rule="nonzero"></path>
                </g>
            </g>
        </g>
    </g>
</svg>