<?xml version="1.0" encoding="UTF-8"?>
<svg width="22px" height="22px" viewBox="0 0 22 22" version="1.1" xmlns="http://www.w3.org/2000/svg" xmlns:xlink="http://www.w3.org/1999/xlink">
    <!-- Generator: Sketch 52.5 (67469) - http://www.bohemiancoding.com/sketch -->
    <title>风险报告1</title>
    <desc>Created with Sketch.</desc>
    <g id="Page-1" stroke="none" stroke-width="1" fill="none" fill-rule="evenodd">
        <g id="风险报告1" fill-rule="nonzero">
            <rect id="Rectangle" fill-opacity="0" fill="#FFFFFF" x="0" y="0" width="22" height="22"></rect>
            <g id="导航/图标/风险报告1" fill="#9C9BA8">
                <path d="M11,22 L4,22 C1.790861,22 2.705415e-16,20.209139 0,18 L3,18 L11,18 L12.5,18 L12.5,19 C12.5,20.6568542 13.8431458,22 15.5,22 L11,22 Z M14,18 L14,16.5 L3,16.5 L3,4 C3,1.790861 4.790861,4.05812251e-16 7,0 L22,0 L22,0.416043685 C20.2340952,1.18760031 19,2.94968096 19,5 L19,16.25 L19,18.5 C19,19.8807119 17.8807119,21 16.5,21 C15.1192881,21 14,19.8807119 14,18.5 L14,18 Z M6.75,5 C6.33578644,5 6,5.33578644 6,5.75 C6,6.16421356 6.33578644,6.5 6.75,6.5 L13.25,6.5 C13.6642136,6.5 14,6.16421356 14,5.75 C14,5.33578644 13.6642136,5 13.25,5 L6.75,5 Z M6.75,9 C6.33578644,9 6,9.33578644 6,9.75 C6,10.1642136 6.33578644,10.5 6.75,10.5 L11.25,10.5 C11.6642136,10.5 12,10.1642136 12,9.75 C12,9.33578644 11.6642136,9 11.25,9 L6.75,9 Z" id="Combined-Shape"></path>
            </g>
        </g>
    </g>
</svg>