<?xml version="1.0" encoding="UTF-8"?>
<svg width="22px" height="22px" viewBox="0 0 22 22" version="1.1" xmlns="http://www.w3.org/2000/svg" xmlns:xlink="http://www.w3.org/1999/xlink">
    <!-- Generator: Sketch 52.5 (67469) - http://www.bohemiancoding.com/sketch -->
    <title>我的2</title>
    <desc>Created with Sketch.</desc>
    <defs>
        <linearGradient x1="100%" y1="100%" x2="0%" y2="-1.11022302e-14%" id="linearGradient-1">
            <stop stop-color="#365AE4" offset="0%"></stop>
            <stop stop-color="#3861FF" offset="100%"></stop>
        </linearGradient>
    </defs>
    <g id="Page-1" stroke="none" stroke-width="1" fill="none" fill-rule="evenodd">
        <g id="我的2" fill-rule="nonzero">
            <rect id="Rectangle" fill-opacity="0" fill="#D8D8D8" x="0" y="0" width="22" height="22"></rect>
            <g id="Group-2">
                <g id="导航/图标/我的" fill="url(#linearGradient-1)">
                    <path d="M16.610825,11.1862358 C19.7003377,11.9138343 22,14.6883597 22,18 C22,20.209139 20.209139,22 18,22 L4,22 C1.790861,22 2.705415e-16,20.209139 0,18 C-4.05558973e-16,14.6883597 2.29966233,11.9138343 5.38917496,11.1862358 C6.66561486,12.8942875 8.70368094,14 11,14 C13.2963191,14 15.3343851,12.8942875 16.610825,11.1862358 Z M11,12 C8.74572754,12 5.50085449,9.3137085 5.50085449,6 C5.50085449,2.6862915 7.05033415,5.2770779e-16 11,0 C14.9496658,0 16.5,2.6862915 16.5,6 C16.5,9.3137085 13.2542725,12 11,12 Z M10.9996893,10.5 C12.6392875,10.5 15,8.48528137 15,6 C15,3.51471863 13.8723967,1.5 10.9996893,1.5 C8.12698184,1.5 7,3.51471863 7,6 C7,8.48528137 9.360091,10.5 10.9996893,10.5 Z" id="Combined-Shape"></path>
                </g>
                <path d="M8.13735613,5 C8.94827635,5.58178781 9.9352735,5.92311573 11,5.92311573 C12.0647265,5.92311573 13.0517236,5.58178781 13.8626439,5 C13.9518883,5.29140828 14,5.60149947 14,5.92311573 C14,7.62243199 12.6568542,9 11,9 C9.34314575,9 8,7.62243199 8,5.92311573 C8,5.60149947 8.0481117,5.29140828 8.13735613,5 Z" id="Combined-Shape" fill="#D7000F"></path>
            </g>
        </g>
    </g>
</svg>