<?xml version="1.0" encoding="UTF-8"?>
<svg width="71px" height="12px" viewBox="0 0 71 12" version="1.1" xmlns="http://www.w3.org/2000/svg" xmlns:xlink="http://www.w3.org/1999/xlink">
    <!-- Generator: Sketch 52.2 (67145) - http://www.bohemiancoding.com/sketch -->
    <title>分组 2</title>
    <desc>Created with Sketch.</desc>
    <g id="页面-1" stroke="none" stroke-width="1" fill="none" fill-rule="evenodd">
        <g id="iPhone-8" transform="translate(-55.000000, -162.000000)">
            <g id="分组-2" transform="translate(55.000000, 158.000000)">
                <path d="M65.336,4.088 C65.444,4.388 65.552,4.712 65.66,5.072 L70.328,5.072 L70.328,6.128 L59.66,6.128 L59.66,5.072 L64.424,5.072 C64.316,4.796 64.196,4.544 64.064,4.304 L65.336,4.088 Z M68.384,15.2 L67.388,15.2 L67.124,14.18 L68.048,14.228 C68.492,14.228 68.72,14.06 68.72,13.748 L68.72,10.712 L61.28,10.712 L61.28,15.236 L60.2,15.236 L60.2,9.728 L69.8,9.728 L69.8,13.988 C69.8,14.792 69.32,15.2 68.384,15.2 Z M61.544,6.692 L68.468,6.692 L68.468,9.188 L61.544,9.188 L61.544,6.692 Z M67.376,8.324 L67.376,7.556 L62.636,7.556 L62.636,8.324 L67.376,8.324 Z M62.564,11.288 L67.448,11.288 L67.448,13.808 L62.564,13.808 L62.564,11.288 Z M66.44,12.968 L66.44,12.128 L63.584,12.128 L63.584,12.968 L66.44,12.968 Z" id="高" fill="#E3001D"></path>
                <rect id="矩形-copy-25" fill="#FECDCD" fill-rule="nonzero" x="0" y="4" width="6" height="12" rx="1"></rect>
                <rect id="矩形-copy-26" fill="#FEB3B4" fill-rule="nonzero" x="7" y="4" width="6" height="12" rx="1"></rect>
                <rect id="矩形-copy-27" fill="#FC9999" fill-rule="nonzero" x="14" y="4" width="6" height="12" rx="1"></rect>
                <rect id="矩形-copy-28" fill="#FC7D7D" fill-rule="nonzero" x="21" y="4" width="6" height="12" rx="1"></rect>
                <rect id="矩形-copy-29" fill="#FA6666" fill-rule="nonzero" x="28" y="4" width="6" height="12" rx="1"></rect>
                <rect id="矩形-copy-30" fill="#FA4C4C" fill-rule="nonzero" x="35" y="4" width="6" height="12" rx="1"></rect>
                <rect id="矩形-copy-33" fill="#E4E3E4" fill-rule="nonzero" x="42" y="4" width="6" height="12" rx="1"></rect>
                <rect id="矩形-copy-34" fill="#E4E3E4" fill-rule="nonzero" x="49" y="4" width="6" height="12" rx="1"></rect>
            </g>
        </g>
    </g>
</svg>