<?xml version="1.0" encoding="UTF-8"?>
<svg width="343px" height="100px" viewBox="0 0 343 100" version="1.1" xmlns="http://www.w3.org/2000/svg" xmlns:xlink="http://www.w3.org/1999/xlink">
    <!-- Generator: Sketch 52.6 (67491) - http://www.bohemiancoding.com/sketch -->
    <title>Group</title>
    <desc>Created with Sketch.</desc>
    <defs>
        <rect id="path-1" x="0" y="0" width="343" height="100" rx="10"></rect>
        <linearGradient x1="2.23311055%" y1="2.23311055%" x2="95.9027147%" y2="95.9027147%" id="linearGradient-3">
            <stop stop-color="#F58D81" offset="0%"></stop>
            <stop stop-color="#E7463A" offset="100%"></stop>
        </linearGradient>
        <linearGradient x1="50%" y1="0%" x2="50%" y2="100%" id="linearGradient-4">
            <stop stop-color="#699AFF" offset="0%"></stop>
            <stop stop-color="#3861FF" offset="100%"></stop>
        </linearGradient>
        <linearGradient x1="100%" y1="-5.55111512e-15%" x2="2.26923772%" y2="97.7307623%" id="linearGradient-5">
            <stop stop-color="#69DDDB" offset="0%"></stop>
            <stop stop-color="#4EC871" offset="100%"></stop>
        </linearGradient>
        <linearGradient x1="100%" y1="3.74939946e-31%" x2="1.11022302e-14%" y2="100%" id="linearGradient-6">
            <stop stop-color="#FFFFFF" offset="0%"></stop>
            <stop stop-color="#000000" offset="100%"></stop>
        </linearGradient>
        <radialGradient cx="-7.60783065%" cy="51.4974622%" fx="-7.60783065%" fy="51.4974622%" r="113.265933%" gradientTransform="translate(-0.076078,0.514975),scale(0.861538,1.000000),translate(0.076078,-0.514975)" id="radialGradient-7">
            <stop stop-color="#B0FFC3" offset="0%"></stop>
            <stop stop-color="#02ABFE" offset="100%"></stop>
        </radialGradient>
        <radialGradient cx="-0.188600002%" cy="50.4886054%" fx="-0.188600002%" fy="50.4886054%" r="69.4297622%" gradientTransform="translate(-0.001886,0.504886),scale(0.807692,1.000000),rotate(-60.413927),translate(0.001886,-0.504886)" id="radialGradient-8">
            <stop stop-color="#007FBD" offset="0%"></stop>
            <stop stop-color="#02ABFE" stop-opacity="0.6" offset="100%"></stop>
        </radialGradient>
        <linearGradient x1="0%" y1="1.72254642e-14%" x2="100%" y2="100%" id="linearGradient-9">
            <stop stop-color="#38383C" offset="0%"></stop>
            <stop stop-color="#696E76" offset="84.0543714%"></stop>
            <stop stop-color="#888C90" offset="100%"></stop>
        </linearGradient>
    </defs>
    <g id="Symbols" stroke="none" stroke-width="1" fill="none" fill-rule="evenodd">
        <g id="banner/5">
            <g id="Group">
                <g id="Omni-Channel-Retail-Pricing,-Promotions,--Assortment--Wiser">
                    <mask id="mask-2" fill="white">
                        <use xlink:href="#path-1"></use>
                    </mask>
                    <use id="Mask" fill="#FFFFFF" fill-rule="nonzero" xlink:href="#path-1"></use>
                    <g id="Group-19" mask="url(#mask-2)" fill-rule="nonzero">
                        <g transform="translate(172.000000, 35.000000)">
                            <rect id="Rectangle" stroke="none" fill="url(#linearGradient-3)" x="0" y="63" width="7" height="1" rx="0.5"></rect>
                            <rect id="Rectangle" stroke="none" fill="url(#linearGradient-4)" x="8" y="63" width="7" height="1" rx="0.5"></rect>
                            <path d="M32.5,55 L32.5,55 C34.4329966,55 36,56.5670034 36,58.5 L36,63 C36,63.5522847 35.5522847,64 35,64 L30,64 C29.4477153,64 29,63.5522847 29,63 L29,58.5 C29,56.5670034 30.5670034,55 32.5,55 Z" id="Rectangle" stroke="none" fill="url(#linearGradient-3)"></path>
                            <rect id="Rectangle" stroke="none" fill="url(#linearGradient-4)" x="37" y="60" width="7" height="4" rx="2"></rect>
                            <path d="M61.5,53 L61.5,53 C63.4329966,53 65,54.5670034 65,56.5 L65,63 C65,63.5522847 64.5522847,64 64,64 L59,64 C58.4477153,64 58,63.5522847 58,63 L58,56.5 C58,54.5670034 59.5670034,53 61.5,53 Z" id="Rectangle" stroke="none" fill="url(#linearGradient-3)"></path>
                            <path d="M69.5,57 L69.5,57 C71.4329966,57 73,58.5670034 73,60.5 L73,63 C73,63.5522847 72.5522847,64 72,64 L67,64 C66.4477153,64 66,63.5522847 66,63 L66,60.5 C66,58.5670034 67.5670034,57 69.5,57 Z" id="Rectangle" stroke="none" fill="url(#linearGradient-4)"></path>
                            <path d="M91.5,11 L91.5,11 C93.4329966,11 95,12.5670034 95,14.5 L95,63 C95,63.5522847 94.5522847,64 94,64 L89,64 C88.4477153,64 88,63.5522847 88,63 L88,14.5 C88,12.5670034 89.5670034,11 91.5,11 Z" id="Rectangle" stroke="none" fill="url(#linearGradient-3)"></path>
                            <path d="M99.5,50 L99.5,50 C101.432997,50 103,51.5670034 103,53.5 L103,63 C103,63.5522847 102.552285,64 102,64 L97,64 C96.4477153,64 96,63.5522847 96,63 L96,53.5 C96,51.5670034 97.5670034,50 99.5,50 Z" id="Rectangle" stroke="none" fill="url(#linearGradient-4)"></path>
                            <path d="M120.5,19 L120.5,19 C122.432997,19 124,20.5670034 124,22.5 L124,63 C124,63.5522847 123.552285,64 123,64 L118,64 C117.447715,64 117,63.5522847 117,63 L117,22.5 C117,20.5670034 118.567003,19 120.5,19 Z" id="Rectangle" stroke="none" fill="url(#linearGradient-3)"></path>
                            <path d="M128,58 L129,58 C130.656854,58 132,59.3431458 132,61 L132,63 C132,63.5522847 131.552285,64 131,64 L126,64 C125.447715,64 125,63.5522847 125,63 L125,61 C125,59.3431458 126.343146,58 128,58 Z" id="Rectangle" stroke="none" fill="url(#linearGradient-4)"></path>
                            <path d="M149.5,0 L149.5,0 C151.432997,-3.55085719e-16 153,1.56700338 153,3.5 L153,63 C153,63.5522847 152.552285,64 152,64 L147,64 C146.447715,64 146,63.5522847 146,63 L146,3.5 C146,1.56700338 147.567003,3.55085719e-16 149.5,0 Z" id="Rectangle" stroke="none" fill="url(#linearGradient-3)"></path>
                            <path d="M157.5,36 L157.5,36 C159.432997,36 161,37.5670034 161,39.5 L161,63 C161,63.5522847 160.552285,64 160,64 L155,64 C154.447715,64 154,63.5522847 154,63 L154,39.5 C154,37.5670034 155.567003,36 157.5,36 Z" id="Rectangle" stroke="none" fill="url(#linearGradient-4)"></path>
                            <path d="M8,62 C17.8757557,60.7098361 27.5999408,60.0076375 37.1725552,59.893404 C51.5314767,59.7220539 55.6576319,62.4909905 66.4110266,61.3029604 C77.1644214,60.1149302 86.7436718,52.7637561 95.5649722,52.1692188 C104.386273,51.5746815 112.485103,58.4890067 124.756833,56.3824107 C132.937986,54.9780134 142.685708,47.5172099 154,34" id="Path-2" stroke="url(#linearGradient-5)" stroke-width="1.4" fill="none" stroke-linecap="round" stroke-linejoin="round"></path>
                        </g>
                    </g>
                    <g id="Group-13" mask="url(#mask-2)">
                        <g transform="translate(6.000000, 6.000000)" id="Difference-Between-a-CDP-and-a-DMP-Explained---Treasure-Data">
                            <g>
                                <path d="M26,27 L27,27 L27,31 L26,31 L26,27 Z M22,26 L26,26 L26,27 L22,27 L22,26 Z M27,26 L31,26 L31,27 L27,27 L27,26 L26,26 L26,22 L27,22 L27,26 Z" id="Combined-Shape" fill="#000000" opacity="0.3"></path>
                                <rect id="Rectangle" fill="#000000" opacity="0.08" x="31" y="26" width="22" height="1"></rect>
                                <rect id="Rectangle" fill="#000000" opacity="0.08" x="0" y="26" width="22" height="1"></rect>
                                <rect id="Rectangle" fill="url(#linearGradient-6)" opacity="0.08" transform="translate(26.500000, 42.000000) rotate(90.000000) translate(-26.500000, -42.000000) " x="15.5" y="41.5" width="22" height="1"></rect>
                                <rect id="Rectangle" fill="#000000" opacity="0.08" transform="translate(26.500000, 11.000000) rotate(90.000000) translate(-26.500000, -11.000000) " x="15.5" y="10.5" width="22" height="1"></rect>
                            </g>
                        </g>
                    </g>
                    <g id="Group-13" mask="url(#mask-2)">
                        <g transform="translate(59.000000, 6.000000)" id="Difference-Between-a-CDP-and-a-DMP-Explained---Treasure-Data">
                            <g>
                                <path d="M26,27 L27,27 L27,31 L26,31 L26,27 Z M22,26 L26,26 L26,27 L22,27 L22,26 Z M27,26 L31,26 L31,27 L27,27 L27,26 L26,26 L26,22 L27,22 L27,26 Z" id="Combined-Shape" fill="#000000" opacity="0.3"></path>
                                <rect id="Rectangle" fill="#000000" opacity="0.08" x="31" y="26" width="22" height="1"></rect>
                                <rect id="Rectangle" fill="#000000" opacity="0.08" x="0" y="26" width="22" height="1"></rect>
                                <rect id="Rectangle" fill="url(#linearGradient-6)" opacity="0.08" transform="translate(26.500000, 42.000000) rotate(90.000000) translate(-26.500000, -42.000000) " x="15.5" y="41.5" width="22" height="1"></rect>
                                <rect id="Rectangle" fill="#000000" opacity="0.08" transform="translate(26.500000, 11.000000) rotate(90.000000) translate(-26.500000, -11.000000) " x="15.5" y="10.5" width="22" height="1"></rect>
                            </g>
                        </g>
                    </g>
                    <g id="Group-13" mask="url(#mask-2)">
                        <g transform="translate(112.000000, 6.000000)" id="Difference-Between-a-CDP-and-a-DMP-Explained---Treasure-Data">
                            <g>
                                <path d="M26,27 L27,27 L27,31 L26,31 L26,27 Z M22,26 L26,26 L26,27 L22,27 L22,26 Z M27,26 L31,26 L31,27 L27,27 L27,26 L26,26 L26,22 L27,22 L27,26 Z" id="Combined-Shape" fill="#000000" opacity="0.3"></path>
                                <rect id="Rectangle" fill="#000000" opacity="0.08" x="31" y="26" width="22" height="1"></rect>
                                <rect id="Rectangle" fill="#000000" opacity="0.08" x="0" y="26" width="22" height="1"></rect>
                                <rect id="Rectangle" fill="url(#linearGradient-6)" opacity="0.08" transform="translate(26.500000, 42.000000) rotate(90.000000) translate(-26.500000, -42.000000) " x="15.5" y="41.5" width="22" height="1"></rect>
                                <rect id="Rectangle" fill="#000000" opacity="0.08" transform="translate(26.500000, 11.000000) rotate(90.000000) translate(-26.500000, -11.000000) " x="15.5" y="10.5" width="22" height="1"></rect>
                            </g>
                        </g>
                    </g>
                    <g id="Group-13" mask="url(#mask-2)">
                        <g transform="translate(165.000000, 6.000000)" id="Difference-Between-a-CDP-and-a-DMP-Explained---Treasure-Data">
                            <g>
                                <path d="M26,27 L27,27 L27,31 L26,31 L26,27 Z M22,26 L26,26 L26,27 L22,27 L22,26 Z M27,26 L31,26 L31,27 L27,27 L27,26 L26,26 L26,22 L27,22 L27,26 Z" id="Combined-Shape" fill="#000000" opacity="0.3"></path>
                                <rect id="Rectangle" fill="#000000" opacity="0.08" x="31" y="26" width="22" height="1"></rect>
                                <rect id="Rectangle" fill="#000000" opacity="0.08" x="0" y="26" width="22" height="1"></rect>
                                <rect id="Rectangle" fill="url(#linearGradient-6)" opacity="0.08" transform="translate(26.500000, 42.000000) rotate(90.000000) translate(-26.500000, -42.000000) " x="15.5" y="41.5" width="22" height="1"></rect>
                                <rect id="Rectangle" fill="#000000" opacity="0.08" transform="translate(26.500000, 11.000000) rotate(90.000000) translate(-26.500000, -11.000000) " x="15.5" y="10.5" width="22" height="1"></rect>
                            </g>
                        </g>
                    </g>
                    <g id="Group-13" mask="url(#mask-2)">
                        <g transform="translate(218.000000, 6.000000)" id="Difference-Between-a-CDP-and-a-DMP-Explained---Treasure-Data">
                            <g>
                                <path d="M26,27 L27,27 L27,31 L26,31 L26,27 Z M22,26 L26,26 L26,27 L22,27 L22,26 Z M27,26 L31,26 L31,27 L27,27 L27,26 L26,26 L26,22 L27,22 L27,26 Z" id="Combined-Shape" fill="#000000" opacity="0.3"></path>
                                <rect id="Rectangle" fill="#000000" opacity="0.08" x="31" y="26" width="22" height="1"></rect>
                                <rect id="Rectangle" fill="#000000" opacity="0.08" x="0" y="26" width="22" height="1"></rect>
                                <rect id="Rectangle" fill="url(#linearGradient-6)" opacity="0.08" transform="translate(26.500000, 42.000000) rotate(90.000000) translate(-26.500000, -42.000000) " x="15.5" y="41.5" width="22" height="1"></rect>
                                <rect id="Rectangle" fill="#000000" opacity="0.08" transform="translate(26.500000, 11.000000) rotate(90.000000) translate(-26.500000, -11.000000) " x="15.5" y="10.5" width="22" height="1"></rect>
                            </g>
                        </g>
                    </g>
                    <g id="Group-13" mask="url(#mask-2)">
                        <g transform="translate(271.000000, 6.000000)" id="Difference-Between-a-CDP-and-a-DMP-Explained---Treasure-Data">
                            <g>
                                <path d="M26,27 L27,27 L27,31 L26,31 L26,27 Z M22,26 L26,26 L26,27 L22,27 L22,26 Z M27,26 L31,26 L31,27 L27,27 L27,26 L26,26 L26,22 L27,22 L27,26 Z" id="Combined-Shape" fill="#000000" opacity="0.3"></path>
                                <rect id="Rectangle" fill="#000000" opacity="0.08" x="31" y="26" width="22" height="1"></rect>
                                <rect id="Rectangle" fill="#000000" opacity="0.08" x="0" y="26" width="22" height="1"></rect>
                                <rect id="Rectangle" fill="url(#linearGradient-6)" opacity="0.08" transform="translate(26.500000, 42.000000) rotate(90.000000) translate(-26.500000, -42.000000) " x="15.5" y="41.5" width="22" height="1"></rect>
                                <rect id="Rectangle" fill="#000000" opacity="0.08" transform="translate(26.500000, 11.000000) rotate(90.000000) translate(-26.500000, -11.000000) " x="15.5" y="10.5" width="22" height="1"></rect>
                            </g>
                        </g>
                    </g>
                    <g id="Group-13" mask="url(#mask-2)" opacity="0.08">
                        <g transform="translate(324.000000, 6.000000)" id="Difference-Between-a-CDP-and-a-DMP-Explained---Treasure-Data">
                            <g>
                                <rect id="Rectangle" fill="#000000" x="0" y="26" width="22" height="1"></rect>
                            </g>
                        </g>
                    </g>
                    <g id="SOC-Automation-and-Orchestration-Platform--Swimlane" opacity="0.6" mask="url(#mask-2)">
                        <g transform="translate(-63.000000, 30.000000)" id="Path">
                            <path d="M44.0000031,55.7838965 C44.0000031,55.6402501 44.0753038,55.507199 44.1981975,55.4336439 L108.386783,17.0579604 C108.657183,16.8962786 109,17.0920223 109,17.4081329 L109,34.216226 C109,34.3598723 108.92454,34.4929031 108.801815,34.5663767 L44.6132171,72.9419915 C44.3427829,73.1037719 43.9999999,72.9079647 44,72.5919427 L44.0000031,55.7838965 Z" fill="url(#radialGradient-7)"></path>
                            <path d="M72.0000045,29.6063676 C72.0000045,29.4612503 72.0784197,29.3273115 72.2057536,29.2545496 L123.381487,0.0552270771 C123.65613,-0.101516677 124,0.0940412795 124,0.407100752 L123.999794,12.3935456 C123.999794,12.5386426 123.921501,12.672744 123.794172,12.7454043 L72.6183955,41.9447931 C72.3436806,42.1014954 71.9999999,41.9059732 72,41.5927718 L72.0000045,29.6063676 Z" fill="url(#radialGradient-8)" opacity="0.75"></path>
                        </g>
                    </g>
                </g>
                <g id="Group-12" transform="translate(26.000000, 51.000000)" fill="url(#linearGradient-9)" stroke="#FFFFFF">
                    <path d="M7.15458422,7.81136468 L7.15458422,7.13256607 L4.59381663,7.13256607 L4.59381663,7.81136468 L7.15458422,7.81136468 Z M4.50222871,10.5741032 C4.48313897,10.8260544 4.46106643,11.0803003 4.43601236,11.3368418 L7.15458422,11.3368418 L7.15458422,10.5741032 L4.50222871,10.5741032 Z M4.03982358,14.1415503 C3.61605753,16.3177287 2.96648015,18.295541 2.09031833,20.074065 L1.80139853,20.6605444 L-0.621829815,18.5233985 L-0.445288431,18.1777249 C0.865911374,15.6103545 1.53294738,12.2936923 1.54690832,8.22742475 L1.54690832,0.676470588 L18.858209,0.676470588 L18.858209,7.13256607 L15.8944563,7.13256607 L15.8944563,7.81136468 L19.0927505,7.81136468 L19.0927505,10.5741032 L15.8944563,10.5741032 L15.8944563,11.3368418 L19.8176972,11.3368418 L19.8176972,14.1415503 L18.4216292,14.1415503 L19.1037793,14.8013441 L18.8060426,15.1580777 C18.3135336,15.748178 17.7849834,16.2674678 17.2205123,16.7153877 C18.0880136,17.1184207 19.0454276,17.4201852 20.0937159,17.6202128 L20.7470073,17.7448695 L19.3047431,20.5838101 L18.9164603,20.4843669 C16.0263594,19.7441819 13.7248332,18.3664307 12.0252741,16.3579213 L12.5206244,18.7142758 L12.1019375,18.8573084 C10.3557005,19.4538607 8.28430824,19.9635245 5.88662429,20.3874389 L5.45581258,20.4636072 L4.62692817,17.8593721 L5.06204547,17.6880759 C5.51326876,17.5104391 5.70469083,17.2383104 5.70469083,16.7892977 L5.70469083,14.1415503 L4.03982358,14.1415503 Z M15.8124979,14.1415503 L16.9083156,14.1415503 L16.5121964,13.3364444 C16.2876547,13.6279671 16.0544267,13.8962828 15.8124979,14.1415503 Z M14.7218426,15.0523882 C14.6205486,15.1206103 14.5179976,15.1855435 14.414189,15.2471966 L14.9963294,15.2986906 C14.9029354,15.2180279 14.8114407,15.1359279 14.7218426,15.0523882 Z M13.866457,14.1415503 C13.663037,13.8934416 13.4729178,13.6351236 13.2960465,13.3665493 L12.8784648,14.1415503 L13.866457,14.1415503 Z M12.9328358,7.13256607 L10.0948827,7.13256607 L10.0948827,7.81136468 L12.9328358,7.81136468 L12.9328358,7.13256607 Z M10.0948827,11.3368418 L12.9328358,11.3368418 L12.9328358,10.5741032 L10.0948827,10.5741032 L10.0948827,11.3368418 Z M15.8113006,3.50216408 L4.59381663,3.50216408 L4.59381663,4.34884255 L15.8113006,4.34884255 L15.8113006,3.50216408 Z" id="展"></path>
                    <path d="M38.24628,3.59251217 L33.7349775,3.59251217 L33.7349775,13.5306619 L30.8303362,13.5306619 L30.8303362,0.676470588 L41.1914456,0.676470588 L41.1914456,13.5306619 L38.24628,13.5306619 L38.24628,3.59251217 Z M35.5919395,16.5327582 C35.5827467,16.5483063 35.5735171,16.5638167 35.5642505,16.5792893 C34.5157501,18.2658516 32.7931101,19.5603318 30.4142901,20.4672012 L30.0302417,20.6136107 L28.4393849,18.0703206 L28.9997262,17.8501909 C31.1207108,17.0169634 32.5391829,15.9792109 33.2633843,14.7680298 C34.0049491,13.4261281 34.4196338,11.6485851 34.4977838,9.45124358 L34.4977838,3.9190025 L37.3416387,3.9190025 L37.3416387,4.4190025 L37.3413817,9.46727409 C37.3074284,10.5257508 37.2083546,11.5187906 37.0438261,12.4464403 L38.5168429,12.4464403 L38.5168429,17.0943545 C38.5168429,17.2573615 38.4907008,17.2260166 38.5436586,17.2260166 L39.7391249,17.2260166 C39.8036482,17.2260166 39.8209452,17.216031 39.8401525,17.184267 C39.9297563,17.0073546 40.0200658,16.316923 40.0703969,15.2185907 L40.1009258,14.5523846 L42.8807261,15.5043192 L42.8515119,15.8898643 C42.7069909,17.7971373 42.4489098,18.9369232 41.9618824,19.4416657 C41.5082847,19.8586345 40.8748506,20.0578366 40.0835813,20.0578366 L37.9763186,20.0578366 C36.4345252,20.0578366 35.5919395,19.1446046 35.5919395,17.5154626 L35.5919395,16.5327608 Z M25.6027037,7.58264245 L25.6027037,4.11889722 L23.1712468,4.11889722 L23.1712468,1.20285564 L30.938802,1.20285564 L30.938802,4.11889722 L28.5478693,4.11889722 L28.5478693,7.58264245 L30.655132,7.58264245 L30.655132,10.5197394 L28.5478693,10.5197394 L28.5478693,13.4760193 C29.1401971,13.2556227 29.7181741,13.0242419 30.2818151,12.7818802 L30.9793263,12.4819552 L30.9793263,15.4900429 L30.6723345,15.6185035 C28.6365755,16.470366 26.4521414,17.1939141 24.119092,17.7893778 L23.6291158,17.9144343 L22.919936,14.9986987 L23.4333447,14.8981826 C24.2094264,14.7462399 24.9325746,14.5846365 25.6027037,14.4134498 L25.6027037,10.5197394 L23.4346546,10.5197394 L23.4346546,7.58264245 L25.6027037,7.58264245 Z" id="现"></path>
                    <path d="M56.6166726,5.0731977 C56.5515683,5.17440129 56.4824119,5.27913231 56.4091973,5.38740759 L66.1270799,5.38740759 L65.9637521,10.0579074 L67.5588235,10.0579074 L67.5588235,12.8371454 L65.838595,12.8371454 L65.7280652,14.9305933 L67.2321679,14.9305933 L67.2321679,17.568301 L65.5142735,17.568301 C65.4845123,17.8111575 65.4446358,18.0224321 65.3928448,18.2066748 C65.1507403,18.9899039 64.67832,19.5808767 63.9854833,19.9565922 C63.3174431,20.3104618 62.4105459,20.4797814 61.2658985,20.4797542 L58.9563684,20.5038301 L58.0700751,17.7081119 L58.8067897,17.7625592 C59.7074359,17.8291218 60.4376108,17.8622923 60.9952788,17.8622923 C61.4080743,17.8622923 61.8070228,17.8190791 62.1148201,17.7570804 C62.2301282,17.7105571 62.3323551,17.6453406 62.4193633,17.568301 L52.9296232,17.568301 L53.0537831,16.9671646 C53.3694656,15.4387478 53.6141333,14.0619359 53.7878407,12.8371454 L51.981817,12.8371454 L51.981817,10.0579074 L54.1125256,10.0579074 C54.1835038,9.33779281 54.2399686,8.65215537 54.2819316,8.00103745 C54.2449321,8.03894289 54.2113287,8.07285337 54.1811034,8.10278647 L53.7931872,8.48695269 L51.9207423,6.23083428 L52.2601985,5.90881434 C53.4996352,4.73304166 54.5718636,3.09138815 55.4721973,0.980322683 L55.63297,0.603349561 L58.5692979,1.21554796 L58.3320568,1.77580789 C58.2579553,1.95080317 58.1826641,2.12352024 58.1061818,2.29395969 L66.9463443,2.29395969 L66.9463443,5.0731977 L56.6166726,5.0731977 Z M56.6365274,12.8371454 C56.533426,13.6017683 56.4211929,14.2995033 56.2997072,14.9305933 L58.9826274,14.9305933 C58.5456891,14.5475889 58.0524333,14.1631626 57.5028314,13.7776247 L57.0081653,13.4306234 L57.6191869,12.8371454 L56.6365274,12.8371454 Z M61.5725929,14.9305933 L62.8892345,14.9305933 L62.9997644,12.8371454 L60.690319,12.8371454 C61.1332622,13.2004822 61.5316262,13.5648398 61.8854049,13.9304316 L62.2321096,14.2887131 L61.5725929,14.9305933 Z M60.4973757,9.98732243 L61.0098289,9.48905038 C60.4974798,9.06687389 59.9165215,8.64953113 59.2669319,8.23735353 L58.7949336,8.69686643 C59.4328028,9.1186929 60.0002912,9.54870549 60.4973757,9.98732243 Z M61.8592613,10.0579074 L60.6277912,10.0579074 L60.9763497,10.9163861 L61.8592613,10.0579074 Z M58.9952808,10.0579074 C59.3798785,10.3442959 59.7289802,10.633152 60.0426004,10.9243286 L60.3827995,10.0579074 L58.9952808,10.0579074 Z M56.9409421,10.0579074 L56.4016843,10.0579074 L56.9001236,10.5973823 C56.9129831,10.4350094 56.9265888,10.2551887 56.9409421,10.0579074 Z M57.0756215,8.04533392 C57.0851768,7.89364258 57.0949333,7.73726055 57.1048913,7.57618608 L56.6058441,8.04533392 L57.0756215,8.04533392 Z M63.1898596,8.04533392 L63.7106035,8.04533392 L63.2110164,7.52501994 L63.1898596,8.04533392 Z M63.1080253,10.0579074 L63.0885205,10.5375934 L63.5881077,10.0579074 L63.1080253,10.0579074 Z M50.2290037,1.16576622 C51.4405588,1.97945285 52.4944823,2.84347207 53.3903043,3.75835794 L53.7381378,4.11359358 L51.6250428,6.20626116 L51.274094,5.81860232 C50.5947062,5.06814907 49.5944132,4.22841559 48.2751538,3.30462341 L47.7732476,2.95317087 L49.8969674,0.942768932 L50.2290037,1.16576622 Z M49.9075138,6.08240573 C51.1472694,6.93770678 52.2021652,7.83019722 53.0717248,8.76079866 L53.4033215,9.11567293 L51.319849,11.1790044 L50.9688008,10.7934238 C50.2473948,10.0010536 49.2399212,9.14772817 47.9473397,8.23715147 L47.451743,7.88802164 L49.5714443,5.85055309 L49.9075138,6.08240573 Z M53.4635552,13.3127424 C52.6261989,15.6781771 51.6785827,17.9019087 50.6205573,19.9838958 L50.4065068,20.4051053 L47.6816906,19.2091901 L47.9376717,18.7323564 C49.0700131,16.6230657 50.0335365,14.4877728 50.8284172,12.3263178 L51.0031348,11.8512223 L53.6263688,12.8528127 L53.4635552,13.3127424 Z" id="海"></path>
                    <path d="M89.1431373,15.6887117 L89.5614379,15.6887117 L89.5614379,17.9754847 L91.0882353,17.9754847 L91.0882353,20.5 L71.2647059,20.5 L71.2647059,17.9754847 L72.8333333,17.9754847 L72.8333333,15.6887117 L73.251634,15.6887117 L73.251634,9.25186925 L89.1431373,9.25186925 L89.1431373,15.6887117 Z M82.6385621,13.5713293 L82.1385621,13.5713293 L82.6385621,14.0713293 L82.6385621,13.5713293 Z M82.6385621,13.5549858 L82.6385621,13.0549858 L82.1385621,13.5549858 L82.6385621,13.5549858 Z M86.2607843,13.5549858 L86.7607843,13.5549858 L86.2607843,13.0549858 L86.2607843,13.5549858 Z M86.2607843,13.5713293 L86.2607843,14.0713293 L86.7607843,13.5713293 L86.2607843,13.5713293 Z M76.1339869,13.5713293 L75.6339869,13.5713293 L76.1339869,14.0713293 L76.1339869,13.5713293 Z M76.1339869,13.5549858 L76.1339869,13.0549858 L75.6339869,13.5549858 L76.1339869,13.5549858 Z M79.672549,13.5549858 L80.172549,13.5549858 L79.672549,13.0549858 L79.672549,13.5549858 Z M79.672549,13.5713293 L79.672549,14.0713293 L80.172549,13.5713293 L79.672549,13.5713293 Z M76.1339869,11.4376034 L76.1339869,10.9376034 L75.6339869,11.4376034 L76.1339869,11.4376034 Z M79.672549,11.4376034 L80.172549,11.4376034 L79.672549,10.9376034 L79.672549,11.4376034 Z M79.672549,11.4539469 L79.672549,11.9539469 L80.172549,11.4539469 L79.672549,11.4539469 Z M76.1339869,11.4539469 L75.6339869,11.4539469 L76.1339869,11.9539469 L76.1339869,11.4539469 Z M86.2607843,11.4376034 L86.7607843,11.4376034 L86.2607843,10.9376034 L86.2607843,11.4376034 Z M86.2607843,11.4539469 L86.2607843,11.9539469 L86.7607843,11.4539469 L86.2607843,11.4539469 Z M82.6385621,11.4539469 L82.1385621,11.4539469 L82.6385621,11.9539469 L82.6385621,11.4539469 Z M82.6385621,11.4376034 L82.6385621,10.9376034 L82.1385621,11.4376034 L82.6385621,11.4376034 Z M73.7117647,0.676470588 L88.7039216,0.676470588 L88.7039216,7.05462185 L73.7117647,7.05462185 L73.7117647,0.676470588 Z M86.2876515,4.92423741 L86.3006536,4.91123536 L86.2746495,4.91123536 L85.8006536,4.43723946 L85.8006536,4.91123536 L76.6150327,4.91123536 L76.6150327,4.43723946 L76.1410368,4.91123536 L76.1150327,4.91123536 L76.1280347,4.92423741 L76.1150327,4.93723946 L76.1410368,4.93723946 L76.6150327,5.41123536 L76.6150327,4.93723946 L85.8006536,4.93723946 L85.8006536,5.41123536 L86.2746495,4.93723946 L86.3006536,4.93723946 L86.2876515,4.92423741 Z M76.1622106,2.8410309 L76.6150327,3.29385297 L76.6150327,2.8410309 L85.8006536,2.8410309 L85.8006536,3.29385297 L86.2534757,2.8410309 L86.3006536,2.8410309 L86.2770646,2.81744194 L86.3006536,2.79385297 L86.2534757,2.79385297 L85.8006536,2.3410309 L85.8006536,2.79385297 L76.6150327,2.79385297 L76.6150327,2.3410309 L76.1622106,2.79385297 L76.1150327,2.79385297 L76.1386216,2.81744194 L76.1150327,2.8410309 L76.1622106,2.8410309 Z M71.2647059,6.94392245 L91.0882353,6.94392245 L91.0882353,9.38374247 L71.2647059,9.38374247 L71.2647059,6.94392245 Z" id="量"></path>
                    <path d="M108.369141,6.48895869 L108.257099,6.91183419 C108.590471,8.36743327 108.980254,9.69236229 109.426017,10.8865207 C109.758149,9.57718726 109.965071,8.11131837 110.045805,6.48895869 L108.369141,6.48895869 Z M108.065485,14.3616259 C107.570665,13.3457823 107.12417,12.2394163 106.725751,11.0425263 C106.556048,11.3861364 106.392196,11.689395 106.233922,11.9525841 L105.86507,12.5659356 L104.003067,10.2546011 L104.148748,9.96659039 C105.247908,7.79355201 106.000144,4.84482663 106.397729,1.12335516 L106.454415,0.592757434 L109.329603,1.09061495 L109.266921,1.56663974 C109.159133,2.38521298 109.058279,3.0764253 108.964144,3.64112571 L113.992214,3.64112571 L113.992214,6.48895869 L112.820771,6.48895869 C112.665107,9.53321383 112.103503,12.1629876 111.132214,14.3771322 C112.085231,15.8740861 113.172914,17.0258748 114.394306,17.8372114 L114.816214,18.1174728 L113.129694,20.5864713 L112.712934,20.2818128 C111.564156,19.442037 110.538239,18.3740723 109.635103,17.0801019 C108.704317,18.3865939 107.605399,19.4958381 106.339399,20.4059771 L105.902582,20.7200087 L104.362123,18.2083129 L104.759329,17.9406047 C106.129126,17.0173932 107.229992,15.8260312 108.065485,14.3616259 Z M101.255924,11.2558221 L105.135269,11.2558221 L105.135269,13.3802906 L105.114436,13.5231162 C104.794239,14.5973466 104.271961,15.5643385 103.55006,16.4206703 C104.255592,16.7489757 104.842654,17.0363582 105.311927,17.2832475 L105.802882,17.5415444 L104.205108,19.9379524 L103.798456,19.7009986 C103.102565,19.2955065 102.256418,18.8540861 101.260685,18.3773515 C99.9464008,19.1923953 98.3098309,19.8593371 96.3509883,20.3815944 L95.9769488,20.481319 L94.5337961,17.9236674 L95.1762224,17.7677943 C96.1862067,17.5227401 97.0980318,17.2411792 97.9115469,16.9236403 C97.461738,16.740232 96.9448858,16.5330868 96.3611346,16.3022716 L95.8132437,16.0856355 L96.1161049,15.5802736 C96.4537014,15.0169515 96.7583192,14.4840964 97.0299422,13.9818199 L95.2581489,13.9818199 L95.2581489,11.2558221 L98.2699148,11.2558221 L98.6876352,10.0786347 L101.572297,10.3942143 L101.255924,11.2558221 Z M100.815871,15.2657516 C101.286338,14.8727031 101.678884,14.4449052 101.994808,13.9818199 L100.099953,13.9818199 C99.9533504,14.2639721 99.7978606,14.5442225 99.633492,14.8225695 C100.060228,14.9772638 100.454332,15.1249791 100.815871,15.2657516 Z M98.0408549,1.34207043 C98.4842723,2.06728745 98.905219,2.89379369 99.3042915,3.82175641 L99.4965624,4.2688436 L97.0878649,5.38270556 L96.8894792,4.89963368 C96.4844796,3.91345399 96.0556963,3.08303058 95.6048021,2.40879469 L95.239642,1.86275959 L97.8338161,1.00345469 L98.0408549,1.34207043 Z M105.310287,2.44382151 C104.878322,3.36944073 104.348897,4.24584178 103.722378,5.07259465 L103.465105,5.41209141 L101.177225,4.1949565 L101.502443,3.73191426 C102.035773,2.97256453 102.497704,2.16059038 102.888368,1.29556737 L103.099552,0.827954159 L105.518917,1.99676575 L105.310287,2.44382151 Z M99.1318013,4.45335998 L99.1318013,0.717082302 L101.88705,0.717082302 L101.88705,4.45335998 L105.397547,4.45335998 L105.397547,7.13874611 L103.474085,7.13874611 C103.932737,7.36282894 104.404809,7.60405872 104.890334,7.86243466 L105.376266,8.12102686 L103.759985,10.56114 L103.332436,10.2156753 C102.78109,9.77017996 102.298957,9.39636862 101.88705,9.09475873 L101.88705,10.9156355 L99.1318013,10.9156355 L99.1318013,8.80950095 C98.4716819,9.69735542 97.6237187,10.5046046 96.5903794,11.2308306 L96.152739,11.5384023 L94.6620283,9.08036673 L95.1049122,8.82503389 C96.0302706,8.29154346 96.7702691,7.72860411 97.3269669,7.13874611 L95.3186747,7.13874611 L95.3186747,4.45335998 L99.1318013,4.45335998 Z" id="数"></path>
                    <path d="M122.168548,13.6152541 C121.752572,13.7606943 121.247854,13.9347054 120.654187,14.1373645 L120.142602,14.3120033 L119.388614,11.3717116 L119.886853,11.2559608 C120.593714,11.0917429 121.354366,10.875376 122.168548,10.606772 L122.168548,7.2356454 L119.869491,7.2356454 L119.869491,4.37577441 L122.168548,4.37577441 L122.168548,0.676470588 L125.057059,0.676470588 L125.057059,4.37577441 L126.863461,4.37577441 L126.863461,7.2356454 L125.057059,7.2356454 L125.057059,9.4436181 C125.43365,9.2620916 125.769398,9.09161026 126.064135,8.93230499 L126.80188,8.53355447 L126.80188,11.5874569 L125.057059,12.4254207 L125.057059,17.7722424 C125.057059,19.3921392 124.195468,20.2956186 122.627494,20.2956186 L120.481967,20.2956186 L119.823922,17.3472762 L120.550352,17.4623427 C121.128627,17.5539414 121.60322,17.5992527 121.97062,17.5992527 C122.140674,17.5992527 122.168548,17.5666022 122.168548,17.281727 L122.168548,13.6152541 Z M128.922028,14.980499 C128.502935,16.8801292 127.895156,18.627978 127.098137,20.2234464 L126.806614,20.8070156 L124.507733,18.7655669 L124.688741,18.419399 C126.030194,15.8539363 126.712172,12.5387395 126.725608,8.47288753 L126.725608,1.31005301 L138.830874,1.31005301 L138.830874,7.60353197 L135.094907,7.60353197 L135.094907,8.64734623 L139.323529,8.64734623 L139.323529,11.4254646 L135.094907,11.4254646 L135.094907,12.5305933 L138.399801,12.5305933 L138.399801,20.4795619 L135.593399,20.4795619 L135.593399,19.6007217 L131.72843,19.6007217 L131.72843,20.4795619 L128.922028,20.4795619 L128.922028,14.980499 Z M132.206396,7.60353197 L129.613867,7.60353197 L129.61334,8.64734623 L132.206396,8.64734623 L132.206396,7.60353197 Z M131.72843,16.8839177 L135.593399,16.8839177 L135.593399,15.2473973 L131.72843,15.2473973 L131.72843,16.8839177 Z M135.942363,4.08817142 L129.614119,4.08817142 L129.614119,4.86628984 L135.942363,4.86628984 L135.942363,4.08817142 Z" id="据"></path>
                    <path d="M149.178431,8.53517899 C147.725918,8.86947812 145.953004,9.15548737 143.857902,9.39416387 L143.376858,9.44896498 L142.956064,6.57991823 L143.496832,6.54460725 C145.769454,6.39620996 147.664106,6.16308614 149.178431,5.84657263 L149.178431,5.13967405 L143.761438,5.13967405 L143.761438,2.34695696 L149.178431,2.34695696 L149.178431,0.696842373 L152.081699,0.696842373 L152.081699,9.11217214 L149.178431,9.11217214 L149.178431,8.53517899 Z M156.160131,5.41237099 L156.160131,6.39164757 C156.160131,6.43830963 156.117163,6.4009422 156.245752,6.4009422 L159.424837,6.4009422 C159.666755,6.4009422 159.820983,6.3574568 159.899166,6.29303392 C159.949118,6.2513294 160.060367,5.82359741 160.118645,5.10836251 L160.169623,4.48272005 L162.898563,5.34738948 L162.849402,5.75838942 C162.665864,7.29283885 162.354927,8.23170912 161.792036,8.64223139 C161.306232,8.96332164 160.622564,9.11217214 159.738562,9.11217214 L155.681046,9.11217214 C154.114556,9.11217214 153.235948,8.28399074 153.235948,6.77871148 L153.235948,0.676470588 L156.160131,0.676470588 L156.160131,2.66555267 C157.648406,2.3067668 158.995566,1.88635647 160.201493,1.40476904 L160.5558,1.26327611 L162.295101,3.56472713 L161.67445,3.80273079 C159.989359,4.4489209 158.151256,4.98534027 156.160131,5.41237099 Z M148.860784,14.3680927 L148.860784,14.7126305 L157.167974,14.7126305 L157.167974,14.3680927 L148.860784,14.3680927 Z M157.167974,11.7790935 L157.167974,11.4752992 L148.860784,11.4752992 L148.860784,11.7790935 L157.167974,11.7790935 Z M148.860784,17.281258 L148.860784,20.5 L145.915686,20.5 L145.915686,8.86592819 L160.113072,8.86592819 L160.113072,18.0850522 C160.113072,19.6334222 159.197592,20.4796282 157.563399,20.4796282 L154.697648,20.4796282 L153.90422,17.7103597 L154.585361,17.7278189 L156.956863,17.7887701 C157.167143,17.7887701 157.167974,17.7880323 157.167974,17.6572447 L157.167974,17.281258 L148.860784,17.281258 Z" id="背"></path>
                    <path d="M171.753452,9.12787863 C171.604521,13.720074 170.665447,17.4197013 168.925241,20.2226739 L168.583625,20.7729201 L166.432295,18.5060978 L166.63225,18.1790898 C167.994919,15.9505701 168.730193,12.8525342 168.824237,8.89473347 L168.824237,2.0145539 L169.320414,2.01075938 C174.658884,1.96993325 179.453913,1.52803115 183.705144,0.685998853 L184.064558,0.614810648 L185.539662,3.30510749 L184.863196,3.43310125 C180.918417,4.17949079 176.550881,4.62250749 171.760136,4.76274663 L171.760136,6.2393675 L186.382353,6.2393675 L186.382353,9.12787863 L171.753452,9.12787863 Z M181.881259,19.6789082 L175.281825,19.6789082 L175.281825,20.5 L172.325331,20.5 L172.325331,10.5500994 L184.837753,10.5500994 L184.837753,20.5 L181.881259,20.5 L181.881259,19.6789082 Z M175.281825,16.7698698 L181.881259,16.7698698 L181.881259,13.4180833 L175.281825,13.4180833 L175.281825,16.7698698 Z" id="后"></path>
                    <path d="M195.22155,17.2045966 L192.964266,17.2045966 L192.964266,18.8709418 L190.088235,18.8709418 L190.088235,2.95612343 L192.183561,2.95612343 C192.512941,1.91451303 192.743633,0.913228618 192.876038,-0.0476785374 L192.944206,-0.542396875 L195.913149,-0.136978872 L195.822149,0.375437545 C195.666274,1.25315612 195.440415,2.11346203 195.144655,2.95612343 L198.097581,2.95612343 L198.097581,18.2743491 L195.22155,18.2743491 L195.22155,17.2045966 Z M192.964266,14.3942462 L195.22155,14.3942462 L195.22155,11.3415301 L192.964266,11.3415301 L192.964266,14.3942462 Z M192.964266,8.59289617 L195.22155,8.59289617 L195.22155,5.80761813 L192.964266,5.80761813 L192.964266,8.59289617 Z M201.696422,8.07809001 C203.12879,9.84048178 204.189067,11.3370468 204.878626,12.572822 L205.097885,12.9657606 L202.736534,14.630923 L202.462801,14.1567683 C201.748016,12.9186318 200.703053,11.428981 199.3288,9.69103284 L198.981634,9.25199045 L201.41849,7.736121 L201.696422,8.07809001 Z M205.814454,5.86933462 L201.457493,5.86933462 C200.874519,7.05850871 200.229786,8.12354469 199.52284,9.06414764 L199.125785,9.592435 L197.331147,7.23605818 L197.535812,6.937878 C198.867928,4.99709881 199.776493,2.65715253 200.259354,-0.0866591324 L200.341992,-0.55624438 L203.277339,-0.182311023 L203.181357,0.337632657 C203.022979,1.19558376 202.810131,2.07525455 202.54291,2.9766956 L208.735294,2.9766956 L208.735294,3.4766956 C208.735294,10.6059068 208.632035,14.9886018 208.421285,16.6706628 C208.17849,18.4150929 206.973105,19.3235294 204.97801,19.3235294 C204.648029,19.3235294 203.914343,19.2889947 202.762741,19.2197676 L202.401974,19.1980806 L201.660828,16.4005416 L202.341238,16.4314039 C203.542754,16.4859029 204.321769,16.513179 204.668774,16.513179 C205.239236,16.513179 205.507144,16.2690841 205.594907,15.6568415 C205.698331,14.8054023 205.772693,11.5224093 205.814454,5.86933462 Z" id="的"></path>
                    <path d="M216.26722,10.4203196 C215.919421,10.8303062 215.551914,11.2400352 215.164708,11.6495258 L214.590039,12.2572685 L213.553944,9.1322897 L213.738593,8.91763301 C215.687395,6.65212662 217.121256,4.02422008 218.04141,1.02961185 L218.207351,0.489564534 L221.037557,1.75335338 L220.895844,2.18245137 C220.472659,3.46382836 219.946838,4.71263041 219.318502,5.92868817 L219.318502,20.3180325 L216.26722,20.3180325 L216.26722,10.4203196 Z M227.741579,7.8945157 L230.707391,7.8945157 L230.707391,20.237158 L227.741579,20.237158 L227.741579,7.8945157 Z M222.356963,7.95517154 L225.322775,7.95517154 L225.322775,8.45517154 L225.322745,11.4530113 C225.278578,15.4790416 224.182082,18.4646107 222.012174,20.3752598 L221.692062,20.6571249 L219.391404,18.7561231 L219.836623,18.369094 C221.468418,16.950572 222.315944,14.6529036 222.356963,11.4475264 L222.356963,7.95517154 Z M226.47137,4.20343827 C224.878886,6.88550866 222.902242,8.99065888 220.542556,10.5130283 L220.135656,10.7755429 L218.436165,8.31786437 L218.865028,8.03692385 C221.570711,6.26447626 223.648484,3.96419389 225.104527,1.12995817 L225.244016,0.858438112 L227.717734,0.858438112 L227.855764,1.1354418 C229.108034,3.64855019 231.280241,5.88069916 234.383557,7.82955662 L234.82615,8.10750181 L233.124401,10.5684474 L232.719334,10.3141693 C230.015304,8.61673184 227.930587,6.57937983 226.47137,4.20343827 Z" id="价"></path>
                    <path d="M252.370959,2.52032546 L257.53258,2.52032546 L257.53258,5.26286963 L252.370959,5.26286963 L252.370959,5.60017096 L256.262658,5.60017096 L256.262658,17.1495916 L258.147059,17.1495916 L258.147059,19.8921358 L243.567081,19.8921358 L243.567081,17.1495916 L245.59486,17.1495916 L245.59486,5.60017096 L249.445593,5.60017096 L249.445593,5.26286963 L244.447833,5.26286963 L244.447833,2.52032546 L249.445593,2.52032546 L249.445593,0.798043437 L252.370959,0.798043437 L252.370959,2.52032546 Z M248.458779,17.1495916 L253.419222,17.1495916 L253.419222,16.8122903 L248.458779,16.8122903 L248.458779,17.1495916 Z M248.458779,14.2926296 L253.419222,14.2926296 L253.419222,13.9958526 L248.458779,13.9958526 L248.458779,14.2926296 Z M248.458779,11.476192 L253.419222,11.476192 L253.419222,11.2199392 L248.458779,11.2199392 L248.458779,11.476192 Z M248.458779,8.7002786 L253.419222,8.7002786 L253.419222,8.34271513 L248.458779,8.34271513 L248.458779,8.7002786 Z M240.924822,10.3608101 C240.573243,10.8091945 240.209969,11.2479473 239.835,11.6770646 L239.244219,12.3531605 L238.26703,9.17250408 L238.436099,8.96526159 C240.276832,6.70890539 241.631631,4.06808656 242.500894,1.0385693 L242.661496,0.478846697 L245.349112,1.71544448 L245.22108,2.1334031 C244.81664,3.45368601 244.346127,4.67233519 243.809224,5.78928423 L243.809224,20.5 L240.924822,20.5 L240.924822,10.3608101 Z" id="值"></path>
                </g>
                <text id="风险报告" font-family="PingFang-SC-Bold, PingFang SC" font-size="18" font-weight="bold" line-spacing="18" letter-spacing="2" fill="#4A4A4A">
                    <tspan x="26" y="44">风险报</tspan>
                    <tspan x="86" y="44">告</tspan>
                </text>
            </g>
        </g>
    </g>
</svg>