<?xml version="1.0" encoding="UTF-8"?>
<svg width="22px" height="22px" viewBox="0 0 22 22" version="1.1" xmlns="http://www.w3.org/2000/svg" xmlns:xlink="http://www.w3.org/1999/xlink">
    <!-- Generator: Sketch 52.5 (67469) - http://www.bohemiancoding.com/sketch -->
    <title>帮助</title>
    <desc>Created with Sketch.</desc>
    <g id="智惠平台-风险查询" stroke="none" stroke-width="1" fill="none" fill-rule="evenodd">
        <g id="查询首页" transform="translate(-333.000000, -55.000000)" fill="#FFFFFF" fill-rule="nonzero">
            <g id="帮助" transform="translate(333.000000, 55.000000)">
                <path d="M11,22 C17.0751322,22 22,17.0751322 22,11 C22,4.92486775 17.0751322,0 11,0 C4.92486775,0 0,4.92486775 0,11 C0,17.0751322 4.92486775,22 11,22 Z M11,20 C6.02943725,20 2,15.9705627 2,11 C2,6.02943725 6.02943725,2 11,2 C15.9705627,2 20,6.02943725 20,11 C20,15.9705627 15.9705627,20 11,20 Z M11.393,6.536 C10.4309952,6.536 9.67700273,6.81333056 9.131,7.368 C8.58499727,7.91400273 8.312,8.65932861 8.312,9.604 L9.677,9.604 C9.677,9.03199714 9.79399883,8.59000156 10.028,8.278 C10.2880013,7.90533147 10.7126637,7.719 11.302,7.719 C11.7786691,7.719 12.1469987,7.8489987 12.407,8.109 C12.6583346,8.37766801 12.784,8.73299779 12.784,9.175 C12.784,9.49566827 12.6626679,9.81199844 12.42,10.124 L12.199,10.371 C11.3843293,11.0990036 10.8946675,11.6363316 10.73,11.983 C10.5566658,12.3036683 10.47,12.7153308 10.47,13.218 L10.47,13.439 L11.861,13.439 L11.861,13.218 C11.861,12.8973317 11.9303326,12.6113346 12.069,12.36 C12.1903339,12.1086654 12.3723321,11.8833343 12.615,11.684 C13.2303364,11.146664 13.5943328,10.8086674 13.707,10.67 C14.036335,10.2453312 14.201,9.71666983 14.201,9.084 C14.201,8.29532939 13.9410026,7.67566892 13.421,7.225 C12.9096641,6.76566437 12.2336709,6.536 11.393,6.536 Z M11.159,14.141 C10.8816653,14.141 10.6563342,14.2276658 10.483,14.401 C10.3009991,14.5656675 10.21,14.7866653 10.21,15.064 C10.21,15.3240013 10.3009991,15.5449991 10.483,15.727 C10.6650009,15.9090009 10.890332,16 11.159,16 C11.4190013,16 11.6443324,15.9133342 11.835,15.74 C12.0256676,15.5493324 12.121,15.3240013 12.121,15.064 C12.121,14.7866653 12.0300009,14.5656675 11.848,14.401 C11.6746658,14.2276658 11.4450014,14.141 11.159,14.141 Z" id="Combined-Shape"></path>
            </g>
        </g>
    </g>
</svg>