<?xml version="1.0" encoding="UTF-8"?>
<svg width="24px" height="24px" viewBox="0 0 24 24" version="1.1" xmlns="http://www.w3.org/2000/svg" xmlns:xlink="http://www.w3.org/1999/xlink">
    <!-- Generator: Sketch 52.5 (67469) - http://www.bohemiancoding.com/sketch -->
    <title>企业logo 1</title>
    <desc>Created with Sketch.</desc>
    <g id="智惠平台-风险查询" stroke="none" stroke-width="1" fill="none" fill-rule="evenodd">
        <g id="查询企业-乐视" transform="translate(-16.000000, -295.000000)" fill="#D7D7DA" fill-rule="nonzero">
            <g id="Group-6" transform="translate(0.000000, 167.000000)">
                <g id="Group-4" transform="translate(0.000000, 112.000000)">
                    <g id="企业logo" transform="translate(16.000000, 16.000000)">
                        <path d="M5,24 L1,24 C0.44771525,24 6.76353751e-17,23.5522847 0,23 C-6.76353751e-17,22.4477153 0.44771525,22 1,22 L3,22 L3,12 L3,11 L8,8.5 L8,5 L8,4 L18,0 L19.9922779,1.1384445 C20.6154279,1.49453021 21,2.15721709 21,2.87493079 L21,22 L23,22 C23.5522847,22 24,22.4477153 24,23 C24,23.5522847 23.5522847,24 23,24 L19,24 C18.4477153,24 18,23.5522847 18,23 L18,2 L10,5.2 L10,7.5 L13,6 L15.1094004,7.40626693 C15.6657977,7.77719849 16,8.40166114 16,9.07036752 L16,23 C16,23.5522847 15.5522847,24 15,24 L14,24 L5,24 Z M5,21 L13,21 L13,8 L5,12 L5,21 Z M8.10573121,16.5426754 L9.89426879,16.2073246 C10.4010869,16.1122962 10.8889799,16.4461177 10.9840083,16.9529359 C10.9946465,17.0096729 11,17.0672743 11,17.125 C11,17.7773073 10.5354035,18.3371119 9.89426879,18.4573246 L8.10573121,18.7926754 C7.59891308,18.8877038 7.11102007,18.5538823 7.01599168,18.0470641 C7.00535348,17.9903271 7,17.9327257 7,17.875 C7,17.2226927 7.46459653,16.6628881 8.10573121,16.5426754 Z M8.10573121,12.5426754 L9.89426879,12.2073246 C10.4010869,12.1122962 10.8889799,12.4461177 10.9840083,12.9529359 C10.9946465,13.0096729 11,13.0672743 11,13.125 C11,13.7773073 10.5354035,14.3371119 9.89426879,14.4573246 L8.10573121,14.7926754 C7.59891308,14.8877038 7.11102007,14.5538823 7.01599168,14.0470641 C7.00535348,13.9903271 7,13.9327257 7,13.875 C7,13.2226927 7.46459653,12.6628881 8.10573121,12.5426754 Z" id="Combined-Shape"></path>
                    </g>
                </g>
            </g>
        </g>
    </g>
</svg>