<?xml version="1.0" encoding="UTF-8"?>
<svg width="160px" height="36px" viewBox="0 0 160 36" version="1.1" xmlns="http://www.w3.org/2000/svg" xmlns:xlink="http://www.w3.org/1999/xlink">
    <!-- Generator: Sketch 52.5 (67469) - http://www.bohemiancoding.com/sketch -->
    <title>Group 15</title>
    <desc>Created with Sketch.</desc>
    <defs>
        <linearGradient x1="50.9867233%" y1="0.986723266%" x2="50.9867233%" y2="99.0132767%" id="linearGradient-1">
            <stop stop-color="#FFFFFF" offset="0%"></stop>
            <stop stop-color="#D5E0FF" offset="100%"></stop>
        </linearGradient>
        <linearGradient x1="3.76399928%" y1="50%" x2="100%" y2="50%" id="linearGradient-2">
            <stop stop-color="#CF0000" offset="0%"></stop>
            <stop stop-color="#FF2727" offset="100%"></stop>
        </linearGradient>
        <linearGradient x1="33.5401477%" y1="100%" x2="33.5401477%" y2="-2.77555756e-15%" id="linearGradient-3">
            <stop stop-color="#374BBD" offset="0%"></stop>
            <stop stop-color="#587AFF" offset="100%"></stop>
        </linearGradient>
        <linearGradient x1="100%" y1="50%" x2="3.76399928%" y2="50%" id="linearGradient-4">
            <stop stop-color="#CF0000" offset="0%"></stop>
            <stop stop-color="#FF2727" offset="100%"></stop>
        </linearGradient>
        <linearGradient x1="64.4601518%" y1="3.01045492%" x2="64.4601518%" y2="100%" id="linearGradient-5">
            <stop stop-color="#374BBD" offset="0%"></stop>
            <stop stop-color="#587AFF" offset="100%"></stop>
        </linearGradient>
        <linearGradient x1="50.9867233%" y1="0.986723266%" x2="50.9867233%" y2="99.0132767%" id="linearGradient-6">
            <stop stop-color="#FFFFFF" offset="0%"></stop>
            <stop stop-color="#D5E0FF" offset="100%"></stop>
        </linearGradient>
    </defs>
    <g id="智惠平台-风险查询" stroke="none" stroke-width="1" fill="none" fill-rule="evenodd">
        <g id="查询首页/企业" transform="translate(-19.000000, -53.000000)">
            <g id="Group-15" transform="translate(19.000000, 53.000000)">
                <g id="Group-8">
                    <circle id="Oval" fill="url(#linearGradient-1)" fill-rule="nonzero" cx="18" cy="18" r="18"></circle>
                    <g id="Group-11" transform="translate(1.000000, 1.000000)" fill-rule="nonzero">
                        <path d="M19.0714905,3.73022517 C21.9170775,2.84896305 24.229914,2.68222133 26.01,3.23 C27.413066,3.75846524 28.6508909,4.59893162 29.7234747,5.75139914 C23.3525533,7.0064123 17.8334535,10.6342394 14.1248802,15.6761757 C12.4358161,13.9599971 10.9879713,12.0057072 9.83628938,9.86824955 C12.4047651,7.19695224 15.5499167,5.0841929 19.0714905,3.73022517 Z M7.33530311,3.01264365 C10.0794725,1.1129419 13.4097655,1.98951966e-13 17,1.98951966e-13 C19.2372591,1.98951966e-13 21.3735784,0.432174802 23.3300282,1.2175947 C17.7855541,1.90953037 12.793985,4.38147866 8.94526806,8.04349247 C8.24275415,6.44565235 7.6994079,4.76201149 7.33530311,3.01264365 Z" id="Combined-Shape" fill="url(#linearGradient-2)"></path>
                        <path d="M5.75147742,4.27692261 C7.00656314,10.6476762 10.6343443,16.1666236 15.6761757,19.8751198 C13.9599971,21.5641839 12.0057072,23.0120287 9.86824955,24.1637106 C7.06916535,21.4723667 4.88333484,18.1478543 3.54114697,14.4205625 C2.61759165,11.8064827 2.45720933,9.66296192 3.06,7.99 C3.42731704,6.86414929 4.32447618,5.62645682 5.75147742,4.27692261 Z M8.04349247,25.0547319 C6.44565235,25.7572459 4.76201149,26.3005921 3.01264365,26.6646969 C1.1129419,23.9205275 -5.68434189e-14,20.5902345 -5.68434189e-14,17 C-5.68434189e-14,14.7627409 0.432174802,12.6264216 1.2175947,10.6699718 C1.90953037,16.2144459 4.38147866,21.206015 8.04349247,25.0547319 Z" id="Combined-Shape" fill="url(#linearGradient-3)"></path>
                        <path d="M4.27712876,28.248482 C10.6477952,26.9933586 16.1666636,23.3656014 19.8751198,18.3238243 C21.5641839,20.0400029 23.0120287,21.9942928 24.1637106,24.1317504 C21.5631963,26.8363689 18.3715298,28.9684283 14.7965523,30.3200875 C12.0371937,31.3223898 9.76834296,31.5290273 7.99,30.94 C6.73765341,30.4266027 5.50002966,29.52943 4.27712876,28.248482 Z M10.6699718,32.7824053 C16.2144459,32.0904696 21.206015,29.6185213 25.0547319,25.9565075 C25.7572459,27.5543476 26.3005921,29.2379885 26.6646969,30.9873564 C23.9205275,32.8870581 20.5902345,34 17,34 C14.7627409,34 12.6264216,33.5678252 10.6699718,32.7824053 Z" id="Combined-Shape" fill="url(#linearGradient-4)"></path>
                        <path d="M28.2485251,29.7230901 C26.9934417,23.3523312 23.3656591,17.8333789 18.3238243,14.1248802 C20.0400029,12.4358161 21.9942928,10.9879713 24.1317504,9.83628938 C26.9573774,12.5531544 29.1580649,15.9152529 30.4968077,19.6855797 C31.390306,22.2515964 31.5380368,24.3597365 30.94,26.01 C30.4692884,27.2339491 29.5721301,28.4716458 28.2485251,29.7230901 Z M25.9565075,8.94526806 C27.5543476,8.24275415 29.2379885,7.6994079 30.9873564,7.33530311 C32.8870581,10.0794725 34,13.4097655 34,17 C34,19.2372591 33.5678252,21.3735784 32.7824053,23.3300282 C32.0904696,17.7855541 29.6185213,12.793985 25.9565075,8.94526806 Z" id="Combined-Shape" fill="url(#linearGradient-5)"></path>
                    </g>
                    <g id="Group" transform="translate(42.000000, 4.000000)" fill="url(#linearGradient-6)">
                        <path d="M9.7574859,0.267515924 L11.7275688,0.267515924 L11.7275688,3.0955414 L16.2996479,3.0955414 L16.2996479,5.02547771 L11.7275688,5.02547771 L11.7275688,7.98726115 L16.7828758,7.98726115 L16.7828758,9.93630573 L10.761113,9.93630573 C9.7574859,12.3821656 8.84678722,14.1974522 8.06618835,15.3821656 C9.99909984,15.1528662 11.9320113,14.8280255 13.8463371,14.4267516 C13.381695,13.433121 12.9170528,12.5350318 12.4338249,11.6942675 L14.3109793,11.044586 C15.3889492,12.955414 16.3368193,14.9808917 17.1545895,17.1592357 L15.3146064,18 C15.0729925,17.3503185 14.8313786,16.7388535 14.6083503,16.1656051 C11.8390829,16.7388535 8.84678722,17.1783439 5.6128776,17.5031847 L5.18540679,15.7643312 C5.37126367,15.7070064 5.50136348,15.6496815 5.59429192,15.5923567 C6.37489079,14.866242 7.41568929,12.9936306 8.67951603,9.93630573 L4.66500755,9.93630573 L4.66500755,7.98726115 L9.7574859,7.98726115 L9.7574859,5.02547771 L5.55712054,5.02547771 L5.55712054,3.0955414 L9.7574859,3.0955414 L9.7574859,0.267515924 Z M1.83998306,0.382165605 C3.02946705,1.33757962 4.03309417,2.27388535 4.86945011,3.21019108 L3.49410924,4.6433121 C2.78785311,3.74522293 1.76564031,2.78980892 0.446056498,1.75796178 L1.83998306,0.382165605 Z M1.37534087,4.85350318 C2.47189643,5.8089172 3.4011808,6.76433121 4.18177967,7.71974522 L2.78785311,9.13375796 C2.13735405,8.25477707 1.20806968,7.28025478 1.13686838e-13,6.22929936 L1.37534087,4.85350318 Z M3.04805274,10.2611465 L4.81369304,11.0063694 C4.01450849,13.3949045 3.12239549,15.6496815 2.15593974,17.7515924 L0.204442562,16.8726115 C1.30099812,14.7324841 2.24886818,12.5159236 3.04805274,10.2611465 Z M27.7408594,3.36305732 C27.4992455,3.74522293 27.2576315,4.12738854 27.0160176,4.47133758 L36.1787615,4.47133758 C36.1230044,6.11464968 36.0672474,7.56687898 36.030076,8.86624204 L37.4611739,8.86624204 L37.4611739,10.7006369 L35.9557332,10.7006369 C35.8999762,11.7707006 35.8442191,12.6878981 35.8070477,13.433121 L37.1638029,13.433121 L37.1638029,15.1528662 L35.6769479,15.1528662 C35.6397765,15.611465 35.5840195,15.9171975 35.5468481,16.0509554 C35.3609912,16.6815287 35.0078632,17.1401274 34.5060496,17.4267516 C33.9856504,17.7133758 33.2236372,17.866242 32.2200101,17.866242 C31.6996108,17.866242 31.0862831,17.8853503 30.4171984,17.8853503 L29.8410421,16.1082803 C30.6216409,16.1464968 31.3278971,16.1847134 31.9598104,16.1847134 C32.3872812,16.1847134 32.758995,16.1273885 33.0749517,16.0509554 C33.3909084,15.9363057 33.6325223,15.6878981 33.7997935,15.3248408 C33.7997935,15.2866242 33.8183792,15.2292994 33.8369649,15.1528662 L25.0459347,15.1528662 C25.3433057,13.6433121 25.6035053,12.1528662 25.7893622,10.7006369 L24.1538217,10.7006369 L24.1538217,8.86624204 L25.9938048,8.86624204 C26.1053189,7.71974522 26.1982473,6.57324841 26.2540044,5.46496815 C25.9938048,5.77070064 25.7150195,6.07643312 25.4548198,6.34394904 L24.2281645,4.81528662 C25.3804771,3.68789809 26.3841042,2.08280255 27.2390458,0.0191082803 L29.1719573,0.458598726 L28.7073151,1.52866242 L36.9036033,1.52866242 L36.9036033,3.36305732 L27.7408594,3.36305732 Z M27.647931,10.7006369 C27.5178311,11.6751592 27.3691456,12.5923567 27.2018745,13.433121 L31.0119404,13.433121 C30.4915411,12.8598726 29.785285,12.2675159 28.9303434,11.6369427 L29.8782134,10.7006369 L27.647931,10.7006369 Z M31.3650684,13.433121 L33.9856504,13.433121 C34.0228217,12.7070064 34.0599931,11.7898089 34.1157502,10.7006369 L30.5101268,10.7006369 C31.2535543,11.2356688 31.9040534,11.7898089 32.4244526,12.343949 L31.3650684,13.433121 Z M34.1900929,8.86624204 C34.2086786,8.02547771 34.24585,7.14649682 34.2830214,6.1910828 L30.4357841,6.1910828 C31.2907257,6.74522293 32.0341532,7.29936306 32.6474809,7.8343949 L31.6252681,8.86624204 L34.1900929,8.86624204 Z M30.2870986,6.1910828 L28.0196447,6.1910828 C27.9824733,7.12738854 27.9081306,8.02547771 27.8337878,8.86624204 L31.1606259,8.86624204 C30.6402266,8.36942675 29.9525562,7.87261146 29.1347859,7.33757962 L30.2870986,6.1910828 Z M21.9421249,0.382165605 C23.0386805,1.18471338 23.9679648,1.98726115 24.7113923,2.8089172 L23.3360515,4.22292994 C22.6855524,3.45859873 21.756268,2.63694268 20.566784,1.75796178 L21.9421249,0.382165605 Z M21.6447539,5.02547771 C22.7413095,5.84713376 23.6705938,6.66878981 24.432607,7.50955414 L23.0572662,8.92356688 C22.4067671,8.15923567 21.4774827,7.31847134 20.269413,6.40127389 L21.6447539,5.02547771 Z M23.0200948,10.7579618 L24.7113923,11.4458599 C23.9679648,13.6624204 23.1130232,15.7261146 22.1837388,17.6751592 L20.3809272,16.8535032 C21.3845543,14.866242 22.2766673,12.8216561 23.0200948,10.7579618 Z M46.430489,4.50955414 C47.3597734,5.7133758 48.2333007,6.85987261 49.0324852,7.96815287 C49.6643986,6.70700637 50.1847979,5.36942675 50.5750973,3.95541401 L52.4894231,4.29936306 C51.9504382,6.32484076 51.2255964,8.15923567 50.3334834,9.80254777 C51.4114532,11.3694268 52.3221519,12.8025478 53.0655794,14.1210191 L51.2999391,15.3821656 C50.6680257,14.1974522 49.9431839,12.9936306 49.1439994,11.7324841 C48.0474438,13.2611465 46.7650314,14.5796178 45.3153478,15.7070064 L44.0143496,13.9872611 C45.5569617,12.8025478 46.8579598,11.4267516 47.917344,9.85987261 C46.9880596,8.44585987 45.9658468,7.01273885 44.8507056,5.52229299 L46.430489,4.50955414 Z M42.5460803,0.821656051 L55.0356623,0.821656051 L55.0356623,8.7133758 C55.0356623,11.5414013 55.110005,13.3757962 55.2772762,14.1783439 C55.407376,14.9617834 55.5746472,15.3630573 55.7605041,15.3630573 C55.8906039,15.3630573 56.002118,14.6369427 56.1136322,13.2229299 L57.8421011,14.0828025 C57.6004871,15.5732484 57.3402875,16.5477707 57.0429165,17.0254777 C56.7083741,17.5031847 56.3552461,17.7515924 55.9649467,17.7515924 C54.9613195,17.7515924 54.2364777,17.1401274 53.7718355,15.9171975 C53.2886077,14.7324841 53.0469937,12.343949 53.0469937,8.7133758 L53.0469937,2.77070064 L44.4975775,2.77070064 L44.4975775,8.46496815 C44.4604061,12.2292994 43.6983929,15.3821656 42.2301236,17.9426752 L40.5945831,16.566879 C41.8398242,14.4267516 42.4903233,11.7133758 42.5460803,8.46496815 L42.5460803,0.821656051 Z M71.3834953,11.9808917 L67.3504011,11.9808917 L67.3504011,10.1273885 L77.3123296,10.1273885 L77.3123296,11.9808917 L73.3349925,11.9808917 L73.3349925,15.4585987 L78,15.4585987 L78,17.388535 L66.6069736,17.388535 L66.6069736,15.4585987 L71.3834953,15.4585987 L71.3834953,11.9808917 Z M63.2057928,17.7324841 L61.5702523,17.7324841 L61.1427815,15.8025478 C61.6260094,15.8789809 62.0906516,15.9171975 62.5367081,15.9171975 C62.9455932,15.9171975 63.1500357,15.6878981 63.1500357,15.2675159 L63.1500357,11.4076433 C62.4995367,11.656051 61.8490376,11.8853503 61.1985386,12.0955414 L60.7153107,10.0700637 C61.5330809,9.87898089 62.3508512,9.64968153 63.1500357,9.36305732 L63.1500357,5.59872611 L61.0870244,5.59872611 L61.0870244,3.66878981 L63.1500357,3.66878981 L63.1500357,0.248407643 L65.1201186,0.248407643 L65.1201186,3.66878981 L66.4582881,3.66878981 L66.4582881,5.59872611 L65.1201186,5.59872611 L65.1201186,8.56050955 C65.5847608,8.33121019 66.049403,8.08280255 66.5140452,7.8343949 L66.5140452,9.85987261 C66.0308173,10.089172 65.5661751,10.3184713 65.1201186,10.5477707 L65.1201186,15.7834395 C65.1201186,17.0828025 64.4696195,17.7324841 63.2057928,17.7324841 Z M72.5358079,0 C72.7960075,0.649681529 73.0747928,1.3566879 73.3349925,2.14012739 L77.6097006,2.14012739 L77.6097006,6.0955414 L75.8068889,6.0955414 L75.8068889,3.91719745 L68.8744275,3.91719745 L68.8744275,6.0955414 L67.0530301,6.0955414 L67.0530301,2.14012739 L71.3834953,2.14012739 C71.1418813,1.49044586 70.863096,0.898089172 70.5471393,0.343949045 L72.5358079,0 Z M70.1568399,4.75796178 L71.8481375,5.44585987 C71.0489529,7.31847134 69.9895687,8.75159236 68.6699849,9.74522293 L67.2760584,8.48407643 C68.5770565,7.52866242 69.5249265,6.2866242 70.1568399,4.75796178 Z M74.3200339,4.71974522 C75.4351751,5.92356688 76.4016309,7.2611465 77.2379868,8.7133758 L75.5281036,9.61146497 C74.6731619,8.04458599 73.7438776,6.66878981 72.7216648,5.44585987 L74.3200339,4.71974522 Z M4.38381971,21.5640535 L4.38381971,22.9751434 L2.79903183,22.9751434 L2.79903183,27.8221797 L1.09452976,27.8221797 L1.09452976,22.9751434 L0,22.9751434 L0,21.5640535 L1.10023043,21.5640535 L1.10023043,20.9904398 C1.10023043,20.3709338 1.271249,19.884323 1.61329126,19.5305927 C1.95533352,19.1768625 2.45128735,19 3.10116765,19 L4.37241835,19 L4.37241835,20.3479924 L3.4432082,20.3479924 C2.98335138,20.3479924 2.75342642,20.5755235 2.75342642,21.0305927 L2.75342642,21.5640535 L4.38381971,21.5640535 Z M10.7529501,21.4665392 L12.0299015,21.4665392 L12.0299015,27.8107075 L10.6902426,27.8107075 L10.5420251,27.2428298 C9.96815417,27.7476125 9.28788032,28 8.50118313,28 C7.87790612,28 7.31354486,27.854686 6.80808241,27.5640535 C6.30261996,27.2734211 5.90737705,26.8709395 5.62234184,26.3565966 C5.33730662,25.8422536 5.19479115,25.2696016 5.19479115,24.6386233 C5.19479115,24.0114691 5.33730662,23.4426412 5.62234184,22.9321224 C5.90737705,22.4216036 6.30261996,22.02199 6.80808241,21.7332696 C7.31354486,21.4445492 7.87790612,21.3001912 8.50118313,21.3001912 C9.3030822,21.3001912 9.99285708,21.5583148 10.5705284,22.0745698 L10.7529501,21.4665392 Z M7.40665337,25.8833652 C7.73349375,26.2122387 8.1439383,26.376673 8.63799935,26.376673 C9.13206039,26.376673 9.54155484,26.2122387 9.86649499,25.8833652 C10.1914351,25.5544917 10.3539028,25.1395819 10.3539028,24.6386233 C10.3539028,24.1376648 10.1914351,23.722755 9.86649499,23.3938815 C9.54155484,23.0650079 9.13206039,22.9005736 8.63799935,22.9005736 C8.1439383,22.9005736 7.73444385,23.0659639 7.40950371,23.3967495 C7.08456356,23.7275351 6.92209592,24.1414889 6.92209592,24.6386233 C6.92209592,25.1357577 7.08361346,25.5506676 7.40665337,25.8833652 Z M17.6522433,21.3288719 C18.3629311,21.3288719 18.9263423,21.5659632 19.3424937,22.040153 C19.7586451,22.5143427 19.9667177,23.1567837 19.9667177,23.9674952 L19.9667177,27.8221797 L18.2622156,27.8221797 L18.2622156,24.2543021 C18.2622156,23.7724641 18.173856,23.4149151 17.9971342,23.1816444 C17.8204123,22.9483736 17.5420321,22.83174 17.1619852,22.83174 C16.7325321,22.83174 16.3895449,22.979922 16.1330132,23.2762906 C15.8764815,23.5726592 15.7482176,23.9770529 15.7482176,24.4894837 L15.7482176,27.8221797 L14.0437155,27.8221797 L14.0437155,19.1892925 L15.7482176,19.1892925 L15.7482176,22.0688337 C16.261281,21.5755233 16.8959499,21.3288719 17.6522433,21.3288719 Z M27.0427318,21.4665392 L28.3196832,21.4665392 L28.3196832,27.8107075 L26.9800244,27.8107075 L26.8318068,27.2428298 C26.2579359,27.7476125 25.5776621,28 24.7909649,28 C24.1676879,28 23.6033266,27.854686 23.0978642,27.5640535 C22.5924017,27.2734211 22.1971588,26.8709395 21.9121236,26.3565966 C21.6270884,25.8422536 21.4845729,25.2696016 21.4845729,24.6386233 C21.4845729,24.0114691 21.6270884,23.4426412 21.9121236,22.9321224 C22.1971588,22.4216036 22.5924017,22.02199 23.0978642,21.7332696 C23.6033266,21.4445492 24.1676879,21.3001912 24.7909649,21.3001912 C25.592864,21.3001912 26.2826389,21.5583148 26.8603102,22.0745698 L27.0427318,21.4665392 Z M23.6964351,25.8833652 C24.0232755,26.2122387 24.4337201,26.376673 24.9277811,26.376673 C25.4218422,26.376673 25.8313366,26.2122387 26.1562768,25.8833652 C26.4812169,25.5544917 26.6436845,25.1395819 26.6436845,24.6386233 C26.6436845,24.1376648 26.4812169,23.722755 26.1562768,23.3938815 C25.8313366,23.0650079 25.4218422,22.9005736 24.9277811,22.9005736 C24.4337201,22.9005736 24.0242256,23.0659639 23.6992855,23.3967495 C23.3743453,23.7275351 23.2118777,24.1414889 23.2118777,24.6386233 C23.2118777,25.1357577 23.3733952,25.5506676 23.6964351,25.8833652 Z M30.3334973,20.6347992 L30.3334973,19.040153 L32.0322987,19.040153 L32.0322987,20.6347992 L30.3334973,20.6347992 Z M30.3334973,27.8221797 L30.3334973,21.4780115 L32.0379993,21.4780115 L32.0379993,27.8221797 L30.3334973,27.8221797 Z M36.9762601,28 C36.5088023,28 36.0679545,27.9130028 35.6537033,27.7390057 C35.2394521,27.5650087 34.8841135,27.3288734 34.5876769,27.0305927 C34.2912403,26.7323121 34.0575149,26.3747631 33.8864938,25.957935 C33.7154727,25.5411069 33.6299634,25.0994287 33.6299634,24.6328872 C33.6299634,24.1663457 33.7154727,23.7265795 33.8864938,23.3135755 C34.0575149,22.9005715 34.2912403,22.5468466 34.5876769,22.2523901 C34.8841135,21.9579335 35.2404022,21.7256223 35.6565536,21.5554493 C36.072705,21.3852764 36.5164032,21.3001912 36.9876614,21.3001912 C37.8009619,21.3001912 38.4992877,21.5382385 39.0826598,22.0143403 C39.6660319,22.4904422 40.035622,23.120455 40.1914412,23.9043977 L38.4983405,23.9043977 C38.3615236,23.5908206 38.1582016,23.3470372 37.8883682,23.1730402 C37.6185349,22.9990431 37.3145019,22.9120459 36.9762601,22.9120459 C36.5164033,22.9120459 36.1316115,23.0774362 35.8218732,23.4082218 C35.512135,23.7390074 35.3572682,24.1491371 35.3572682,24.6386233 C35.3572682,25.1281095 35.5130851,25.5420633 35.8247236,25.8804971 C36.1363621,26.2189309 36.5202037,26.3881453 36.9762601,26.3881453 C37.3221028,26.3881453 37.6261358,26.296368 37.8883682,26.1128107 C38.1506006,25.9292534 38.3539227,25.6673057 38.4983405,25.3269598 L40.2142439,25.3269598 C40.0660256,26.126199 39.6945353,26.7715081 39.0997618,27.2629063 C38.5049883,27.7543046 37.7971615,28 36.9762601,28 Z M44.6508452,28 C44.1833875,28 43.7425396,27.9130028 43.3282884,27.7390057 C42.9140372,27.5650087 42.5586987,27.3288734 42.262262,27.0305927 C41.9658254,26.7323121 41.7321001,26.3747631 41.5610789,25.957935 C41.3900578,25.5411069 41.3045485,25.0994287 41.3045485,24.6328872 C41.3045485,24.1663457 41.3900578,23.7265795 41.5610789,23.3135755 C41.7321001,22.9005715 41.9658254,22.5468466 42.262262,22.2523901 C42.5586987,21.9579335 42.9149873,21.7256223 43.3311388,21.5554493 C43.7472902,21.3852764 44.1909883,21.3001912 44.6622466,21.3001912 C45.4755471,21.3001912 46.1738729,21.5382385 46.7572449,22.0143403 C47.340617,22.4904422 47.7102071,23.120455 47.8660264,23.9043977 L46.1729257,23.9043977 C46.0361088,23.5908206 45.8327867,23.3470372 45.5629533,23.1730402 C45.29312,22.9990431 44.989087,22.9120459 44.6508452,22.9120459 C44.1909884,22.9120459 43.8061966,23.0774362 43.4964584,23.4082218 C43.1867201,23.7390074 43.0318533,24.1491371 43.0318533,24.6386233 C43.0318533,25.1281095 43.1876702,25.5420633 43.4993087,25.8804971 C43.8109472,26.2189309 44.1947889,26.3881453 44.6508452,26.3881453 C44.9966879,26.3881453 45.3007209,26.296368 45.5629533,26.1128107 C45.8251857,25.9292534 46.0285078,25.6673057 46.1729257,25.3269598 L47.8888291,25.3269598 C47.7406108,26.126199 47.3691204,26.7715081 46.774347,27.2629063 C46.1795735,27.7543046 45.4717466,28 44.6508452,28 Z M49.2755688,27.8221797 L49.2755688,25.9866157 L51.0769823,25.9866157 L51.0769823,27.8221797 L49.2755688,27.8221797 Z M55.8670255,28 C55.3995678,28 54.9587199,27.9130028 54.5444687,27.7390057 C54.1302175,27.5650087 53.774879,27.3288734 53.4784423,27.0305927 C53.1820057,26.7323121 52.9482803,26.3747631 52.7772592,25.957935 C52.6062381,25.5411069 52.5207288,25.0994287 52.5207288,24.6328872 C52.5207288,24.1663457 52.6062381,23.7265795 52.7772592,23.3135755 C52.9482803,22.9005715 53.1820057,22.5468466 53.4784423,22.2523901 C53.774879,21.9579335 54.1311676,21.7256223 54.5473191,21.5554493 C54.9634705,21.3852764 55.4071686,21.3001912 55.8784269,21.3001912 C56.6917273,21.3001912 57.3900531,21.5382385 57.9734252,22.0143403 C58.5567973,22.4904422 58.9263874,23.120455 59.0822067,23.9043977 L57.389106,23.9043977 C57.252289,23.5908206 57.048967,23.3470372 56.7791336,23.1730402 C56.5093003,22.9990431 56.2052673,22.9120459 55.8670255,22.9120459 C55.4071687,22.9120459 55.0223769,23.0774362 54.7126387,23.4082218 C54.4029004,23.7390074 54.2480336,24.1491371 54.2480336,24.6386233 C54.2480336,25.1281095 54.4038505,25.5420633 54.715489,25.8804971 C55.0271275,26.2189309 55.4109692,26.3881453 55.8670255,26.3881453 C56.2128682,26.3881453 56.5169012,26.296368 56.7791336,26.1128107 C57.041366,25.9292534 57.2446881,25.6673057 57.389106,25.3269598 L59.1050094,25.3269598 C58.9567911,26.126199 58.5853007,26.7715081 57.9905273,27.2629063 C57.3957538,27.7543046 56.6879269,28 55.8670255,28 Z M63.6043181,28 C62.9620387,28 62.3805756,27.854686 61.8599113,27.5640535 C61.3392469,27.2734211 60.9316527,26.8718955 60.6371163,26.3594646 C60.3425799,25.8470338 60.1953139,25.2772498 60.1953139,24.6500956 C60.1953139,24.0152932 60.3425799,23.4426412 60.6371163,22.9321224 C60.9316527,22.4216036 61.3392469,22.02199 61.8599113,21.7332696 C62.3805756,21.4445492 62.9620387,21.3001912 63.6043181,21.3001912 C64.242797,21.3001912 64.8223599,21.4445492 65.3430242,21.7332696 C65.8636885,22.02199 66.2722329,22.4225596 66.5686695,22.9349904 C66.8651061,23.4474213 67.0133222,24.0191173 67.0133222,24.6500956 C67.0133222,25.2772498 66.8651061,25.8470338 66.5686695,26.3594646 C66.2722329,26.8718955 65.8636885,27.2734211 65.3430242,27.5640535 C64.8223599,27.854686 64.242797,28 63.6043181,28 Z M62.3957748,25.9063098 C62.7112138,26.2275351 63.1140575,26.3881453 63.6043181,26.3881453 C64.0945786,26.3881453 64.4974224,26.2265791 64.8128613,25.9034417 C65.1283003,25.5803043 65.2860174,25.1625265 65.2860174,24.6500956 C65.2860174,24.1376647 65.1283003,23.7198869 64.8128613,23.3967495 C64.4974224,23.0736122 64.0945786,22.9120459 63.6043181,22.9120459 C63.1140575,22.9120459 62.7112138,23.0736122 62.3957748,23.3967495 C62.0803358,23.7198869 61.9226187,24.1376647 61.9226187,24.6500956 C61.9226187,25.1625265 62.0803358,25.5812603 62.3957748,25.9063098 Z M75.7824371,21.3288719 C76.4361179,21.3288719 76.9691257,21.5621392 77.3814767,22.0286807 C77.7938276,22.4952222 78,23.0994227 78,23.8413002 L78,27.8221797 L76.2954979,27.8221797 L76.2954979,24.1281071 C76.2954979,23.7036308 76.2147392,23.3814543 76.0532192,23.1615679 C75.8916993,22.9416815 75.6570238,22.83174 75.3491857,22.83174 C74.9691388,22.83174 74.6717565,22.9684499 74.45703,23.2418738 C74.2423034,23.5152977 74.1349418,23.8986591 74.1349418,24.3919694 L74.1349418,27.8221797 L72.4760451,27.8221797 L72.4760451,24.1281071 C72.4760451,23.7036308 72.3971866,23.3814543 72.2394671,23.1615679 C72.0817476,22.9416815 71.8508725,22.83174 71.546835,22.83174 C71.1591871,22.83174 70.8570543,22.9684499 70.6404275,23.2418738 C70.4238008,23.5152977 70.315489,23.8986591 70.315489,24.3919694 L70.315489,27.8221797 L68.6109869,27.8221797 L68.6109869,21.4780115 L69.7967275,21.4780115 L70.1159653,22.2638623 C70.340193,21.977054 70.6185733,21.7495228 70.9511143,21.581262 C71.2836554,21.4130011 71.6323433,21.3288719 71.9971884,21.3288719 C72.3962377,21.3288719 72.7553766,21.4177811 73.0746161,21.5956023 C73.3938555,21.7734235 73.6446828,22.0229429 73.8271053,22.3441683 C74.0475325,22.0305912 74.3297132,21.7829837 74.6736557,21.6013384 C75.0175982,21.4196932 75.3871883,21.3288719 75.7824371,21.3288719 Z" id="Combined-Shape"></path>
                    </g>
                </g>
                <g id="Group-9" transform="translate(127.000000, 2.000000)" fill="#FFFFFF">
                    <path d="M5,0 L27.4,0 C30.1614237,1.94537167e-15 32.4,2.23857625 32.4,5 L32.4,27.4 C32.4,30.1614237 30.1614237,32.4 27.4,32.4 L5,32.4 C2.23857625,32.4 3.38176876e-16,30.1614237 0,27.4 L0,5 C-3.38176876e-16,2.23857625 2.23857625,-1.26909153e-15 5,-1.77635684e-15 Z M4.72,0.72 C2.510861,0.72 0.72,2.510861 0.72,4.72 L0.72,27.68 C0.72,29.889139 2.510861,31.68 4.72,31.68 L27.68,31.68 C29.889139,31.68 31.68,29.889139 31.68,27.68 L31.68,4.72 C31.68,2.510861 29.889139,0.72 27.68,0.72 L4.72,0.72 Z" id="Combined-Shape" fill-rule="nonzero" opacity="0.6"></path>
                    <path d="M15.84,15.84 L15.84,0.72 L16.56,0.72 L16.56,15.84 L31.68,15.84 L31.68,16.56 L16.56,16.56 L16.56,31.68 L15.84,31.68 L15.84,16.56 L0.72,16.56 L0.72,15.84 L15.84,15.84 Z" id="Combined-Shape" fill-rule="nonzero" opacity="0.6"></path>
                    <path d="M5.04576,5.23008 C4.80767881,5.56800169 4.55424134,5.85983877 4.28544,6.1056 L5.94432,6.1056 C5.99040023,5.81375854 6.02495988,5.52192146 6.048,5.23008 L5.04576,5.23008 Z M5.6448,7.10784 L3.50208,7.10784 L3.50208,6.1056 L4.02048,6.1056 L3.47904,5.42592 C4.02432273,4.94207758 4.48895808,4.2700843 4.87296,3.40992 L5.85216,3.61728 C5.79839973,3.77088077 5.71008061,3.98591862 5.5872,4.2624 L8.74368,4.2624 L8.74368,5.23008 L7.09632,5.23008 C7.06559985,5.61408192 7.03488015,5.905919 7.00416,6.1056 L9.06624,6.1056 L9.06624,7.10784 L6.77376,7.10784 L6.72768,7.26912 C7.55712415,7.69152211 8.27903693,8.12927773 8.89344,8.5824 L8.21376,9.2736 L12.6144,9.2736 L12.6144,14.1696 L11.50848,14.1696 L11.50848,13.72032 L6.07104,13.72032 L6.07104,14.1696 L4.97664,14.1696 L4.97664,9.43488 C4.60031812,9.66528115 4.28160131,9.84191939 4.02048,9.9648 L3.2832,9.07776 C4.47360595,8.54783735 5.25311816,7.90656376 5.62176,7.15392 L5.6448,7.10784 Z M6.07104,12.75264 L11.50848,12.75264 L11.50848,11.99232 L6.07104,11.99232 L6.07104,12.75264 Z M6.07104,11.04768 L11.50848,11.04768 L11.50848,10.24128 L6.07104,10.24128 L6.07104,11.04768 Z M8.01792,9.2736 C7.56479773,8.86655796 7.01568323,8.463362 6.37056,8.064 C6.09407862,8.49408215 5.7062425,8.89727812 5.20704,9.2736 L8.01792,9.2736 Z M9.42336,4.27392 L13.45536,4.27392 L13.45536,8.62848 L9.42336,8.62848 L9.42336,4.27392 Z M12.384,7.67232 L12.384,5.2416 L10.49472,5.2416 L10.49472,7.67232 L12.384,7.67232 Z M18.62208,4.19328 L23.21856,4.19328 L23.21856,3.49056 L24.30144,3.49056 L24.30144,4.19328 L28.89792,4.19328 L28.89792,5.11488 L24.30144,5.11488 L24.30144,5.62176 L27.91872,5.62176 L27.91872,9.06624 L27.51552,9.06624 C28.0915229,9.55008242 28.5638382,10.0031979 28.93248,10.4256 L28.12608,10.97856 C27.918719,10.7251187 27.719041,10.494721 27.52704,10.28736 C25.7452711,10.4102406 22.9036995,10.5254395 19.00224,10.63296 L18.864,9.6768 L23.21856,9.6192 L23.21856,9.06624 L19.60128,9.06624 L19.60128,5.62176 L23.21856,5.62176 L23.21856,5.11488 L18.62208,5.11488 L18.62208,4.19328 Z M26.74368,9.51552 L26.42112,9.216 L26.65152,9.06624 L24.30144,9.06624 L24.30144,9.59616 L26.74368,9.51552 Z M26.88192,8.25984 L26.88192,7.69536 L24.30144,7.69536 L24.30144,8.25984 L26.88192,8.25984 Z M23.21856,8.25984 L23.21856,7.69536 L20.63808,7.69536 L20.63808,8.25984 L23.21856,8.25984 Z M20.63808,6.99264 L23.21856,6.99264 L23.21856,6.42816 L20.63808,6.42816 L20.63808,6.99264 Z M24.30144,6.42816 L24.30144,6.99264 L26.88192,6.99264 L26.88192,6.42816 L24.30144,6.42816 Z M20.56896,11.1744 C20.2924786,12.165125 19.9084825,13.0214364 19.41696,13.74336 L18.5184,13.16736 C19.0176025,12.4838366 19.3747189,11.7542439 19.58976,10.97856 L20.56896,11.1744 Z M22.34304,13.96224 C21.5827162,13.96224 21.20256,13.5936037 21.20256,12.85632 L21.20256,10.93248 L22.2624,10.93248 L22.2624,12.62592 C22.2624,12.8486411 22.3967987,12.96 22.6656,12.96 L25.21152,12.96 C25.3728008,12.96 25.4918396,12.9100805 25.56864,12.81024 C25.6684805,12.6873594 25.7337598,12.3609626 25.76448,11.83104 L26.7552,12.1536 C26.6783996,13.0214443 26.5324811,13.5436791 26.31744,13.72032 C26.125439,13.8816008 25.8220821,13.96224 25.40736,13.96224 L22.34304,13.96224 Z M23.88672,10.64448 C24.4627229,11.1744026 24.9004785,11.6275181 25.2,12.00384 L24.38208,12.56832 C24.0595184,12.1382378 23.6217628,11.6659226 23.0688,11.15136 L23.88672,10.64448 Z M27.34272,10.7136 C28.0800037,11.5430441 28.6559979,12.2879967 29.07072,12.94848 L28.20672,13.52448 C27.799678,12.8486366 27.2352036,12.0844843 26.51328,11.232 L27.34272,10.7136 Z M3.96288,19.07136 L13.34016,19.07136 L13.34016,20.14272 L9.14688,20.14272 L9.14688,24.2208 L13.77792,24.2208 L13.77792,25.26912 L9.14688,25.26912 L9.14688,29.25504 L8.04096,29.25504 L8.04096,25.26912 L3.50208,25.26912 L3.50208,24.2208 L8.04096,24.2208 L8.04096,20.14272 L3.96288,20.14272 L3.96288,19.07136 Z M5.57568,20.68416 C6.00576215,21.4982441 6.40895812,22.3583955 6.78528,23.26464 L5.76,23.77152 C5.38367812,22.8038352 4.98048215,21.9398438 4.5504,21.17952 L5.57568,20.68416 Z M12.79872,21.1104 C12.4761584,21.9705643 12.0422427,22.8383956 11.49696,23.71392 L10.50624,23.20704 C11.0438427,22.3391957 11.4739184,21.4828842 11.79648,20.63808 L12.79872,21.1104 Z M27.69984,24.38208 L27.69984,29.27808 L26.59392,29.27808 L26.59392,28.80576 L20.92608,28.80576 L20.92608,29.27808 L19.82016,29.27808 L19.82016,24.38208 L27.69984,24.38208 Z M20.92608,27.75744 L26.59392,27.75744 L26.59392,25.4304 L20.92608,25.4304 L20.92608,27.75744 Z M18.864,22.27392 C19.7395244,22.081919 20.9491123,20.8531313 22.4928,18.58752 L23.63328,18.9792 C22.6963153,20.2771265 21.7478448,21.3599957 20.78784,22.22784 C22.6771294,22.1587197 24.5702305,22.0358409 26.4672,21.8592 C26.1523184,21.3907177 25.7760022,20.8761628 25.33824,20.31552 L26.32896,19.8432 C27.2736047,21.0028858 28.1606359,22.2739131 28.99008,23.65632 L27.91872,24.18624 C27.6268785,23.6716774 27.3580812,23.218562 27.11232,22.82688 C24.708468,23.034241 22.0281748,23.1955194 19.07136,23.31072 L18.864,22.27392 Z" id="Combined-Shape"></path>
                </g>
            </g>
        </g>
    </g>
</svg>