<?xml version="1.0" encoding="UTF-8"?>
<svg width="264px" height="90px" viewBox="0 0 264 90" version="1.1" xmlns="http://www.w3.org/2000/svg" xmlns:xlink="http://www.w3.org/1999/xlink">
    <!-- Generator: Sketch 52.5 (67469) - http://www.bohemiancoding.com/sketch -->
    <title>logo</title>
    <desc>Created with Sketch.</desc>
    <defs>
        <filter x="-21.4%" y="-96.0%" width="138.8%" height="292.0%" filterUnits="objectBoundingBox" id="filter-1">
            <feOffset dx="0" dy="0" in="SourceAlpha" result="shadowOffsetOuter1"></feOffset>
            <feGaussianBlur stdDeviation="10" in="shadowOffsetOuter1" result="shadowBlurOuter1"></feGaussianBlur>
            <feColorMatrix values="0 0 0 0 0.141176471   0 0 0 0 0.368627451   0 0 0 0 0.819607843  0 0 0 1 0" type="matrix" in="shadowBlurOuter1" result="shadowMatrixOuter1"></feColorMatrix>
            <feMerge>
                <feMergeNode in="shadowMatrixOuter1"></feMergeNode>
                <feMergeNode in="SourceGraphic"></feMergeNode>
            </feMerge>
        </filter>
        <filter x="-24.0%" y="-24.0%" width="148.0%" height="148.0%" filterUnits="objectBoundingBox" id="filter-2">
            <feOffset dx="0" dy="2" in="SourceAlpha" result="shadowOffsetOuter1"></feOffset>
            <feGaussianBlur stdDeviation="2" in="shadowOffsetOuter1" result="shadowBlurOuter1"></feGaussianBlur>
            <feColorMatrix values="0 0 0 0 0   0 0 0 0 0   0 0 0 0 0  0 0 0 0.15 0" type="matrix" in="shadowBlurOuter1" result="shadowMatrixOuter1"></feColorMatrix>
            <feMerge>
                <feMergeNode in="shadowMatrixOuter1"></feMergeNode>
                <feMergeNode in="SourceGraphic"></feMergeNode>
            </feMerge>
        </filter>
    </defs>
    <g id="智惠平台-风险查询" stroke="none" stroke-width="1" fill="none" fill-rule="evenodd">
        <g id="查询首页" transform="translate(-56.000000, -180.000000)">
            <g id="logo" filter="url(#filter-1)" transform="translate(76.000000, 200.000000)">
                <g id="Group-8">
                    <g id="Group-14" filter="url(#filter-2)" fill="#FFFFFF" fill-rule="nonzero">
                        <circle id="Oval" cx="25" cy="25" r="25"></circle>
                    </g>
                    <g id="Group-4" transform="translate(1.000000, 1.000000)">
                        <g id="Group-11" fill-rule="nonzero">
                            <path d="M26.9244572,5.26620024 C30.9417565,4.02206549 34.2069374,3.78666541 36.72,4.56 C38.7007991,5.30606858 40.4483166,6.49260935 41.9625526,8.11962231 C32.9683106,9.89140559 25.1766403,15.0130439 19.9410074,22.1310716 C17.5564463,19.7082312 15.5124301,16.9492337 13.8865262,13.9316464 C17.5126096,10.1604032 21.9528236,7.17768409 26.9244572,5.26620024 Z M10.355722,4.25314397 C14.2298436,1.5712121 18.9314337,1.98951966e-13 24,1.98951966e-13 C27.1584835,1.98951966e-13 30.1744637,0.610129132 32.9365104,1.71895722 C25.1090175,2.69580758 18.0620965,6.18561693 12.6286137,11.3555188 C11.6368294,9.0997445 10.8697523,6.72283974 10.355722,4.25314397 Z" id="Combined-Shape" fill="#D7000F"></path>
                            <path d="M8.11973282,6.03800839 C9.89161855,15.0320134 15.0131919,22.8234686 22.1310716,28.0589926 C19.7082312,30.4435537 16.9492337,32.4875699 13.9316464,34.1134738 C9.97999814,30.3139294 6.89411977,25.6205002 4.99926631,20.3584411 C3.6954235,16.6679756 3.4690014,13.6418286 4.32,11.28 C4.83856523,9.6905637 6.10514284,7.94323316 8.11973282,6.03800839 Z M11.3555188,35.3713863 C9.0997445,36.3631706 6.72283974,37.1302477 4.25314397,37.644278 C1.5712121,33.7701564 -5.68434189e-14,29.0685663 -5.68434189e-14,24 C-5.68434189e-14,20.8415165 0.610129132,17.8255363 1.71895722,15.0634896 C2.69580758,22.8909825 6.18561693,29.9379035 11.3555188,35.3713863 Z" id="Combined-Shape" fill="#3758C7"></path>
                            <path d="M6.03829942,39.8802098 C15.0321815,38.108271 22.8235251,32.9867313 28.0589926,25.8689284 C30.4435537,28.2917688 32.4875699,31.0507663 34.1134738,34.0683536 C30.4421595,37.8866384 25.9362773,40.8966047 20.8892503,42.8048294 C16.9936853,44.2198444 13.7906018,44.5115679 11.28,43.68 C9.51198129,42.9552038 7.76474776,41.6886071 6.03829942,39.8802098 Z M15.0634896,46.2810428 C22.8909825,45.3041924 29.9379035,41.8143831 35.3713863,36.6444812 C36.3631706,38.9002555 37.1302477,41.2771603 37.644278,43.746856 C33.7701564,46.4287879 29.0685663,48 24,48 C20.8415165,48 17.8255363,47.3898709 15.0634896,46.2810428 Z" id="Combined-Shape" fill="#D7000F"></path>
                            <path d="M39.8802707,41.9620095 C38.1083882,32.9679969 32.9868128,25.1765349 25.8689284,19.9410074 C28.2917688,17.5564463 31.0507663,15.5124301 34.0683536,13.8865262 C38.0574739,17.7221003 41.1643269,22.4685924 43.0543168,27.7914066 C44.3157261,31.4140185 44.5242872,34.3902163 43.68,36.72 C43.0154659,38.4479282 41.7488895,40.1952647 39.8802707,41.9620095 Z M36.6444812,12.6286137 C38.9002555,11.6368294 41.2771603,10.8697523 43.746856,10.355722 C46.4287879,14.2298436 48,18.9314337 48,24 C48,27.1584835 47.3898709,30.1744637 46.2810428,32.9365104 C45.3041924,25.1090175 41.8143831,18.0620965 36.6444812,12.6286137 Z" id="Combined-Shape" fill="#3758C7"></path>
                        </g>
                        <g id="Group" transform="translate(59.960000, 3.840000)" fill="#FFFFFF">
                            <path d="M13.5532895,0.36 L16.2897632,0.36 L16.2897632,4.16571429 L22.6404474,4.16571429 L22.6404474,6.76285714 L16.2897632,6.76285714 L16.2897632,10.7485714 L23.3116579,10.7485714 L23.3116579,13.3714286 L14.9473421,13.3714286 C13.5532895,16.6628571 12.2883158,19.1057143 11.2040526,20.7 C13.8888947,20.3914286 16.5737368,19.9542857 19.2327632,19.4142857 C18.5873684,18.0771429 17.9419737,16.8685714 17.2707632,15.7371429 L19.8781579,14.8628571 C21.3754737,17.4342857 22.6920789,20.16 23.8279737,23.0914286 L21.2722105,24.2228571 C20.9366053,23.3485714 20.601,22.5257143 20.2912105,21.7542857 C16.4446579,22.5257143 12.2883158,23.1171429 7.79636842,23.5542857 L7.20260526,21.2142857 C7.46076316,21.1371429 7.64147368,21.06 7.77055263,20.9828571 C8.85481579,20.0057143 10.3005,17.4857143 12.0559737,13.3714286 L6.47976316,13.3714286 L6.47976316,10.7485714 L13.5532895,10.7485714 L13.5532895,6.76285714 L7.71892105,6.76285714 L7.71892105,4.16571429 L13.5532895,4.16571429 L13.5532895,0.36 Z M2.55576316,0.514285714 C4.20797368,1.8 5.60202632,3.06 6.76373684,4.32 L4.85336842,6.24857143 C3.87236842,5.04 2.4525,3.75428571 0.619578947,2.36571429 L2.55576316,0.514285714 Z M1.91036842,6.53142857 C3.4335,7.81714286 4.72428947,9.10285714 5.80855263,10.3885714 L3.87236842,12.2914286 C2.96881579,11.1085714 1.67802632,9.79714286 9.9475983e-14,8.38285714 L1.91036842,6.53142857 Z M4.23378947,13.8085714 L6.68628947,14.8114286 C5.57621053,18.0257143 4.33705263,21.06 2.99463158,23.8885714 L0.283973684,22.7057143 C1.80710526,19.8257143 3.12371053,16.8428571 4.23378947,13.8085714 Z M38.5324561,4.52571429 C38.1968509,5.04 37.8612456,5.55428571 37.5256404,6.01714286 L50.2528246,6.01714286 C50.1753772,8.22857143 50.0979298,10.1828571 50.0462982,11.9314286 L52.034114,11.9314286 L52.034114,14.4 L49.9430351,14.4 C49.8655877,15.84 49.7881404,17.0742857 49.7365088,18.0771429 L51.6210614,18.0771429 L51.6210614,20.3914286 L49.5557982,20.3914286 C49.5041667,21.0085714 49.4267193,21.42 49.3750877,21.6 C49.1169298,22.4485714 48.6264298,23.0657143 47.9294035,23.4514286 C47.2065614,23.8371429 46.148114,24.0428571 44.7540614,24.0428571 C44.0312193,24.0428571 43.1792982,24.0685714 42.2499298,24.0685714 L41.4496404,21.6771429 C42.5339035,21.7285714 43.5149035,21.78 44.3926404,21.78 C44.9864035,21.78 45.5027193,21.7028571 45.9415877,21.6 C46.3804561,21.4457143 46.7160614,21.1114286 46.9484035,20.6228571 C46.9484035,20.5714286 46.9742193,20.4942857 47.0000351,20.3914286 L34.7891667,20.3914286 C35.2022193,18.36 35.5636404,16.3542857 35.8217982,14.4 L33.5500088,14.4 L33.5500088,11.9314286 L36.1057719,11.9314286 C36.2606667,10.3885714 36.3897456,8.84571429 36.467193,7.35428571 C36.1057719,7.76571429 35.7185351,8.17714286 35.357114,8.53714286 L33.6532719,6.48 C35.2538509,4.96285714 36.6479035,2.80285714 37.8354298,0.0257142857 L40.5202719,0.617142857 L39.8748772,2.05714286 L51.2596404,2.05714286 L51.2596404,4.52571429 L38.5324561,4.52571429 Z M38.4033772,14.4 C38.2226667,15.7114286 38.0161404,16.9457143 37.7837982,18.0771429 L43.0760351,18.0771429 C42.353193,17.3057143 41.372193,16.5085714 40.1846667,15.66 L41.5012719,14.4 L38.4033772,14.4 Z M43.5665351,18.0771429 L47.2065614,18.0771429 C47.258193,17.1 47.3098246,15.8657143 47.3872719,14.4 L42.3790088,14.4 C43.4116404,15.12 44.315193,15.8657143 45.0380351,16.6114286 L43.5665351,18.0771429 Z M47.4905351,11.9314286 C47.5163509,10.8 47.5679825,9.61714286 47.619614,8.33142857 L42.2757456,8.33142857 C43.4632719,9.07714286 44.4959035,9.82285714 45.3478246,10.5428571 L43.9279561,11.9314286 L47.4905351,11.9314286 Z M42.0692193,8.33142857 L38.919693,8.33142857 C38.8680614,9.59142857 38.7647982,10.8 38.6615351,11.9314286 L43.2825614,11.9314286 C42.5597193,11.2628571 41.6045351,10.5942857 40.4686404,9.87428571 L42.0692193,8.33142857 Z M30.4779298,0.514285714 C32.0010614,1.59428571 33.2918509,2.67428571 34.3244825,3.78 L32.414114,5.68285714 C31.5105614,4.65428571 30.2197719,3.54857143 28.5675614,2.36571429 L30.4779298,0.514285714 Z M30.0648772,6.76285714 C31.5880088,7.86857143 32.8787982,8.97428571 33.9372456,10.1057143 L32.0268772,12.0085714 C31.1233246,10.98 29.8325351,9.84857143 28.1545088,8.61428571 L30.0648772,6.76285714 Z M31.9752456,14.4771429 L34.3244825,15.4028571 C33.2918509,18.3857143 32.1043246,21.1628571 30.8135351,23.7857143 L28.3094035,22.68 C29.7034561,20.0057143 30.942614,17.2542857 31.9752456,14.4771429 Z M64.4926228,6.06857143 C65.7834123,7.68857143 66.9967544,9.23142857 68.1068333,10.7228571 C68.9845702,9.02571429 69.7074123,7.22571429 70.2495439,5.32285714 L72.9085702,5.78571429 C72.1599123,8.51142857 71.1530965,10.98 69.9139386,13.1914286 C71.4112544,15.3 72.6762281,17.2285714 73.7088596,19.0028571 L71.2563596,20.7 C70.3786228,19.1057143 69.371807,17.4857143 68.2617281,15.7885714 C66.7385965,17.8457143 64.957307,19.62 62.9436754,21.1371429 L61.1365702,18.8228571 C63.2792807,17.2285714 65.086386,15.3771429 66.557886,13.2685714 C65.2670965,11.3657143 63.8472281,9.43714286 62.2982807,7.43142857 L64.4926228,6.06857143 Z M59.0971228,1.10571429 L76.4453333,1.10571429 L76.4453333,11.7257143 C76.4453333,15.5314286 76.5485965,18 76.7809386,19.08 C76.9616491,20.1342857 77.1939912,20.6742857 77.4521491,20.6742857 C77.6328596,20.6742857 77.7877544,19.6971429 77.9426491,17.7942857 L80.3435175,18.9514286 C80.0079123,20.9571429 79.6464912,22.2685714 79.2334386,22.9114286 C78.7687544,23.5542857 78.2782544,23.8885714 77.7361228,23.8885714 C76.3420702,23.8885714 75.3352544,23.0657143 74.6898596,21.42 C74.0186491,19.8257143 73.6830439,16.6114286 73.6830439,11.7257143 L73.6830439,3.72857143 L61.8077807,3.72857143 L61.8077807,11.3914286 C61.7561491,16.4571429 60.6977018,20.7 58.6582544,24.1457143 L56.3864649,22.2942857 C58.1161228,19.4142857 59.0196754,15.7628571 59.0971228,11.3914286 L59.0971228,1.10571429 Z M99.1527105,16.1228571 L93.5506842,16.1228571 L93.5506842,13.6285714 L107.387947,13.6285714 L107.387947,16.1228571 L101.863368,16.1228571 L101.863368,20.8028571 L108.343132,20.8028571 L108.343132,23.4 L92.5180526,23.4 L92.5180526,20.8028571 L99.1527105,20.8028571 L99.1527105,16.1228571 Z M87.7937632,23.8628571 L85.5219737,23.8628571 L84.9282105,21.2657143 C85.5994211,21.3685714 86.2448158,21.42 86.8643947,21.42 C87.4323421,21.42 87.7163158,21.1114286 87.7163158,20.5457143 L87.7163158,15.3514286 C86.8127632,15.6857143 85.9092105,15.9942857 85.0056579,16.2771429 L84.3344474,13.5514286 C85.4703421,13.2942857 86.6062368,12.9857143 87.7163158,12.6 L87.7163158,7.53428571 L84.8507632,7.53428571 L84.8507632,4.93714286 L87.7163158,4.93714286 L87.7163158,0.334285714 L90.4527895,0.334285714 L90.4527895,4.93714286 L92.3115263,4.93714286 L92.3115263,7.53428571 L90.4527895,7.53428571 L90.4527895,11.52 C91.0981842,11.2114286 91.7435789,10.8771429 92.3889737,10.5428571 L92.3889737,13.2685714 C91.7177632,13.5771429 91.0723684,13.8857143 90.4527895,14.1942857 L90.4527895,21.24 C90.4527895,22.9885714 89.5492368,23.8628571 87.7937632,23.8628571 Z M100.753289,0 C101.114711,0.874285714 101.501947,1.82571429 101.863368,2.88 L107.801,2.88 L107.801,8.20285714 L105.296868,8.20285714 L105.296868,5.27142857 L95.6675789,5.27142857 L95.6675789,8.20285714 L93.1376316,8.20285714 L93.1376316,2.88 L99.1527105,2.88 C98.8171053,2.00571429 98.4298684,1.20857143 97.991,0.462857143 L100.753289,0 Z M97.4488684,6.40285714 L99.7981053,7.32857143 C98.6880263,9.84857143 97.2165263,11.7771429 95.3836053,13.1142857 L93.4474211,11.4171429 C95.2545263,10.1314286 96.5711316,8.46 97.4488684,6.40285714 Z M103.231605,6.35142857 C104.780553,7.97142857 106.122974,9.77142857 107.284684,11.7257143 L104.909632,12.9342857 C103.722105,10.8257143 102.431316,8.97428571 101.011447,7.32857143 L103.231605,6.35142857 Z M6.10333145,30.6766183 L6.10333145,32.6213728 L3.89692554,32.6213728 L3.89692554,39.3015253 L1.52384868,39.3015253 L1.52384868,32.6213728 L-1.42108547e-14,32.6213728 L-1.42108547e-14,30.6766183 L1.5317854,30.6766183 L1.5317854,29.8860677 C1.5317854,29.0322688 1.76988437,28.3616251 2.24608947,27.8741164 C2.72229456,27.3866078 3.41278159,27.1428571 4.31757127,27.1428571 L6.08745802,27.1428571 L6.08745802,29.000651 L4.79377399,29.000651 C4.15354269,29.000651 3.83343185,29.314233 3.83343185,29.9414062 L3.83343185,30.6766183 L6.10333145,30.6766183 Z M14.9706929,30.5422247 L16.7485163,30.5422247 L16.7485163,39.2857143 L14.883389,39.2857143 L14.6770345,38.5030692 C13.8780682,39.1987572 12.9309634,39.546596 11.8356917,39.546596 C10.9679402,39.546596 10.1822135,39.3463252 9.47848822,38.9457775 C8.77476292,38.5452299 8.22448973,37.9905324 7.82765215,37.2816685 C7.43081457,36.5728046 7.23239876,35.7835795 7.23239876,34.9139695 C7.23239876,34.0496299 7.43081457,33.265675 7.82765215,32.5620815 C8.22448973,31.8584879 8.77476292,31.3077432 9.47848822,30.9098307 C10.1822135,30.5119183 10.9679402,30.312965 11.8356917,30.312965 C12.952128,30.312965 13.9124606,30.6687092 14.7167181,31.3802083 L14.9706929,30.5422247 Z M10.311843,36.6294643 C10.7668834,37.0827156 11.3383209,37.3093378 12.0261727,37.3093378 C12.7140245,37.3093378 13.2841393,37.0827156 13.7365342,36.6294643 C14.188929,36.176213 14.415123,35.6043871 14.415123,34.9139695 C14.415123,34.2235519 14.188929,33.651726 13.7365342,33.1984747 C13.2841393,32.7452234 12.7140245,32.5186012 12.0261727,32.5186012 C11.3383209,32.5186012 10.7682062,32.746541 10.3158113,33.2024275 C9.86341649,33.6583139 9.63722246,34.2288222 9.63722246,34.9139695 C9.63722246,35.5991168 9.86209372,36.1709426 10.311843,36.6294643 Z M24.5761685,30.3524926 C25.5656168,30.3524926 26.3500207,30.6792502 26.9294035,31.3327753 C27.5087864,31.9863004 27.7984735,32.8717082 27.7984735,33.9890253 L27.7984735,39.3015253 L25.4253966,39.3015253 L25.4253966,34.3843006 C25.4253966,33.7202348 25.3023788,33.2274632 25.0563395,32.905971 C24.8103002,32.5844788 24.422728,32.4237351 23.8936112,32.4237351 C23.2957093,32.4237351 22.8181886,32.6279586 22.4610348,33.0364118 C22.1038809,33.444865 21.9253067,34.0021976 21.9253067,34.7084263 L21.9253067,39.3015253 L19.5522298,39.3015253 L19.5522298,27.4037388 L21.9253067,27.4037388 L21.9253067,31.3723028 C22.6396143,30.6924259 23.5232261,30.3524926 24.5761685,30.3524926 Z M37.6499872,30.5422247 L39.4278106,30.5422247 L39.4278106,39.2857143 L37.5626834,39.2857143 L37.3563288,38.5030692 C36.5573625,39.1987572 35.6102577,39.546596 34.514986,39.546596 C33.6472345,39.546596 32.8615079,39.3463252 32.1577826,38.9457775 C31.4540572,38.5452299 30.9037841,37.9905324 30.5069465,37.2816685 C30.1101089,36.5728046 29.9116931,35.7835795 29.9116931,34.9139695 C29.9116931,34.0496299 30.1101089,33.265675 30.5069465,32.5620815 C30.9037841,31.8584879 31.4540572,31.3077432 32.1577826,30.9098307 C32.8615079,30.5119183 33.6472345,30.312965 34.514986,30.312965 C35.6314224,30.312965 36.5917549,30.6687092 37.3960124,31.3802083 L37.6499872,30.5422247 Z M32.9911373,36.6294643 C33.4461777,37.0827156 34.0176153,37.3093378 34.7054671,37.3093378 C35.3933189,37.3093378 35.9634336,37.0827156 36.4158285,36.6294643 C36.8682233,36.176213 37.0944174,35.6043871 37.0944174,34.9139695 C37.0944174,34.2235519 36.8682233,33.651726 36.4158285,33.1984747 C35.9634336,32.7452234 35.3933189,32.5186012 34.7054671,32.5186012 C34.0176153,32.5186012 33.4475005,32.746541 32.9951057,33.2024275 C32.5427108,33.6583139 32.3165168,34.2288222 32.3165168,34.9139695 C32.3165168,35.5991168 32.541388,36.1709426 32.9911373,36.6294643 Z M42.2315242,29.3959263 L42.2315242,27.1981957 L44.5966643,27.1981957 L44.5966643,29.3959263 L42.2315242,29.3959263 Z M42.2315242,39.3015253 L42.2315242,30.5580357 L44.604601,30.5580357 L44.604601,39.3015253 L42.2315242,39.3015253 Z M51.4798477,39.546596 C50.8290341,39.546596 50.2152679,39.426697 49.6385306,39.1868955 C49.0617933,38.9470939 48.5670765,38.6216538 48.1543655,38.2105655 C47.7416544,37.7994771 47.4162524,37.3067055 47.1781499,36.7322359 C46.9400474,36.1577662 46.8209979,35.5490484 46.8209979,34.906064 C46.8209979,34.2630796 46.9400474,33.6569969 47.1781499,33.0877976 C47.4162524,32.5185983 47.7416544,32.031097 48.1543655,31.625279 C48.5670765,31.219461 49.0631161,30.8992912 49.6424989,30.66476 C50.2218818,30.4302289 50.8396164,30.312965 51.4957212,30.312965 C52.6280311,30.312965 53.6002685,30.6410402 54.4124628,31.2972005 C55.224657,31.9533608 55.7392154,32.8216402 55.9561533,33.9020647 L53.5989498,33.9020647 C53.4084678,33.4698949 53.1253946,33.1339143 52.7497217,32.8941127 C52.3740487,32.6543112 51.9507617,32.5344122 51.4798477,32.5344122 C50.8396165,32.5344122 50.3038938,32.762352 49.8726636,33.2182385 C49.4414334,33.6741249 49.2258216,34.2393629 49.2258216,34.9139695 C49.2258216,35.588576 49.4427562,36.1590843 49.8766319,36.6255115 C50.3105077,37.0919387 50.8449076,37.3251488 51.4798477,37.3251488 C51.961344,37.3251488 52.3846311,37.198662 52.7497217,36.9456845 C53.1148122,36.6927071 53.3978855,36.3316926 53.5989498,35.8626302 L55.9879001,35.8626302 C55.7815446,36.9641362 55.2643407,37.8534967 54.4362729,38.5307385 C53.6082052,39.2079802 52.62274,39.546596 51.4798477,39.546596 Z M62.1647162,39.546596 C61.5139026,39.546596 60.9001363,39.426697 60.323399,39.1868955 C59.7466617,38.9470939 59.251945,38.6216538 58.8392339,38.2105655 C58.4265228,37.7994771 58.1011209,37.3067055 57.8630183,36.7322359 C57.6249158,36.1577662 57.5058663,35.5490484 57.5058663,34.906064 C57.5058663,34.2630796 57.6249158,33.6569969 57.8630183,33.0877976 C58.1011209,32.5185983 58.4265228,32.031097 58.8392339,31.625279 C59.251945,31.219461 59.7479845,30.8992912 60.3273674,30.66476 C60.9067502,30.4302289 61.5244848,30.312965 62.1805896,30.312965 C63.3128995,30.312965 64.285137,30.6410402 65.0973312,31.2972005 C65.9095255,31.9533608 66.4240838,32.8216402 66.6410217,33.9020647 L64.2838183,33.9020647 C64.0933362,33.4698949 63.810263,33.1339143 63.4345901,32.8941127 C63.0589172,32.6543112 62.6356301,32.5344122 62.1647162,32.5344122 C61.5244849,32.5344122 60.9887622,32.762352 60.557532,33.2182385 C60.1263019,33.6741249 59.91069,34.2393629 59.91069,34.9139695 C59.91069,35.588576 60.1276246,36.1590843 60.5615004,36.6255115 C60.9953761,37.0919387 61.5297761,37.3251488 62.1647162,37.3251488 C62.6462124,37.3251488 63.0694995,37.198662 63.4345901,36.9456845 C63.7996807,36.6927071 64.0827539,36.3316926 64.2838183,35.8626302 L66.6727685,35.8626302 C66.466413,36.9641362 65.9492091,37.8534967 65.1211414,38.5307385 C64.2930736,39.2079802 63.3076084,39.546596 62.1647162,39.546596 Z M68.6034437,39.3015253 L68.6034437,36.7717634 L71.1114447,36.7717634 L71.1114447,39.3015253 L68.6034437,39.3015253 Z M77.7803369,39.546596 C77.1295233,39.546596 76.515757,39.426697 75.9390198,39.1868955 C75.3622825,38.9470939 74.8675657,38.6216538 74.4548546,38.2105655 C74.0421436,37.7994771 73.7167416,37.3067055 73.4786391,36.7322359 C73.2405365,36.1577662 73.121487,35.5490484 73.121487,34.906064 C73.121487,34.2630796 73.2405365,33.6569969 73.4786391,33.0877976 C73.7167416,32.5185983 74.0421436,32.031097 74.4548546,31.625279 C74.8675657,31.219461 75.3636053,30.8992912 75.9429881,30.66476 C76.522371,30.4302289 77.1401055,30.312965 77.7962103,30.312965 C78.9285202,30.312965 79.9007577,30.6410402 80.712952,31.2972005 C81.5251462,31.9533608 82.0397046,32.8216402 82.2566424,33.9020647 L79.899439,33.9020647 C79.708957,33.4698949 79.4258837,33.1339143 79.0502108,32.8941127 C78.6745379,32.6543112 78.2512508,32.5344122 77.7803369,32.5344122 C77.1401056,32.5344122 76.6043829,32.762352 76.1731528,33.2182385 C75.7419226,33.6741249 75.5263107,34.2393629 75.5263107,34.9139695 C75.5263107,35.588576 75.7432454,36.1590843 76.1771211,36.6255115 C76.6109969,37.0919387 77.1453968,37.3251488 77.7803369,37.3251488 C78.2618332,37.3251488 78.6851203,37.198662 79.0502108,36.9456845 C79.4153014,36.6927071 79.6983746,36.3316926 79.899439,35.8626302 L82.2883893,35.8626302 C82.0820337,36.9641362 81.5648298,37.8534967 80.7367621,38.5307385 C79.9086944,39.2079802 78.9232291,39.546596 77.7803369,39.546596 Z M88.5525092,39.546596 C87.6583018,39.546596 86.8487653,39.3463252 86.1238753,38.9457775 C85.3989854,38.5452299 84.8315161,37.99185 84.4214506,37.2856213 C84.0113851,36.5793926 83.8063555,35.7941201 83.8063555,34.9297805 C83.8063555,34.0549001 84.0113851,33.265675 84.4214506,32.5620815 C84.8315161,31.8584879 85.3989854,31.3077432 86.1238753,30.9098307 C86.8487653,30.5119183 87.6583018,30.312965 88.5525092,30.312965 C89.4414254,30.312965 90.2483163,30.5119183 90.9732063,30.9098307 C91.6980963,31.3077432 92.2668883,31.8598055 92.6795994,32.5660342 C93.0923105,33.272263 93.2986629,34.0601705 93.2986629,34.9297805 C93.2986629,35.7941201 93.0923105,36.5793926 92.6795994,37.2856213 C92.2668883,37.99185 91.6980963,38.5452299 90.9732063,38.9457775 C90.2483163,39.3463252 89.4414254,39.546596 88.5525092,39.546596 Z M86.8699263,36.6610863 C87.3090932,37.1037969 87.8699485,37.3251488 88.5525092,37.3251488 C89.2350698,37.3251488 89.7959252,37.1024793 90.2350921,36.6571336 C90.674259,36.2117878 90.8938392,35.6360092 90.8938392,34.9297805 C90.8938392,34.2235518 90.674259,33.6477732 90.2350921,33.2024275 C89.7959252,32.7570817 89.2350698,32.5344122 88.5525092,32.5344122 C87.8699485,32.5344122 87.3090932,32.7570817 86.8699263,33.2024275 C86.4307593,33.6477732 86.2111792,34.2235518 86.2111792,34.9297805 C86.2111792,35.6360092 86.4307593,36.2131054 86.8699263,36.6610863 Z M105.50738,30.3524926 C106.417461,30.3524926 107.159536,30.6739799 107.733628,31.3169643 C108.307719,31.9599487 108.594761,32.7926536 108.594761,33.8151042 L108.594761,39.3015253 L106.221684,39.3015253 L106.221684,34.2103795 C106.221684,33.6253691 106.109248,33.1813476 105.884374,32.8783017 C105.659499,32.5752558 105.332774,32.4237351 104.90419,32.4237351 C104.375073,32.4237351 103.961045,32.6121478 103.662094,32.9889788 C103.363144,33.3658098 103.21367,33.8941558 103.21367,34.5740327 L103.21367,39.3015253 L100.904087,39.3015253 L100.904087,34.2103795 C100.904087,33.6253691 100.794297,33.1813476 100.574714,32.8783017 C100.35513,32.5752558 100.033696,32.4237351 99.6104031,32.4237351 C99.070704,32.4237351 98.6500624,32.6121478 98.3484659,32.9889788 C98.0468693,33.3658098 97.8960733,33.8941558 97.8960733,34.5740327 L97.8960733,39.3015253 L95.5229964,39.3015253 L95.5229964,30.5580357 L97.1738325,30.5580357 L97.6182884,31.64109 C97.9304673,31.2458128 98.3180395,30.9322308 98.7810167,30.7003348 C99.2439939,30.4684388 99.7294512,30.3524926 100.237403,30.3524926 C100.792976,30.3524926 101.292984,30.4750267 101.737442,30.7200986 C102.1819,30.9651705 102.531112,31.3090566 102.785088,31.7517671 C103.091976,31.3195973 103.484839,30.9783464 103.96369,30.7280041 C104.44254,30.4776618 104.957099,30.3524926 105.50738,30.3524926 Z" id="Combined-Shape"></path>
                        </g>
                    </g>
                </g>
                <g id="Group-9" transform="translate(179.000000, 3.000000)" fill="#FFFFFF">
                    <path d="M5,0 L40,0 C42.7614237,-5.07265313e-16 45,2.23857625 45,5 L45,40 C45,42.7614237 42.7614237,45 40,45 L5,45 C2.23857625,45 3.38176876e-16,42.7614237 0,40 L0,5 C-3.38176876e-16,2.23857625 2.23857625,5.07265313e-16 5,0 Z M5,1 C2.790861,1 1,2.790861 1,5 L1,40 C1,42.209139 2.790861,44 5,44 L40,44 C42.209139,44 44,42.209139 44,40 L44,5 C44,2.790861 42.209139,1 40,1 L5,1 Z" id="Combined-Shape" fill-rule="nonzero" opacity="0.6"></path>
                    <path d="M22,22 L22,1 L23,1 L23,22 L44,22 L44,23 L23,23 L23,44 L22,44 L22,23 L1,23 L1,22 L22,22 Z" id="Combined-Shape" fill-rule="nonzero" opacity="0.6"></path>
                    <path d="M7.008,7.264 C6.67733168,7.73333568 6.3253352,8.13866496 5.952,8.48 L8.256,8.48 C8.32000032,8.07466464 8.36799984,7.66933536 8.4,7.264 L7.008,7.264 Z M7.84,9.872 L4.864,9.872 L4.864,8.48 L5.584,8.48 L4.832,7.536 C5.58933712,6.86399664 6.234664,5.93067264 6.768,4.736 L8.128,5.024 C8.05333296,5.2373344 7.93066752,5.53599808 7.76,5.92 L12.144,5.92 L12.144,7.264 L9.856,7.264 C9.81333312,7.797336 9.77066688,8.20266528 9.728,8.48 L12.592,8.48 L12.592,9.872 L9.408,9.872 L9.344,10.096 C10.4960058,10.6826696 11.4986624,11.2906635 12.352,11.92 L11.408,12.88 L17.52,12.88 L17.52,19.68 L15.984,19.68 L15.984,19.056 L8.432,19.056 L8.432,19.68 L6.912,19.68 L6.912,13.104 C6.38933072,13.4240016 5.94666848,13.6693325 5.584,13.84 L4.56,12.608 C6.2133416,11.8719963 7.29599744,10.9813386 7.808,9.936 L7.84,9.872 Z M8.432,17.712 L15.984,17.712 L15.984,16.656 L8.432,16.656 L8.432,17.712 Z M8.432,15.344 L15.984,15.344 L15.984,14.224 L8.432,14.224 L8.432,15.344 Z M11.136,12.88 C10.5066635,12.3146638 9.74400448,11.7546694 8.848,11.2 C8.46399808,11.7973363 7.9253368,12.3573307 7.232,12.88 L11.136,12.88 Z M13.088,5.936 L18.688,5.936 L18.688,11.984 L13.088,11.984 L13.088,5.936 Z M17.2,10.656 L17.2,7.28 L14.576,7.28 L14.576,10.656 L17.2,10.656 Z M25.864,5.824 L32.248,5.824 L32.248,4.848 L33.752,4.848 L33.752,5.824 L40.136,5.824 L40.136,7.104 L33.752,7.104 L33.752,7.808 L38.776,7.808 L38.776,12.592 L38.216,12.592 C39.016004,13.2640034 39.6719974,13.8933304 40.184,14.48 L39.064,15.248 C38.7759986,14.8959982 38.498668,14.5760014 38.232,14.288 C35.757321,14.4586675 31.8106938,14.6186659 26.392,14.768 L26.2,13.44 L32.248,13.36 L32.248,12.592 L27.224,12.592 L27.224,7.808 L32.248,7.808 L32.248,7.104 L25.864,7.104 L25.864,5.824 Z M37.144,13.216 L36.696,12.8 L37.016,12.592 L33.752,12.592 L33.752,13.328 L37.144,13.216 Z M37.336,11.472 L37.336,10.688 L33.752,10.688 L33.752,11.472 L37.336,11.472 Z M32.248,11.472 L32.248,10.688 L28.664,10.688 L28.664,11.472 L32.248,11.472 Z M28.664,9.712 L32.248,9.712 L32.248,8.928 L28.664,8.928 L28.664,9.712 Z M33.752,8.928 L33.752,9.712 L37.336,9.712 L37.336,8.928 L33.752,8.928 Z M28.568,15.52 C28.1839981,16.8960069 27.6506701,18.0853283 26.968,19.088 L25.72,18.288 C26.4133368,17.3386619 26.9093318,16.3253387 27.208,15.248 L28.568,15.52 Z M31.032,19.392 C29.9759947,19.392 29.448,18.8800051 29.448,17.856 L29.448,15.184 L30.92,15.184 L30.92,17.536 C30.92,17.8453349 31.1066648,18 31.48,18 L35.016,18 C35.2400011,18 35.4053328,17.9306674 35.512,17.792 C35.6506674,17.6213325 35.7413331,17.1680037 35.784,16.432 L37.16,16.88 C37.0533328,18.0853394 36.8506682,18.8106654 36.552,19.056 C36.285332,19.2800011 35.8640029,19.392 35.288,19.392 L31.032,19.392 Z M33.176,14.784 C33.976004,15.5200037 34.5839979,16.1493307 35,16.672 L33.864,17.456 C33.4159978,16.8586637 32.8080038,16.2026702 32.04,15.488 L33.176,14.784 Z M37.976,14.88 C39.0000051,16.0320058 39.7999971,17.0666621 40.376,17.984 L39.176,18.784 C38.6106638,17.8453286 37.8266717,16.7840059 36.824,15.6 L37.976,14.88 Z M5.504,26.488 L18.528,26.488 L18.528,27.976 L12.704,27.976 L12.704,33.64 L19.136,33.64 L19.136,35.096 L12.704,35.096 L12.704,40.632 L11.168,40.632 L11.168,35.096 L4.864,35.096 L4.864,33.64 L11.168,33.64 L11.168,27.976 L5.504,27.976 L5.504,26.488 Z M7.744,28.728 C8.34133632,29.8586723 8.90133072,31.053327 9.424,32.312 L8,33.016 C7.47733072,31.6719933 6.91733632,30.4720053 6.32,29.416 L7.744,28.728 Z M17.776,29.32 C17.3279978,30.5146726 16.7253371,31.7199939 15.968,32.936 L14.592,32.232 C15.3386704,31.0266606 15.9359978,29.8373392 16.384,28.664 L17.776,29.32 Z M38.472,33.864 L38.472,40.664 L36.936,40.664 L36.936,40.008 L29.064,40.008 L29.064,40.664 L27.528,40.664 L27.528,33.864 L38.472,33.864 Z M29.064,38.552 L36.936,38.552 L36.936,35.32 L29.064,35.32 L29.064,38.552 Z M26.2,30.936 C27.4160061,30.669332 29.0959893,28.9626824 31.24,25.816 L32.824,26.36 C31.5226602,28.1626757 30.20534,29.6666606 28.872,30.872 C31.4960131,30.7759995 34.1253202,30.6053346 36.76,30.36 C36.3226645,29.7093301 35.800003,28.9946706 35.192,28.216 L36.568,27.56 C37.8800066,29.1706747 39.1119942,30.9359904 40.264,32.856 L38.776,33.592 C38.3706646,32.8773298 37.997335,32.2480027 37.656,31.704 C34.3173166,31.9920014 30.5946872,32.2159992 26.488,32.376 L26.2,30.936 Z" id="Combined-Shape"></path>
                </g>
            </g>
        </g>
    </g>
</svg>