<?xml version="1.0" encoding="UTF-8"?>
<svg width="50px" height="50px" viewBox="0 0 50 50" version="1.1" xmlns="http://www.w3.org/2000/svg" xmlns:xlink="http://www.w3.org/1999/xlink">
    <!-- Generator: Sketch 52.5 (67469) - http://www.bohemiancoding.com/sketch -->
    <title>查全文icon50x50</title>
    <desc>Created with Sketch.</desc>
    <defs>
        <linearGradient x1="2.44309971%" y1="2.44309971%" x2="97.9668303%" y2="97.9668303%" id="linearGradient-1">
            <stop stop-color="#88AAFA" offset="0%"></stop>
            <stop stop-color="#4779F9" offset="100%"></stop>
        </linearGradient>
    </defs>
    <g id="智惠平台-风险查询" stroke="none" stroke-width="1" fill="none" fill-rule="evenodd">
        <g id="查询首页/企业" transform="translate(-30.000000, -354.000000)" fill-rule="nonzero">
            <g id="查全文icon50x50" transform="translate(30.000000, 354.000000)">
                <path d="M22.8281025,0.0804406478 L25,0 L27.1718975,0.0804406478 C33.1796526,0.302950098 36.6704807,1.26382554 39.7750527,2.97073351 C42.8796248,4.67764148 45.3223585,7.12037523 47.0292665,10.2249473 C48.7361745,13.3295193 49.6970499,16.8203474 49.9195594,22.8281025 L50,25 L49.9195594,27.1718975 C49.6970499,33.1796526 48.7361745,36.6704807 47.0292665,39.7750527 C45.3223585,42.8796248 42.8796248,45.3223585 39.7750527,47.0292665 C36.6704807,48.7361745 33.1796526,49.6970499 27.1718975,49.9195594 L25,50 L22.8281025,49.9195594 C16.8203474,49.6970499 13.3295193,48.7361745 10.2249473,47.0292665 C7.12037523,45.3223585 4.67764148,42.8796248 2.97073351,39.7750527 C1.26382554,36.6704807 0.302950098,33.1796526 0.0804406478,27.1718975 L1.73472348e-16,25 L0.0804406478,22.8281025 C0.302950098,16.8203474 1.26382554,13.3295193 2.97073351,10.2249473 C4.67764148,7.12037523 7.12037523,4.67764148 10.2249473,2.97073351 C13.3295193,1.26382554 16.8203474,0.302950098 22.8281025,0.0804406478 Z" id="Rectangle" fill="url(#linearGradient-1)"></path>
                <g id="Group-10" transform="translate(13.000000, 13.000000)" fill="#FFFFFF">
                    <path d="M3,10 L5,10 L5,24 L3,24 L3,10 Z M7,4 L9,4 L9,9 L7,9 L7,4 Z M13,22 L13,8 L3,12 L3,10 L13,6 L15,7.89473684 L15,24 L13,24 L5,24 L1,24 C0.44771525,24 6.76353751e-17,23.5522847 0,23 C-6.76353751e-17,22.4477153 0.44771525,22 1,22 L5,22 L13,22 Z M18,8.52651283e-14 L19.5407576,0.990487023 C19.8269801,1.17448723 20,1.49140174 20,1.8316655 L20,10 C20,10.5522847 19.5522847,11 19,11 C18.4477153,11 18,10.5522847 18,10 L18,2 L7,6 L7,4 L18,2.84217094e-14 Z M8.10866309,17.5589734 L10.2441201,17.1910266 C10.7599394,17.1021491 11.250143,17.4482538 11.3390205,17.9640731 C11.3481789,18.017226 11.3527832,18.0710638 11.3527832,18.125 C11.3527832,18.7750396 10.88472,19.330649 10.2441201,19.4410266 L8.10866309,19.8089734 C7.59284382,19.8978509 7.10264023,19.5517462 7.01376274,19.0359269 C7.0046043,18.982774 7,18.9289362 7,18.875 C7,18.2249604 7.46806321,17.669351 8.10866309,17.5589734 Z M8.10866309,13.5589734 L10.2441201,13.1910266 C10.7599394,13.1021491 11.250143,13.4482538 11.3390205,13.9640731 C11.3481789,14.017226 11.3527832,14.0710638 11.3527832,14.125 C11.3527832,14.7750396 10.88472,15.330649 10.2441201,15.4410266 L8.10866309,15.8089734 C7.59284382,15.8978509 7.10264023,15.5517462 7.01376274,15.0359269 C7.0046043,14.982774 7,14.9289362 7,14.875 C7,14.2249604 7.46806321,13.669351 8.10866309,13.5589734 Z" id="Combined-Shape"></path>
                    <path d="M18.8571429,17 L21,17 L24,17 L19,24 L18,24 L20.1428571,19 L18,19 L15,19 L20,12 L21,12 L18.8571429,17 Z" id="Combined-Shape"></path>
                </g>
            </g>
        </g>
    </g>
</svg>