<?xml version="1.0" encoding="UTF-8"?>
<svg width="50px" height="50px" viewBox="0 0 50 50" version="1.1" xmlns="http://www.w3.org/2000/svg" xmlns:xlink="http://www.w3.org/1999/xlink">
    <!-- Generator: Sketch 52.5 (67469) - http://www.bohemiancoding.com/sketch -->
    <title>关联风险icon50x50</title>
    <desc>Created with Sketch.</desc>
    <defs>
        <linearGradient x1="98.5522471%" y1="97.5860495%" x2="3.49548341%" y2="3.461214%" id="linearGradient-1">
            <stop stop-color="#6E60EF" offset="0%"></stop>
            <stop stop-color="#C279EC" offset="100%"></stop>
        </linearGradient>
    </defs>
    <g id="智惠平台-风险查询" stroke="none" stroke-width="1" fill="none" fill-rule="evenodd">
        <g id="查询首页/企业" transform="translate(-118.000000, -354.000000)" fill-rule="nonzero">
            <g id="关联风险icon50x50" transform="translate(118.000000, 354.000000)">
                <path d="M22.8281025,0.0804406478 L25,0 L27.1718975,0.0804406478 C33.1796526,0.302950098 36.6704807,1.26382554 39.7750527,2.97073351 C42.8796248,4.67764148 45.3223585,7.12037523 47.0292665,10.2249473 C48.7361745,13.3295193 49.6970499,16.8203474 49.9195594,22.8281025 L50,25 L49.9195594,27.1718975 C49.6970499,33.1796526 48.7361745,36.6704807 47.0292665,39.7750527 C45.3223585,42.8796248 42.8796248,45.3223585 39.7750527,47.0292665 C36.6704807,48.7361745 33.1796526,49.6970499 27.1718975,49.9195594 L25,50 L22.8281025,49.9195594 C16.8203474,49.6970499 13.3295193,48.7361745 10.2249473,47.0292665 C7.12037523,45.3223585 4.67764148,42.8796248 2.97073351,39.7750527 C1.26382554,36.6704807 0.302950098,33.1796526 0.0804406478,27.1718975 L1.73472348e-16,25 L0.0804406478,22.8281025 C0.302950098,16.8203474 1.26382554,13.3295193 2.97073351,10.2249473 C4.67764148,7.12037523 7.12037523,4.67764148 10.2249473,2.97073351 C13.3295193,1.26382554 16.8203474,0.302950098 22.8281025,0.0804406478 Z" id="Rectangle" fill="url(#linearGradient-1)"></path>
                <g id="Group-7" transform="translate(13.000000, 13.000000)" fill="#FFFFFF">
                    <path d="M17.8571429,16 L20,16 L23,16 L18,23 L17,23 L19.1428571,18 L17,18 L14,18 L19,11 L20,11 L17.8571429,16 Z" id="Combined-Shape"></path>
                    <rect id="Rectangle" x="1" y="7" width="22" height="2" rx="1"></rect>
                    <rect id="Rectangle" transform="translate(5.000000, 5.000000) rotate(45.000000) translate(-5.000000, -5.000000) " x="4" y="0" width="2" height="10" rx="1"></rect>
                    <rect id="Rectangle" transform="translate(6.000000, 14.000000) rotate(45.000000) translate(-6.000000, -14.000000) " x="5" y="9" width="2" height="10" rx="1"></rect>
                    <path d="M3,16 L13,16 C13.5522847,16 14,16.4477153 14,17 L14,17 C14,17.5522847 13.5522847,18 13,18 L3,18 C2.44771525,18 2,17.5522847 2,17 L2,17 C2,16.4477153 2.44771525,16 3,16 Z" id="Rectangle"></path>
                </g>
            </g>
        </g>
    </g>
</svg>