<?xml version="1.0" encoding="UTF-8"?>
<svg width="50px" height="50px" viewBox="0 0 50 50" version="1.1" xmlns="http://www.w3.org/2000/svg" xmlns:xlink="http://www.w3.org/1999/xlink">
    <!-- Generator: Sketch 52.5 (67469) - http://www.bohemiancoding.com/sketch -->
    <title>个人风险icon50x50</title>
    <desc>Created with Sketch.</desc>
    <defs>
        <linearGradient x1="2.23311055%" y1="2.23311055%" x2="95.9027147%" y2="95.9027147%" id="linearGradient-1">
            <stop stop-color="#F58D81" offset="0%"></stop>
            <stop stop-color="#E7463A" offset="100%"></stop>
        </linearGradient>
    </defs>
    <g id="智惠平台-风险查询" stroke="none" stroke-width="1" fill="none" fill-rule="evenodd">
        <g id="查询首页/企业" transform="translate(-206.000000, -354.000000)" fill-rule="nonzero">
            <g id="个人风险icon50x50" transform="translate(206.000000, 354.000000)">
                <path d="M22.8281025,0.0804406478 L25,0 L27.1718975,0.0804406478 C33.1796526,0.302950098 36.6704807,1.26382554 39.7750527,2.97073351 C42.8796248,4.67764148 45.3223585,7.12037523 47.0292665,10.2249473 C48.7361745,13.3295193 49.6970499,16.8203474 49.9195594,22.8281025 L50,25 L49.9195594,27.1718975 C49.6970499,33.1796526 48.7361745,36.6704807 47.0292665,39.7750527 C45.3223585,42.8796248 42.8796248,45.3223585 39.7750527,47.0292665 C36.6704807,48.7361745 33.1796526,49.6970499 27.1718975,49.9195594 L25,50 L22.8281025,49.9195594 C16.8203474,49.6970499 13.3295193,48.7361745 10.2249473,47.0292665 C7.12037523,45.3223585 4.67764148,42.8796248 2.97073351,39.7750527 C1.26382554,36.6704807 0.302950098,33.1796526 0.0804406478,27.1718975 L1.73472348e-16,25 L0.0804406478,22.8281025 C0.302950098,16.8203474 1.26382554,13.3295193 2.97073351,10.2249473 C4.67764148,7.12037523 7.12037523,4.67764148 10.2249473,2.97073351 C13.3295193,1.26382554 16.8203474,0.302950098 22.8281025,0.0804406478 Z" id="Rectangle" fill="url(#linearGradient-1)"></path>
                <g id="Group-2" transform="translate(13.000000, 13.000000)" fill="#FFFFFF">
                    <path d="M12,12 C8.6862915,12 6,9.3137085 6,6 C6,2.6862915 8.6862915,0 12,0 C15.3137085,0 18,2.6862915 18,6 C18,9.3137085 15.3137085,12 12,12 Z M12,10 C14.209139,10 16,8.209139 16,6 C16,3.790861 14.209139,2 12,2 C9.790861,2 8,3.790861 8,6 C8,8.209139 9.790861,10 12,10 Z" id="Combined-Shape"></path>
                    <path d="M18.9999636,12.0001091 L18.3333333,14 L5.32914449,14 C4.70815966,14 4.15137947,14.3826407 3.92880491,14.9623672 L2.00915328,19.9623672 C1.94327414,20.1339585 1.90949286,20.3161967 1.90949286,20.5 C1.90949286,21.3284271 2.58106573,22 3.40949286,22 L15.6666667,22 L15,24 L3.13652564,24 C1.47967139,24 0.136525641,22.6568542 0.136525641,21 C0.136525641,20.7014493 0.181090548,20.4045708 0.268747206,20.1191783 L2.11161278,14.1191783 C2.49846074,12.8596791 3.66182162,12 4.97939121,12 L18.974277,12 C18.9828458,12 18.9914081,12.0000364 18.9999637,12.000109 Z" id="Combined-Shape"></path>
                    <rect id="Rectangle" x="14" y="22" width="3" height="2" rx="1"></rect>
                    <path d="M7.67703296,19 L8,19 C8.37391498,19 8.67703296,19.303118 8.67703296,19.677033 C8.67703296,19.7631647 8.66059785,19.8485054 8.62860932,19.9284767 L7.25144373,23.3713907 C7.09958038,23.7510491 6.73187163,24 6.32296704,24 L6,24 C5.62608502,24 5.32296704,23.696882 5.32296704,23.322967 C5.32296704,23.2368353 5.33940215,23.1514946 5.37139068,23.0715233 L6.74855627,19.6286093 C6.90041962,19.2489509 7.26812837,19 7.67703296,19 Z" id="Rectangle"></path>
                    <path d="M18.7211979,16.9979553 L21,16.9979553 L24,16.9979553 L19,23.9979553 L18,23.9979553 L20.1428571,18.9979553 L18,18.9979553 L15,18.9979553 L19,11.9979553 L20.5234553,12 L18.7211979,16.9979553 Z" id="Combined-Shape"></path>
                </g>
            </g>
        </g>
    </g>
</svg>