<?xml version="1.0" encoding="UTF-8"?>
<svg width="5px" height="10px" viewBox="0 0 5 10" version="1.1" xmlns="http://www.w3.org/2000/svg" xmlns:xlink="http://www.w3.org/1999/xlink">
    <!-- Generator: Sketch 52.5 (67469) - http://www.bohemiancoding.com/sketch -->
    <title>right</title>
    <desc>Created with Sketch.</desc>
    <g id="智惠平台-风险查询" stroke="none" stroke-width="1" fill="none" fill-rule="evenodd">
        <g id="查询首页" transform="translate(-292.000000, -61.000000)" fill="#FFFFFF" fill-rule="nonzero">
            <g id="购买套餐" transform="translate(213.000000, 51.000000)">
                <path d="M82.876113,15 L79.1087635,10.8605044 C78.9351428,10.6697331 78.9351428,10.3781949 79.1087635,10.1874236 L79.1396687,10.1534655 C79.3091519,9.9672405 79.5975103,9.95366853 79.7837353,10.1231517 C79.7943096,10.1327754 79.8044254,10.1428911 79.8140491,10.1534655 L83.8912365,14.6334054 C83.9852629,14.7367199 84.0283681,14.8695883 84.0205522,15 C84.0283681,15.1304117 83.9852629,15.2632801 83.8912365,15.3665946 L79.8140491,19.8465345 C79.644566,20.0327595 79.3562076,20.0463315 79.1699826,19.8768483 C79.1594082,19.8672246 79.1492924,19.8571089 79.1396687,19.8465345 L79.1087635,19.8125764 C78.9351428,19.6218051 78.9351428,19.3302669 79.1087635,19.1394956 L82.876113,15 Z" id="right"></path>
            </g>
        </g>
    </g>
</svg>