<?xml version="1.0" encoding="UTF-8"?>
<svg width="7px" height="13px" viewBox="0 0 7 13" version="1.1" xmlns="http://www.w3.org/2000/svg" xmlns:xlink="http://www.w3.org/1999/xlink">
    <!-- Generator: Sketch 52.5 (67469) - http://www.bohemiancoding.com/sketch -->
    <title>Group 5</title>
    <desc>Created with Sketch.</desc>
    <g id="智惠平台-风险查询" stroke="none" stroke-width="1" fill="none" fill-rule="evenodd">
        <g id="查询首页/企业" transform="translate(-334.000000, -65.000000)" fill="#4285F4" fill-rule="nonzero">
            <g id="Group-5" transform="translate(333.000000, 65.000000)">
                <path d="M1,8.3890873 L8,8.3890873 C8.55228475,8.3890873 9,8.83680255 9,9.3890873 L9,9.3890873 C9,9.94137205 8.55228475,10.3890873 8,10.3890873 L1,10.3890873 C0.44771525,10.3890873 6.76353751e-17,9.94137205 0,9.3890873 L0,9.3890873 C-6.76353751e-17,8.83680255 0.44771525,8.3890873 1,8.3890873 Z" id="Rectangle" transform="translate(4.500000, 9.389087) rotate(-45.000000) translate(-4.500000, -9.389087) "></path>
                <path d="M1,3.2990873 L8,3.2990873 C8.55228475,3.2990873 9,3.74680255 9,4.2990873 L9,4.2990873 C9,4.85137205 8.55228475,5.2990873 8,5.2990873 L1,5.2990873 C0.44771525,5.2990873 6.76353751e-17,4.85137205 0,4.2990873 L0,4.2990873 C-6.76353751e-17,3.74680255 0.44771525,3.2990873 1,3.2990873 Z" id="Rectangle" transform="translate(4.500000, 4.299087) rotate(45.000000) translate(-4.500000, -4.299087) "></path>
            </g>
        </g>
    </g>
</svg>