<?xml version="1.0" encoding="UTF-8"?>
<svg width="18px" height="20px" viewBox="0 0 18 20" version="1.1" xmlns="http://www.w3.org/2000/svg" xmlns:xlink="http://www.w3.org/1999/xlink">
    <!-- Generator: Sketch 52.6 (67491) - http://www.bohemiancoding.com/sketch -->
    <title>图标/联系我们</title>
    <desc>Created with Sketch.</desc>
    <defs>
        <linearGradient x1="0%" y1="0%" x2="100%" y2="100%" id="linearGradient-1">
            <stop stop-color="#699AFF" offset="0%"></stop>
            <stop stop-color="#3861FF" offset="100%"></stop>
        </linearGradient>
        <linearGradient x1="100%" y1="100%" x2="0%" y2="0%" id="linearGradient-2">
            <stop stop-color="#FF3434" offset="0%"></stop>
            <stop stop-color="#FF7979" offset="100%"></stop>
        </linearGradient>
    </defs>
    <g id="图标/联系我们" stroke="none" stroke-width="1" fill="none" fill-rule="evenodd">
        <g id="联系我们">
            <polygon id="Path" points="0 0 18 0 18 20 0 20"></polygon>
            <g id="Group-9" transform="translate(0.000000, 1.000000)">
                <path d="M14.0500547,1.89319922 C14.5069102,2.27390625 14.5339453,2.97383203 14.1134062,3.39437109 C13.7502773,3.7575 13.1736797,3.78639844 12.7734258,3.46802344 C11.7177187,2.629125 10.3549219,2.16720703 9,2.16720703 C7.64507812,2.16720703 6.28228125,2.629125 5.22657422,3.46805859 C4.82301562,3.789 4.24824609,3.75605859 3.88659375,3.39440625 C3.46521094,2.97302344 3.49400391,2.27316797 3.94994531,1.89323438 C5.40938672,0.677847656 7.17901172,2.44249065e-14 9,2.44249065e-14 C10.8209883,2.44249065e-14 12.5906133,0.677847656 14.0500547,1.89319922 Z M4.21875,6.36328125 C4.80125391,6.36328125 5.2734375,6.83546484 5.2734375,7.41796875 L5.2734375,12.6914062 C5.2734375,13.2738398 4.80125391,13.7460938 4.21875,13.7460938 C3.63624609,13.7460938 3.1640625,13.2738398 3.1640625,12.6914062 L3.1640625,7.41796875 C3.1640625,6.83546484 3.63624609,6.36328125 4.21875,6.36328125 Z M13.78125,6.36328125 C14.3637539,6.36328125 14.8359375,6.83546484 14.8359375,7.41796875 L14.8359375,12.6914062 C14.8359375,13.2738398 14.3637539,13.7460938 13.78125,13.7460938 C13.1987461,13.7460938 12.7265625,13.2738398 12.7265625,12.6914062 L12.7265625,7.41796875 C12.7265625,6.83546484 13.1987461,6.36328125 13.78125,6.36328125 Z M15.4293047,3.04446094 C16.428832,4.18310156 17.1873633,5.58611719 17.6131758,7.14948047 C16.9601836,6.64238672 16.1401289,6.35575781 15.2430117,6.38117578 C14.9350078,5.73887109 14.5618945,5.13812109 14.1183633,4.60937109 C14.3928633,4.507875 14.6464102,4.35311719 14.8591055,4.14010547 C15.1589531,3.84022266 15.3538594,3.45554297 15.4293047,3.04446094 Z M3.14089453,4.14010547 C3.35376563,4.35297656 3.60727734,4.507875 3.88149609,4.60958203 C3.43796484,5.13826172 3.06520313,5.73894141 2.75691797,6.38117578 C1.85987109,6.35582813 1.03981641,6.64242188 0.386824219,7.14941016 C0.812671875,5.58611719 1.57109766,4.18324219 2.57055469,3.04460156 C2.646,3.45575391 2.8411875,3.84039844 3.14089453,4.14010547 Z M-3.55271368e-15,10.0546875 C-3.55271368e-15,8.78146875 0.907347656,7.71633984 2.109375,7.47133594 L2.109375,12.6380391 C0.907347656,12.3930352 -3.55271368e-15,11.3279063 -3.55271368e-15,10.0546875 Z" id="Combined-Shape" fill="url(#linearGradient-1)"></path>
                <path d="M15.890625,7.47133594 L15.890625,12.6380391 C16.2824063,12.5581992 16.6373437,12.3842812 16.9453125,12.1513711 L16.9453125,13.21875 C16.9453125,15.2539805 15.2891367,16.9453125 13.2539062,16.9453125 L11.5747383,16.9453125 C11.6338359,16.7795508 11.671875,16.6037344 11.671875,16.4179687 C11.671875,15.5456016 10.9622109,14.8359375 10.0898438,14.8359375 L7.91015625,14.8359375 C7.03778906,14.8359375 6.328125,15.5456016 6.328125,16.4179687 C6.328125,17.2903359 7.03778906,18 7.91015625,18 C10.2210117,18 10.9821094,18 13.2539062,18 C15.871043,18 18,15.8358867 18,13.21875 L18,10.0546875 C18,8.78146875 17.0926523,7.71633984 15.890625,7.47133594 Z" id="Path" fill="url(#linearGradient-2)"></path>
            </g>
        </g>
    </g>
</svg>