<?xml version="1.0" encoding="UTF-8"?>
<svg width="18px" height="20px" viewBox="0 0 18 20" version="1.1" xmlns="http://www.w3.org/2000/svg" xmlns:xlink="http://www.w3.org/1999/xlink">
    <!-- Generator: Sketch 52.6 (67491) - http://www.bohemiancoding.com/sketch -->
    <title>图标/我的订单</title>
    <desc>Created with Sketch.</desc>
    <defs>
        <linearGradient x1="0%" y1="0%" x2="100%" y2="100%" id="linearGradient-1">
            <stop stop-color="#699AFF" offset="0%"></stop>
            <stop stop-color="#3861FF" offset="100%"></stop>
        </linearGradient>
        <linearGradient x1="100%" y1="100%" x2="0%" y2="0%" id="linearGradient-2">
            <stop stop-color="#FF3434" offset="0%"></stop>
            <stop stop-color="#FF7979" offset="100%"></stop>
        </linearGradient>
    </defs>
    <g id="图标/我的订单" stroke="none" stroke-width="1" fill="none" fill-rule="evenodd">
        <g id="我的订单" fill-rule="nonzero">
            <polygon id="Path" points="0 0 18 0 18 20 0 20"></polygon>
            <g id="Group-10">
                <path d="M14,0 L15,0 C16.6568542,-3.04359188e-16 18,1.34314575 18,3 L18,17 C18,18.6568542 16.6568542,20 15,20 L3,20 C1.34314575,20 -2.41183085e-16,18.6568542 -4.4408921e-16,17 L0,3 C-2.02906125e-16,1.34314575 1.34314575,3.04359188e-16 3,0 L4,0 C4.55228475,-1.01453063e-16 5,0.44771525 5,1 C5,1.55228475 4.55228475,2 4,2 C2.8954305,2 2,2.8954305 2,4 L2,16 C2,17.1045695 2.8954305,18 4,18 L14,18 C15.1045695,18 16,17.1045695 16,16 L16,4 C16,2.8954305 15.1045695,2 14,2 C13.4477153,2 13,1.55228475 13,1 C13,0.44771525 13.4477153,1.01453063e-16 14,0 Z M7.5,0 L10.5,0 C11.3284271,-1.52179594e-16 12,0.671572875 12,1.5 C12,2.32842712 11.3284271,3 10.5,3 L7.5,3 C6.67157288,3 6,2.32842712 6,1.5 C6,0.671572875 6.67157288,1.52179594e-16 7.5,0 Z" id="Combined-Shape" fill="url(#linearGradient-1)"></path>
                <rect id="Rectangle" fill="url(#linearGradient-2)" x="4" y="6" width="10" height="3" rx="1.5"></rect>
                <rect id="Rectangle" fill="url(#linearGradient-2)" x="4" y="12" width="8" height="2" rx="1"></rect>
            </g>
        </g>
    </g>
</svg>