<?xml version="1.0" encoding="UTF-8"?>
<svg width="30px" height="30px" viewBox="0 0 30 30" version="1.1" xmlns="http://www.w3.org/2000/svg" xmlns:xlink="http://www.w3.org/1999/xlink">
    <!-- Generator: Sketch 52.6 (67491) - http://www.bohemiancoding.com/sketch -->
    <title>phone</title>
    <desc>Created with Sketch.</desc>
    <g id="我的" stroke="none" stroke-width="1" fill="none" fill-rule="evenodd">
        <g id="联系我们" transform="translate(-278.000000, -326.000000)">
            <g id="phone" transform="translate(278.000000, 326.000000)">
                <g id="Group" transform="translate(0.000000, 2.500000)">
                    <path d="M26.2375,20.972 C25.2885,19.1785 21.788,17.127 21.788,17.127 C20.996,16.6755 20.0405,16.625 19.5885,17.43 C19.5885,17.43 18.4515,18.794 18.162,18.99 C16.8405,19.8855 15.6165,19.851 14.381,18.615 L11.5095,15.7435 L8.638,12.872 C7.402,11.636 7.3675,10.4125 8.263,9.091 C8.459,8.8015 9.823,7.6645 9.823,7.6645 C10.6275,7.2125 10.5775,6.257 10.126,5.465 C10.126,5.465 8.0745,1.9645 6.281,1.0155 C5.518,0.6115 4.581,0.7525 3.9705,1.363 L2.702,2.6315 C-1.3205,6.654 0.66,11.196 4.6825,15.2185 L8.359,18.895 L12.0355,22.5715 C16.058,26.594 20.6,28.575 24.6225,24.552 L25.891,23.2835 C26.5005,22.6725 26.6415,21.735 26.2375,20.972 Z" id="Path" fill="#52C306"></path>
                    <path d="M19.827,27.255 C19.3,27.255 18.763,27.1915 18.215,27.065 C16.149,26.5875 13.9505,25.1945 11.681,22.9245 L4.3285,15.571 C-0.668,10.575 -1.353,5.9785 2.3475,2.2775 L3.616,1.009 C4.3865,0.238 5.5495,0.0635 6.514,0.573 C8.412,1.577 10.47,5.0635 10.5565,5.2115 C10.9235,5.855 11.0385,6.5155 10.883,7.077 C10.766,7.4995 10.499,7.843 10.11,8.075 C9.5,8.585 8.787,9.2175 8.6755,9.3725 C7.874,10.5545 7.9685,11.496 8.991,12.5185 L14.734,18.2615 C15.7555,19.283 16.696,19.378 17.8815,18.576 C18.034,18.4655 18.6665,17.753 19.1775,17.1425 C19.409,16.7535 19.753,16.4865 20.175,16.3695 C20.737,16.213 21.3975,16.3285 22.0355,16.6925 C22.189,16.7825 25.6755,18.841 26.6795,20.7385 C27.1895,21.7015 27.014,22.866 26.2435,23.6365 L24.975,24.905 C23.4115,26.468 21.6855,27.255 19.827,27.255 Z M5.3585,1.2845 C4.9795,1.2845 4.6065,1.4325 4.3235,1.7155 L3.055,2.984 C-0.229,6.2685 0.4375,10.2655 5.036,14.864 L12.3885,22.217 C16.987,26.816 20.984,27.4815 24.2685,24.1975 L25.537,22.929 C25.995,22.471 26.099,21.7785 25.7965,21.206 C25.0725,19.838 22.475,18.109 21.536,17.558 C21.148,17.3365 20.736,17.2535 20.4435,17.333 C20.2635,17.3835 20.1265,17.495 20.0255,17.675 L19.9735,17.7505 C19.618,18.177 18.757,19.191 18.4435,19.404 C16.8685,20.4705 15.3835,20.3245 14.028,18.969 L8.284,13.2255 C6.928,11.87 6.7815,10.384 7.8485,8.81 C8.061,8.4965 9.076,7.6355 9.5025,7.2795 L9.5775,7.2275 C9.7575,7.1265 9.8695,6.9895 9.9195,6.8095 C10.001,6.5155 9.9155,6.105 9.691,5.7115 C9.6745,5.683 7.6935,2.3275 6.0465,1.456 C5.828,1.341 5.5915,1.2845 5.3585,1.2845 Z" id="Shape" fill="#388F04" fill-rule="nonzero"></path>
                </g>
                <path d="M19.999,24.254 C19.982,24.254 19.9645,24.253 19.947,24.2515 C16.4995,23.8935 14.2425,21.703 14.1475,21.61 C13.951,21.4165 13.949,21.1005 14.142,20.904 C14.335,20.7065 14.6515,20.704 14.849,20.8975 C14.8695,20.9175 16.9625,22.936 20.05,23.2565 C20.3245,23.2855 20.524,23.531 20.496,23.806 C20.469,24.0625 20.252,24.254 19.999,24.254 Z" id="Path" fill="#388F04"></path>
                <path d="M8.998,16.254 C8.886,16.254 8.774,16.2165 8.6805,16.1395 C8.566,16.0455 5.8615,13.782 5.501,10.3055 C5.4725,10.0305 5.6725,9.785 5.947,9.756 C6.223,9.7315 6.4675,9.9275 6.4965,10.202 C6.814,13.262 9.2925,15.3475 9.3175,15.368 C9.53,15.5445 9.56,15.859 9.3845,16.072 C9.2845,16.192 9.142,16.254 8.998,16.254 Z" id="Path" fill="#388F04"></path>
                <g id="Group" transform="translate(13.000000, 0.000000)" fill="#EFCE4A">
                    <path d="M0.681,0.2435 C0.4045,0.2435 0.181,0.467 0.181,0.7435 C0.181,1.02 0.4045,1.2435 0.681,1.2435 C9.127,1.2435 15.9985,8.115 15.9985,16.561 C15.9985,16.8375 16.222,17.061 16.4985,17.061 C16.775,17.061 16.9985,16.8375 16.9985,16.561 C16.9985,7.5635 9.6785,0.2435 0.681,0.2435 Z" id="Path"></path>
                    <path d="M0.681,3.7585 C0.4045,3.7585 0.181,3.982 0.181,4.2585 C0.181,4.535 0.4045,4.7585 0.681,4.7585 C7.189,4.7585 12.483,10.053 12.483,16.5605 C12.483,16.837 12.7065,17.0605 12.983,17.0605 C13.2595,17.0605 13.483,16.837 13.483,16.5605 C13.4835,9.502 7.74,3.7585 0.681,3.7585 Z" id="Path"></path>
                    <path d="M0.681,7.2735 C0.4045,7.2735 0.181,7.497 0.181,7.7735 C0.181,8.05 0.4045,8.2735 0.681,8.2735 C5.251,8.2735 8.9685,11.9915 8.9685,16.561 C8.9685,16.8375 9.192,17.061 9.4685,17.061 C9.745,17.061 9.9685,16.8375 9.9685,16.561 C9.9685,11.44 5.802,7.2735 0.681,7.2735 Z" id="Path"></path>
                </g>
            </g>
        </g>
    </g>
</svg>