<?xml version="1.0" encoding="UTF-8"?>
<svg width="54px" height="54px" viewBox="0 0 54 54" version="1.1" xmlns="http://www.w3.org/2000/svg" xmlns:xlink="http://www.w3.org/1999/xlink">
    <!-- Generator: Sketch 52.6 (67491) - http://www.bohemiancoding.com/sketch -->
    <title>Group 26</title>
    <desc>Created with Sketch.</desc>
    <g id="我的" stroke="none" stroke-width="1" fill="none" fill-rule="evenodd">
        <g id="分享给朋友" transform="translate(-204.000000, -647.000000)">
            <g id="Group-26" transform="translate(204.000000, 647.000000)">
                <circle id="Oval" fill="#FFFFFF" fill-rule="nonzero" cx="27" cy="27" r="27"></circle>
                <g id="qq-penguin-shape" transform="translate(12.000000, 11.000000)" fill="#17BCFB">
                    <path d="M24.694,13.182 C24.962,12.267 25.11,11.302 25.11,10.301 C25.11,4.612 20.5,0 14.81,0 C9.122,0 4.51,4.611 4.51,10.301 C4.51,11.302 4.659,12.267 4.926,13.182 C3.629,14.224 -1.405,18.739 0.666,24.594 C0.666,24.594 2.418,24.444 3.857,21.783 C4.294,23.486 5.108,25.033 6.218,26.326 C4.592,26.805 3.489,27.734 3.489,28.8 C3.489,30.356 5.837,31.617 8.732,31.617 C10.697,31.617 12.408,31.035 13.305,30.177 C13.799,30.242 14.297,30.287 14.808,30.287 C15.32,30.287 15.819,30.242 16.311,30.177 C17.21,31.035 18.92,31.617 20.885,31.617 C23.781,31.617 26.13,30.355 26.13,28.8 C26.13,27.735 25.026,26.805 23.4,26.326 C24.509,25.033 25.325,23.486 25.762,21.783 C27.2,24.443 28.95,24.594 28.95,24.594 C31.024,18.738 25.99,14.223 24.694,13.182 Z" id="Path"></path>
                </g>
            </g>
        </g>
    </g>
</svg>