<?xml version="1.0" encoding="UTF-8"?>
<svg width="54px" height="54px" viewBox="0 0 54 54" version="1.1" xmlns="http://www.w3.org/2000/svg" xmlns:xlink="http://www.w3.org/1999/xlink">
    <!-- Generator: Sketch 52.6 (67491) - http://www.bohemiancoding.com/sketch -->
    <title>Group 27</title>
    <desc>Created with Sketch.</desc>
    <g id="我的" stroke="none" stroke-width="1" fill="none" fill-rule="evenodd">
        <g id="分享给朋友" transform="translate(-117.000000, -647.000000)">
            <g id="Group-27" transform="translate(117.000000, 647.000000)">
                <circle id="Oval" fill="#FFFFFF" fill-rule="nonzero" cx="27" cy="27" r="27"></circle>
                <g id="65040cfe9e" transform="translate(12.000000, 12.000000)">
                    <path d="M14.9948817,0.00678887695 C14.4365255,-0.0170863786 13.8772574,0.0220623855 13.3276727,0.123493506 C11.9942012,0.245665735 10.6856155,0.56129885 9.44307557,1.06046499 C9.44307557,1.06046499 19.5863755,11.0637194 19.8197848,11.3971612 L19.8197848,0.830390156 C19.5219699,0.700025751 19.2038402,0.622185514 18.8794789,0.600315293 C17.6219679,0.207645457 16.3122742,0.00753775455 14.9948817,0.00678887695 Z" id="Path" fill="#F77557"></path>
                    <path d="M25.6183379,4.34153244 C25.2138761,3.91909852 24.7780476,3.52785605 24.3145804,3.17115167 C23.2738502,2.34687475 22.1221558,1.67336923 20.8934674,1.1705008 C20.8934674,1.1705008 21.0101721,15.398463 20.8934674,15.8619471 L28.4425901,8.34283421 C28.3258854,8.11275935 28.1091483,7.74930779 27.9624339,7.51923293 C27.3618846,6.34042641 26.5735565,5.26717396 25.6283412,4.34153244 L25.6183379,4.34153244 Z" id="Path" fill="#6D5AEF"></path>
                    <path d="M28.9060742,9.52655265 C28.9060742,9.52655265 18.8761445,19.6365084 18.529365,19.8632488 L29.2695258,19.8632488 C29.4003405,19.5655865 29.4782003,19.2473769 29.4996006,18.9229429 C29.8299711,17.6537277 29.9914167,16.3464671 29.9797568,15.0350114 C30.0027209,14.4833051 29.9635734,13.9307661 29.8630522,13.3878088 C29.7901732,12.0487164 29.4655116,10.7353642 28.9060742,9.51654937 L28.9060742,9.52655265 Z" id="Path" fill="#5A9EF4"></path>
                    <path d="M14.0545758,21.0536361 L21.6036985,28.5794179 C21.9057708,28.4714901 22.1859002,28.3099638 22.4306342,28.102596 C23.5557507,27.4584219 24.5896887,26.6667081 25.5049677,25.7484969 C25.9308805,25.344433 26.3254775,24.9085927 26.6853517,24.4447394 C27.5092848,23.4086269 28.1828148,22.2613809 28.6860026,21.036964 C28.7893696,21.0536361 14.5147256,21.0536361 14.0545758,21.0536361 Z" id="Path" fill="#58E5EF"></path>
                    <path d="M10.1533066,18.5828323 L10.1533066,29.2863145 C10.4511215,29.4166789 10.7692512,29.4945191 11.0936125,29.5163893 C12.3665187,29.8449098 13.6769859,30.005215 14.9915473,29.9932111 C15.5499035,30.0170864 16.1091716,29.9779376 16.6587564,29.8765065 C17.9969227,29.7545451 19.3100974,29.4377656 20.5566912,28.9362006 C20.546688,29.0562396 10.403388,19.0596541 10.1533066,18.5828323 Z" id="Path" fill="#57F15B"></path>
                    <path d="M9.09629607,14.234751 L1.54717342,21.7605328 C1.67721574,21.9906076 1.89395291,22.3473904 2.01065754,22.584134 C2.65833285,23.7065539 3.45343685,24.7371612 4.37475999,25.6484643 C4.77922184,26.0708982 5.21505034,26.4621407 5.67851748,26.8188451 C6.71924767,27.643122 7.87094212,28.3166275 9.0996305,28.819496 C9.09629607,28.9261973 8.97959145,14.5815305 9.09629607,14.234751 Z" id="Path" fill="#B8F05B"></path>
                    <path d="M0.490162881,11.1737552 C0.151997574,12.4403332 -0.00958167528,13.7475542 0.0100066699,15.0583523 C-0.0129573821,15.6100586 0.0261901157,16.1625976 0.126711299,16.7055549 C0.247831327,18.0406246 0.564657103,19.3506205 1.06701721,20.5934864 C1.06701721,20.5934864 11.0969469,10.4835306 11.4437264,10.2567902 L0.703565654,10.2567902 C0.603533115,10.5969008 0.603533115,10.8269757 0.490162881,11.1737552 Z" id="Path" fill="#EFDE5A"></path>
                    <path d="M7.44575909,2.13081322 C6.32045867,2.76671472 5.28631177,3.55185879 4.3714256,4.46490592 C3.91348244,4.83316377 3.51725907,5.27216124 3.1977104,5.76532898 C2.37377729,6.80144141 1.70024735,7.94868741 1.19705953,9.17310431 C1.19705953,9.17310431 15.4717035,9.05639968 15.9351877,9.17310431 L8.38606503,1.65399144 C8.03885311,1.73502289 7.71630108,1.8985865 7.44575909,2.13081322 Z" id="Path" fill="#F0B25C"></path>
                </g>
            </g>
        </g>
    </g>
</svg>