<?xml version="1.0" encoding="UTF-8"?>
<svg width="54px" height="54px" viewBox="0 0 54 54" version="1.1" xmlns="http://www.w3.org/2000/svg" xmlns:xlink="http://www.w3.org/1999/xlink">
    <!-- Generator: Sketch 52.6 (67491) - http://www.bohemiancoding.com/sketch -->
    <title>Group 25</title>
    <desc>Created with Sketch.</desc>
    <g id="我的" stroke="none" stroke-width="1" fill="none" fill-rule="evenodd">
        <g id="分享给朋友" transform="translate(-291.000000, -647.000000)">
            <g id="Group-25" transform="translate(291.000000, 647.000000)">
                <circle id="Oval" fill="#FFFFFF" fill-rule="nonzero" cx="27" cy="27" r="27"></circle>
                <g id="weibo" transform="translate(12.000000, 15.000000)">
                    <path d="M23.6431641,12.01125 C24.3573633,10.6213477 24.4341211,9.32185547 23.8509375,8.31181641 C23.2464844,7.26486328 21.999082,6.66925781 20.3385938,6.63474609 C19.1192578,6.60972656 17.7347461,6.88734375 16.346543,7.42740234 C16.8250195,5.79550781 16.6706836,4.5 15.8850586,3.714375 C14.9409375,2.77025391 13.2542578,2.73785156 11.1356836,3.62308594 C9.16019531,4.44855469 6.98935547,5.98617187 5.02289063,7.95251953 C2.09425781,10.8812109 0.148476563,14.2781836 0.0553710938,16.620293 C0.0186328125,16.8525 0,17.084707 0,17.3109961 C0,19.4082422 1.47011719,21.3549609 4.13953125,22.7922656 C6.70933594,24.1760742 10.1148633,24.9380859 13.72875,24.9380859 C17.3426367,24.9380859 20.7481641,24.1760742 23.3179688,22.7922656 C25.9873828,21.3549609 27.4575,19.4082422 27.4575,17.3109961 C27.4575586,15.2968945 26.1079688,13.42875 23.6431641,12.01125 Z" id="Path" fill="#EA533B"></path>
                    <path d="M15.2541797,24.4296094 C11.640293,24.4296094 8.23476563,23.6675977 5.66496094,22.2837891 C2.99554688,20.8464844 1.52542969,18.8997656 1.52542969,16.8025195 C1.52542969,16.5761719 1.5440625,16.3440234 1.58080078,16.111875 C1.67390625,13.769707 3.6196875,10.372793 6.54837891,7.44410156 C8.49527344,5.49726563 10.6423242,3.97125 12.6019336,3.13992188 C12.1417383,3.24673828 11.6516602,3.40746094 11.1357422,3.62302734 C9.16025391,4.44849609 6.98941406,5.98611328 5.02294922,7.95246094 C2.09425781,10.8812695 0.148476562,14.2782422 0.0553710938,16.6203516 C0.0186328125,16.8525 0,17.084707 0,17.3109961 C0,19.4082422 1.47011719,21.3549609 4.13953125,22.7922656 C6.70933594,24.1760742 10.1148633,24.9380859 13.72875,24.9380859 C16.5773438,24.9380859 19.2960937,24.4642969 21.5784961,23.5860937 C19.6495312,24.137168 17.4919336,24.4296094 15.2541797,24.4296094 Z" id="Path" fill="#D93C1C"></path>
                    <path d="M21.3392578,15.7635937 C21.1887891,14.0312695 20.0454492,12.5051953 18.1198828,11.4664453 C16.2635742,10.4650195 13.8834375,10.0314844 11.4178125,10.2456445 C8.95224609,10.4598633 6.68238281,11.2973437 5.02664062,12.6038672 C3.30902344,13.9591992 2.44587891,15.6595898 2.59640625,17.3918555 C2.74693359,19.1241797 3.89027344,20.6502539 5.81589844,21.6890039 C7.36212891,22.5231445 9.27152344,22.9633008 11.2913086,22.9632422 C11.6963672,22.9632422 12.1060547,22.9455469 12.5179102,22.9097461 C14.9834766,22.6956445 17.2532812,21.8581055 18.9090234,20.551582 C20.6266992,19.19625 21.4897266,17.4958594 21.3392578,15.7635937 Z" id="Path" fill="#FFFFFF"></path>
                    <path d="M13.4976562,22.4015039 C13.0858008,22.4373047 12.6761133,22.455 12.2710547,22.455 C10.2512695,22.4550586 8.34181641,22.0149023 6.79564453,21.1807617 C4.87007812,20.1419531 3.72662109,18.6158789 3.57615234,16.8836133 C3.425625,15.1513477 4.28871094,13.450957 6.00638672,12.095625 C6.34617188,11.8275586 6.71220703,11.5795313 7.10003906,11.3522461 C6.33873047,11.6998242 5.64041016,12.1195313 5.02652344,12.6038672 C3.30890625,13.9591992 2.44576172,15.6595898 2.59628906,17.3918555 C2.74681641,19.1241797 3.89015625,20.6502539 5.81578125,21.6890039 C7.36201172,22.5231445 9.27140625,22.9633008 11.2911914,22.9632422 C11.69625,22.9632422 12.1059375,22.9455469 12.517793,22.9097461 C14.4774609,22.7395313 16.3129688,22.1752734 17.8152539,21.2949609 C16.5230859,21.8849414 15.0492773,22.2667383 13.4976562,22.4015039 Z" id="Path" fill="#E5E5E5"></path>
                    <path d="M16.7958984,15.7929492 C16.2388477,13.475918 13.5410156,12.1303711 10.7819531,12.7935938 C8.02289062,13.456875 6.23150391,15.8816602 6.7884375,18.1988086 C7.06277344,19.3398047 7.85226562,20.278418 9.01166016,20.8416797 C9.73136719,21.1913086 10.5410742,21.3691992 11.3762109,21.3691992 C11.8474219,21.3691992 12.3266602,21.3125391 12.8023242,21.1982227 C15.5614453,20.5348828 17.3529492,18.1101563 16.7958984,15.7929492 Z" id="Path" fill="#333333"></path>
                    <circle id="Oval" fill="#FFFFFF" cx="10.4237109" cy="18.0736523" r="1.77966797"></circle>
                    <g id="Group" transform="translate(19.804688, 0.000000)" fill="#FFA929">
                        <path d="M2.0596875,4.34490234 C1.63845703,4.34490234 1.29697266,4.68638672 1.29697266,5.10761719 C1.29697266,5.52884766 1.63845703,5.87033203 2.0596875,5.87033203 C3.60175781,5.87033203 4.85630859,7.12488281 4.85630859,8.66695312 C4.85630859,9.08818359 5.19779297,9.42966797 5.61902344,9.42966797 C6.04025391,9.42966797 6.38173828,9.08818359 6.38173828,8.66695312 C6.38167969,6.28376953 4.4428125,4.34490234 2.0596875,4.34490234 Z" id="Path"></path>
                        <path d="M1.55126953,0.0228515625 C1.36019531,0.0228515625 1.16666016,0.0291796875 0.976054688,0.04171875 C0.415664062,0.0785742188 -0.0087890625,0.562792969 0.0280078125,1.12324219 C0.0648632813,1.68363281 0.549492187,2.10785156 1.10953125,2.07128906 C1.25589844,2.06167969 1.40455078,2.05675781 1.55126953,2.05675781 C5.19615234,2.05675781 8.16140625,5.02207031 8.16140625,8.66689453 C8.16140625,9.11255859 8.11693359,9.55775391 8.02916016,9.99 C7.94736328,10.392832 8.12824219,10.8225586 8.47306641,11.0461523 C8.82404297,11.2737305 9.29988281,11.2563281 9.63492187,11.0066016 C9.8334375,10.8586523 9.97324219,10.6370508 10.0224609,10.3945898 C10.1371875,9.82939453 10.1953125,9.24814453 10.1953125,8.66683594 C10.1953125,3.90064453 6.31757812,0.0228515625 1.55126953,0.0228515625 Z" id="Path"></path>
                    </g>
                    <circle id="Oval" fill="#FFFFFF" cx="13.7288086" cy="16.294043" r="1.01695312"></circle>
                </g>
            </g>
        </g>
    </g>
</svg>