<?xml version="1.0" encoding="UTF-8"?>
<svg width="83px" height="76px" viewBox="0 0 83 76" version="1.1" xmlns="http://www.w3.org/2000/svg" xmlns:xlink="http://www.w3.org/1999/xlink">
    <!-- Generator: Sketch 52.5 (67469) - http://www.bohemiancoding.com/sketch -->
    <title>rotated-right-arrow-with-broken-line</title>
    <desc>Created with Sketch.</desc>
    <g id="风险报告" stroke="none" stroke-width="1" fill="none" fill-rule="evenodd">
        <g id="风险报告/详情/引导" transform="translate(-158.000000, -386.000000)" fill="#FFFFFF">
            <g id="rotated-right-arrow-with-broken-line" transform="translate(202.070383, 411.642286) rotate(-116.000000) translate(-202.070383, -411.642286) translate(162.070383, 377.642286)">
                <path d="M9.09945946,1.31502703 C6.45297297,0.653405405 3.40951351,1.712 0.763027027,1.97664865 C0.101405405,1.97664865 -0.0309189189,3.03524324 0.763027027,3.16756757 C3.40951351,3.29989189 6.5852973,3.16756757 9.09945946,2.50594595 C9.62897297,2.2412973 9.62897297,1.44735135 9.09945946,1.31502703 Z" id="Path"></path>
                <path d="M24.9783784,4.88778378 C23.1258378,3.03524324 20.2147027,2.63827027 17.8328649,2.77059459 C17.3035676,2.77059459 17.3035676,3.56454054 17.8328649,3.56454054 C19.1561081,3.69686486 20.347027,3.96151351 21.5379459,4.35848649 C22.5965405,4.75545946 23.5228108,5.28475676 24.5814054,5.68172973 C24.9783784,5.94637838 25.3753514,5.28475676 24.9783784,4.88778378 Z" id="Path"></path>
                <path d="M38.8726486,15.2090811 C38.3433514,14.0181622 37.2847568,12.9595676 36.2261622,12.1656216 C35.2998919,11.2393514 34.108973,10.4454054 33.0503784,9.78378378 C32.6534054,9.51913514 32.2564324,10.0484324 32.6534054,10.3130811 C33.712,11.107027 34.6382703,12.0332973 35.4322162,12.9595676 C36.3584865,13.8858378 37.0201081,15.0767568 37.9463784,16.003027 C38.3431351,16.5323243 39.1370811,15.8707027 38.8726486,15.2090811 Z" id="Path"></path>
                <path d="M41.5191351,23.4131892 C41.1221622,22.7515676 40.1956757,23.2808649 40.5928649,23.9424865 C40.8575135,24.6041081 41.2544865,25.3980541 41.5191351,26.0596757 C41.7837838,26.9859459 41.6512432,27.9122162 42.0482162,28.7061622 C42.1805405,29.1031351 42.8421622,29.1031351 42.9744865,28.7061622 C43.6363243,27.2505946 42.3130811,24.8687568 41.5191351,23.4131892 Z" id="Path"></path>
                <path d="M45.0916757,39.9537297 C45.0916757,38.6304865 45.0916757,37.3072432 44.827027,36.1163243 C44.6947027,35.4547027 43.9007568,35.4547027 43.9007568,36.1163243 C43.7684324,37.3072432 43.7684324,38.3658378 43.7684324,39.5567568 C43.7684324,40.7476757 43.5037838,41.9385946 43.9007568,43.1295135 C44.0330811,43.6585946 44.9593514,43.6585946 45.0916757,43.1295135 C45.3565405,42.0709189 45.2242162,41.0123243 45.0916757,39.9537297 Z" id="Path"></path>
                <path d="M41.9161081,51.5982703 C41.3868108,52.9215135 40.8575135,54.2445405 40.0635676,55.5677838 C39.4019459,56.7589189 38.4756757,57.9498378 38.3433514,59.2730811 C38.211027,59.9347027 39.1372973,60.067027 39.5342703,59.8021622 C40.5928649,58.8761081 41.1223784,57.288 41.6514595,55.9647568 C42.3132973,54.6415135 42.7100541,53.3184865 42.9747027,51.9952432 C43.107027,51.2012973 42.0482162,50.9366486 41.9161081,51.5982703 Z" id="Path"></path>
                <path d="M35.9612973,61.7872432 C35.1673514,62.7132973 34.3734054,63.7721081 33.5794595,64.5660541 C33.1824865,64.963027 32.6531892,65.36 32.1238919,65.6246486 C31.5945946,65.8892973 31.3299459,65.8892973 30.932973,66.4185946 C30.6683243,66.8155676 30.932973,67.3448649 31.3299459,67.4771892 C32.5208649,67.7420541 33.5794595,66.5509189 34.3734054,65.756973 C35.2996757,64.6983784 35.9612973,63.5076757 36.6229189,62.1844324 C36.7554595,61.7872432 36.2259459,61.3902703 35.9612973,61.7872432 Z" id="Path"></path>
                <path d="M25.7723243,65.0953514 C25.1107027,65.6246486 24.3167568,66.0216216 23.5228108,66.0216216 C22.8611892,66.0216216 22.0672432,65.8892973 21.5379459,66.4185946 C21.2732973,66.6832432 21.2732973,67.0802162 21.5379459,67.3448649 C22.8611892,68.6678919 25.5076757,66.8155676 26.3016216,65.7567568 C26.5664865,65.36 26.1695135,64.8304865 25.7723243,65.0953514 Z" id="Path"></path>
                <path d="M17.3035676,62.3163243 C16.244973,62.1842162 15.0540541,61.9193514 13.9954595,61.5223784 C12.8045405,60.9932973 12.2752432,60.067027 11.6136216,59.0082162 C11.2166486,58.4789189 10.4227027,58.6112432 10.2903784,59.4051892 C10.1580541,62.9779459 14.6570811,63.6395676 17.3035676,63.2425946 C17.7005405,63.1104865 17.7005405,62.3163243 17.3035676,62.3163243 Z" id="Path"></path>
                <path d="M10.6873514,53.5831351 C9.62875676,51.5982703 9.89340541,49.6134054 9.49643243,47.4962162 C9.36410811,46.9671351 8.57016216,46.9671351 8.43783784,47.4962162 C8.04086486,49.7457297 8.70248649,52.1275676 10.0257297,53.9801081 C10.2903784,54.3770811 10.8198919,54.1124324 10.6873514,53.5831351 Z" id="Path"></path>
                <path d="M11.2166486,30.8233514 C8.83481081,33.0728649 8.30551351,36.3811892 8.43783784,39.4244324 C8.43783784,39.9537297 9.36410811,39.9537297 9.36410811,39.4244324 C9.49643243,36.6456216 10.2903784,33.8668108 12.0105946,31.6175135 C12.5401081,31.088 11.7461622,30.2940541 11.2166486,30.8233514 Z" id="Path"></path>
                <path d="M18.8916757,21.296 C16.5098378,22.4869189 14.6572973,24.7364324 13.2017297,26.9859459 C12.8047568,27.5152432 13.731027,28.0445405 13.9956757,27.5152432 C15.5835676,25.5303784 17.5684324,23.9424865 19.420973,22.2222703 C19.9502703,21.692973 19.4207568,21.0313514 18.8916757,21.296 Z" id="Path"></path>
                <path d="M26.6985946,13.6211892 C24.8460541,13.6211892 22.7288649,15.2090811 21.5379459,16.5323243 C21.0086486,17.0616216 21.8025946,17.8555676 22.3318919,17.3262703 C22.9935135,16.6646486 23.7874595,16.1353514 24.5814054,15.7383784 C25.3753514,15.3414054 26.3016216,15.0767568 27.0955676,14.5474595 C27.4925405,14.2828108 27.0955676,13.6211892 26.6985946,13.6211892 Z" id="Path"></path>
                <path d="M44.4302703,8.06356757 C43.3716757,8.06356757 42.3130811,8.46054054 41.2544865,8.59286486 C39.9312432,8.85751351 38.608,8.98983784 37.4170811,9.51913514 C36.7554595,9.78378378 37.0201081,10.7100541 37.6817297,10.5777297 C38.8726486,10.3130811 40.1958919,10.1807568 41.3868108,10.0484324 C42.4454054,9.91610811 43.7686486,9.91610811 44.6949189,9.25448649 C45.3565405,8.98983784 45.0916757,8.06356757 44.4302703,8.06356757 Z" id="Path"></path>
                <path d="M56.2071351,6.74032432 C54.4869189,6.34335135 52.3697297,6.74032432 50.5171892,6.87264865 C49.8555676,6.87264865 49.8555676,7.79891892 50.5171892,7.79891892 C52.3697297,7.93124324 54.3545946,8.32821622 56.2071351,7.93124324 C56.8685405,7.79891892 56.8685405,6.87264865 56.2071351,6.74032432 Z" id="Path"></path>
                <path d="M68.5132973,7.40194595 C67.587027,7.1372973 66.6607568,7.26962162 65.7342703,7.26962162 C64.8082162,7.26962162 63.7494054,7.26962162 62.8231351,7.40194595 C62.1615135,7.40194595 62.1615135,8.46054054 62.8231351,8.46054054 C63.7494054,8.46054054 64.8082162,8.46054054 65.7342703,8.59286486 C66.6605405,8.59286486 67.5868108,8.72518919 68.5132973,8.46054054 C69.0425946,8.46054054 69.0425946,7.66659459 68.5132973,7.40194595 Z" id="Path"></path>
                <path d="M79.496,7.79891892 C77.7757838,6.0787027 76.0555676,4.49081081 74.2032432,3.03524324 C72.88,1.97664865 70.8949189,-0.00821621622 69.1747027,0.124108108 C68.5130811,0.124108108 67.9837838,0.918054054 68.3807568,1.57967568 C69.1747027,2.90291892 71.0272432,3.69686486 72.2181622,4.49081081 C73.6737297,5.54940541 75.1292973,6.87264865 76.5848649,8.19589189 C73.9383784,9.25448649 71.2918919,10.7100541 68.7777297,12.0332973 C67.9837838,12.4302703 68.5130811,13.8858378 69.4395676,13.6211892 C72.7476757,12.5625946 75.6588108,10.4454054 79.0992432,9.78378378 C79.892973,9.65145946 80.0255135,8.46054054 79.496,7.79891892 Z" id="Path"></path>
            </g>
        </g>
    </g>
</svg>