<?xml version="1.0" encoding="UTF-8"?>
<svg width="16px" height="18px" viewBox="0 0 16 18" version="1.1" xmlns="http://www.w3.org/2000/svg" xmlns:xlink="http://www.w3.org/1999/xlink">
    <!-- Generator: Sketch 52.5 (67469) - http://www.bohemiancoding.com/sketch -->
    <title>icon</title>
    <desc>Created with Sketch.</desc>
    <g id="智惠平台-风险报告" stroke="none" stroke-width="1" fill="none" fill-rule="evenodd">
        <g id="风险报告/详情" transform="translate(-36.000000, -1519.000000)" fill-rule="nonzero">
            <g id="Group-4" transform="translate(0.000000, 1510.000000)">
                <g id="icon" transform="translate(36.000000, 9.000000)">
                    <path d="M15.25,16 L15.25,2 C15.25,1.30964406 14.6903559,0.75 14,0.75 L2,0.75 C1.30964406,0.75 0.75,1.30964406 0.75,2 L0.75,16 C0.75,16.6903559 1.30964406,17.25 2,17.25 L14,17.25 C14.6903559,17.25 15.25,16.6903559 15.25,16 Z" id="Path" stroke="#9C9BA8" stroke-width="1.5" fill-opacity="0" fill="#D8D8D8"></path>
                    <rect id="Rectangle" fill="#4285F4" x="4" y="4" width="8" height="1" rx="0.5"></rect>
                    <rect id="Rectangle" fill="#4285F4" x="4" y="7" width="8" height="1" rx="0.5"></rect>
                    <path d="M8.41250478,13.1018446 L16,5.69298314 L16,7.93127441 L9.03600845,14.5966284 C9.01082124,14.6328913 8.98206758,14.6674274 8.94974747,14.6997475 C8.65685425,14.9926407 8.18198052,14.9926407 7.8890873,14.6997475 L4.70710678,11.517767 C4.41421356,11.2248737 4.41421356,10.75 4.70710678,10.4571068 C5,10.1642136 5.47487373,10.1642136 5.76776695,10.4571068 L8.41250478,13.1018446 Z" id="Combined-Shape" fill="#9C9BA8"></path>
                </g>
            </g>
        </g>
    </g>
</svg>