<?xml version="1.0" encoding="UTF-8"?>
<svg width="101px" height="25px" viewBox="0 0 101 25" version="1.1" xmlns="http://www.w3.org/2000/svg" xmlns:xlink="http://www.w3.org/1999/xlink">
    <!-- Generator: Sketch 52.5 (67469) - http://www.bohemiancoding.com/sketch -->
    <title>6位数-10万元102x24</title>
    <desc>Created with Sketch.</desc>
    <defs>
        <rect id="path-1" x="0" y="0" width="100" height="24"></rect>
        <mask id="mask-2" maskContentUnits="userSpaceOnUse" maskUnits="objectBoundingBox" x="0" y="0" width="100" height="24" fill="white">
            <use xlink:href="#path-1"></use>
        </mask>
        <polygon id="path-3" points="99 0 99 22 16 22 0.999450684 9.004 1 1.45716772e-16"></polygon>
        <linearGradient x1="100%" y1="0%" x2="51.1989704%" y2="48.8010296%" id="linearGradient-5">
            <stop stop-color="#F1F1F1" offset="0%"></stop>
            <stop stop-color="#FFFFFF" offset="55.1345737%"></stop>
            <stop stop-color="#F5F5F5" offset="71.1772941%"></stop>
            <stop stop-color="#C1C1C1" offset="98.2229949%"></stop>
        </linearGradient>
        <path d="M0.999450684,10.004 C2.46384684,10.9840494 4.66430664,11.4740741 7.60083008,11.4740741 C10.5373535,11.4740741 12.8370768,11.1493827 14.5,10.5 C13.8333333,11.8273112 13.5,13.8273112 13.5,16.5 C13.5,19.1726888 14.3333333,21.3393555 16,23 L0.999450684,10.004 Z" id="path-6"></path>
        <filter x="-36.7%" y="-57.7%" width="186.7%" height="200.0%" filterUnits="objectBoundingBox" id="filter-7">
            <feOffset dx="1" dy="-1" in="SourceAlpha" result="shadowOffsetOuter1"></feOffset>
            <feGaussianBlur stdDeviation="2" in="shadowOffsetOuter1" result="shadowBlurOuter1"></feGaussianBlur>
            <feComposite in="shadowBlurOuter1" in2="SourceAlpha" operator="out" result="shadowBlurOuter1"></feComposite>
            <feColorMatrix values="0 0 0 0 0   0 0 0 0 0   0 0 0 0 0  0 0 0 0.4 0" type="matrix" in="shadowBlurOuter1"></feColorMatrix>
        </filter>
    </defs>
    <g id="Symbols" stroke="none" stroke-width="1" fill="none" fill-rule="evenodd">
        <g id="撕纸/6位数-10万元" transform="translate(1.000000, 0.000000)">
            <g id="6位数-10万元102x24">
                <use id="虚线" stroke="#999999" mask="url(#mask-2)" stroke-width="2" stroke-dasharray="3,2" fill-rule="nonzero" xlink:href="#path-1"></use>
                <polygon id="白色背景" fill="#FFFFFF" fill-rule="nonzero" points="1 1 99 1 99 23 1 23"></polygon>
                <polygon id="通用内容" fill="#EA0000" fill-rule="nonzero" points="6 12 11 12 11 17 6 17"></polygon>
                <g id="159" transform="translate(0.000000, 1.000000)">
                    <mask id="mask-4" fill="white">
                        <use xlink:href="#path-3"></use>
                    </mask>
                    <use id="Mask" fill="#F1F3F4" fill-rule="nonzero" xlink:href="#path-3"></use>
                    <path d="M6.92586634,9.7605244 L1.86425237,4.69891043 L4.01526567,2.54789712 C4.55618665,2.00697615 4.99467133,1.65941086 5.33073288,1.50519084 C5.66679442,1.35097081 6.02471761,1.31644446 6.40451319,1.40161074 C6.78430877,1.48677702 7.12381791,1.67897372 7.42305079,1.9782066 C7.80284637,2.35800218 8.00482554,2.78325176 8.02899435,3.2539681 C8.05316316,3.72468445 7.87535244,4.21438322 7.49555686,4.72307912 C7.84542915,4.63100746 8.16940143,4.59015128 8.46748342,4.60050934 C8.7655654,4.6108674 9.23339749,4.69085345 9.8709937,4.84046989 L11.4764852,5.20990556 L10.2542401,6.43215068 L8.41396703,6.06962035 C7.75795649,5.93841824 7.33040515,5.86994097 7.13130019,5.8641865 C6.93219524,5.85843202 6.75956347,5.89065661 6.61339972,5.96086125 C6.46723596,6.03106589 6.27676558,6.18355728 6.04198286,6.41834 L5.83482267,6.62550019 L7.94785661,8.73853413 L6.92586634,9.7605244 Z M5.02689793,5.81757545 L5.78303262,5.06144076 C6.27331419,4.57115919 6.55873204,4.24430972 6.63929474,4.08088253 C6.71985744,3.91745534 6.74402589,3.75057797 6.71180081,3.5802454 C6.67957573,3.40991284 6.58750545,3.24878986 6.43558722,3.09687163 C6.26525466,2.92653906 6.08226499,2.83446879 5.88661272,2.82065804 C5.69096045,2.80684729 5.49646199,2.86899473 5.30311152,3.00710221 C5.20873807,3.07845775 4.95439394,3.3212931 4.54007149,3.73561555 L3.74250475,4.53318228 L5.02689793,5.81757545 Z M7.85808719,0.500463915 L6.96039304,-0.39723024 L7.93059326,-1.36743046 L8.82828741,-0.469736307 L7.85808719,0.500463915 Z M12.022007,4.66438373 L8.35527165,0.997648371 L9.32547187,0.0274481488 L12.9922072,3.69418351 L12.022007,4.66438373 Z M12.5986029,1.99546995 L13.423791,0.873352257 C13.6539701,1.02066691 13.8812686,1.07993715 14.1056932,1.05116475 C14.3301179,1.02239236 14.5562655,0.894069415 14.7841429,0.666192067 C15.0350381,0.415296805 15.1777471,0.180517605 15.2122739,-0.038152578 C15.2329901,-0.187769019 15.1892567,-0.316667403 15.0810725,-0.424851599 C15.0074152,-0.498508924 14.923401,-0.536487912 14.8290276,-0.538789703 C14.7346541,-0.536487912 14.5838891,-0.470887841 14.3767278,-0.341987523 C13.4214844,0.267987197 12.7677855,0.606345457 12.4156114,0.673097407 C11.9276316,0.765169063 11.507561,0.6351198 11.1553869,0.282945716 C10.8377397,-0.0347014964 10.6961816,-0.427151043 10.7307085,-0.894414696 C10.7652354,-1.36167835 11.0460497,-1.85885783 11.5731599,-2.38596806 C12.0749505,-2.88775859 12.5295474,-3.17893083 12.9369645,-3.25949353 C13.3443816,-3.34005623 13.7540943,-3.26640001 14.166115,-3.03852266 L13.4203383,-1.95438433 C13.2384968,-2.05796495 13.0549317,-2.09306674 12.8696375,-2.05969076 C12.6843432,-2.02631479 12.4904202,-1.90834975 12.2878626,-1.70579211 C12.0323637,-1.45029326 11.8850513,-1.23162636 11.8459208,-1.04978484 C11.8229029,-0.925488103 11.8516749,-0.823059922 11.9322376,-0.742497223 C12.0012913,-0.673443481 12.0922107,-0.646973277 12.2049985,-0.663085817 C12.3569167,-0.686103731 12.7499417,-0.897289924 13.3840853,-1.29665073 C14.0182288,-1.69601154 14.522889,-1.91295212 14.898081,-1.94747899 C15.273273,-1.97740228 15.6150839,-1.83814599 15.9235239,-1.52970594 C16.2595855,-1.1936444 16.4080488,-0.764366745 16.3689183,-0.241860098 C16.3297879,0.280646549 16.035163,0.816955899 15.4850348,1.36708404 C14.9855461,1.86657278 14.4889421,2.16062222 13.9952078,2.24924118 C13.5014736,2.33786015 13.0359432,2.25327059 12.5986029,1.99546995 Z M17.8846404,-1.19824964 L12.8230264,-6.25986361 L13.7932266,-7.23006383 L16.4794038,-4.54388671 L16.3240336,-6.9711136 L17.5186574,-8.16573736 L17.6049741,-5.57278232 L21.2751622,-4.58877141 L20.2290032,-3.54261246 L17.6602168,-4.26767312 L17.6809329,-3.34235761 L18.8548406,-2.16844986 L17.8846404,-1.19824964 Z M26.9258663,29.7605244 L21.8642524,24.6989104 L24.0152657,22.5478971 C24.5561866,22.0069761 24.9946713,21.6594109 25.3307329,21.5051908 C25.6667944,21.3509708 26.0247176,21.3164445 26.4045132,21.4016107 C26.7843088,21.486777 27.1238179,21.6789737 27.4230508,21.9782066 C27.8028464,22.3580022 28.0048255,22.7832518 28.0289943,23.2539681 C28.0531632,23.7246844 27.8753524,24.2143832 27.4955569,24.7230791 C27.8454292,24.6310075 28.1694014,24.5901513 28.4674834,24.6005093 C28.7655654,24.6108674 29.2333975,24.6908535 29.8709937,24.8404699 L31.4764852,25.2099056 L30.2542401,26.4321507 L28.413967,26.0696204 C27.7579565,25.9384182 27.3304051,25.869941 27.1313002,25.8641865 C26.9321952,25.858432 26.7595635,25.8906566 26.6133997,25.9608613 C26.467236,26.0310659 26.2767656,26.1835573 26.0419829,26.41834 L25.8348227,26.6255002 L27.9478566,28.7385341 L26.9258663,29.7605244 Z M25.0268979,25.8175755 L25.7830326,25.0614408 C26.2733142,24.5711592 26.558732,24.2443097 26.6392947,24.0808825 C26.7198574,23.9174553 26.7440259,23.750578 26.7118008,23.5802454 C26.6795757,23.4099128 26.5875055,23.2487899 26.4355872,23.0968716 C26.2652547,22.9265391 26.082265,22.8344688 25.8866127,22.820658 C25.6909605,22.8068473 25.496462,22.8689947 25.3031115,23.0071022 C25.2087381,23.0784577 24.9543939,23.3212931 24.5400715,23.7356155 L23.7425048,24.5331823 L25.0268979,25.8175755 Z M27.8580872,20.5004639 L26.960393,19.6027698 L27.9305933,18.6325695 L28.8282874,19.5302637 L27.8580872,20.5004639 Z M32.022007,24.6643837 L28.3552716,20.9976484 L29.3254719,20.0274481 L32.9922072,23.6941835 L32.022007,24.6643837 Z M32.5986029,21.99547 L33.423791,20.8733523 C33.6539701,21.0206669 33.8812686,21.0799371 34.1056932,21.0511648 C34.3301179,21.0223924 34.5562655,20.8940694 34.7841429,20.6661921 C35.0350381,20.4152968 35.1777471,20.1805176 35.2122739,19.9618474 C35.2329901,19.812231 35.1892567,19.6833326 35.0810725,19.5751484 C35.0074152,19.5014911 34.923401,19.4635121 34.8290276,19.4612103 C34.7346541,19.4635121 34.5838891,19.5291122 34.3767278,19.6580125 C33.4214844,20.2679872 32.7677855,20.6063455 32.4156114,20.6730974 C31.9276316,20.7651691 31.507561,20.6351198 31.1553869,20.2829457 C30.8377397,19.9652985 30.6961816,19.572849 30.7307085,19.1055853 C30.7652354,18.6383217 31.0460497,18.1411422 31.5731599,17.6140319 C32.0749505,17.1122414 32.5295474,16.8210692 32.9369645,16.7405065 C33.3443816,16.6599438 33.7540943,16.7336 34.166115,16.9614773 L33.4203383,18.0456157 C33.2384968,17.9420351 33.0549317,17.9069333 32.8696375,17.9403092 C32.6843432,17.9736852 32.4904202,18.0916503 32.2878626,18.2942079 C32.0323637,18.5497067 31.8850513,18.7683736 31.8459208,18.9502152 C31.8229029,19.0745119 31.8516749,19.1769401 31.9322376,19.2575028 C32.0012913,19.3265565 32.0922107,19.3530267 32.2049985,19.3369142 C32.3569167,19.3138963 32.7499417,19.1027101 33.3840853,18.7033493 C34.0182288,18.3039885 34.522889,18.0870479 34.898081,18.052521 C35.273273,18.0225977 35.6150839,18.161854 35.9235239,18.4702941 C36.2595855,18.8063556 36.4080488,19.2356333 36.3689183,19.7581399 C36.3297879,20.2806465 36.035163,20.8169559 35.4850348,21.367084 C34.9855461,21.8665728 34.4889421,22.1606222 33.9952078,22.2492412 C33.5014736,22.3378602 33.0359432,22.2532706 32.5986029,21.99547 Z M37.8846404,18.8017504 L32.8230264,13.7401364 L33.7932266,12.7699362 L36.4794038,15.4561133 L36.3240336,13.0288864 L37.5186574,11.8342626 L37.6049741,14.4272177 L41.2751622,15.4112286 L40.2290032,16.4573875 L37.6602168,15.7323269 L37.6809329,16.6576424 L38.8548406,17.8315501 L37.8846404,18.8017504 Z M16.9258663,20.3107769 L11.8642524,15.249163 L14.0152657,13.0981497 C14.5561866,12.5572287 14.9946713,12.2096634 15.3307329,12.0554434 C15.6667944,11.9012233 16.0247176,11.866697 16.4045132,11.9518633 C16.7843088,12.0370296 17.1238179,12.2292263 17.4230508,12.5284591 C17.8028464,12.9082547 18.0048255,13.3335043 18.0289943,13.8042206 C18.0531632,14.274937 17.8753524,14.7646358 17.4955569,15.2733316 C17.8454292,15.18126 18.1694014,15.1404038 18.4674834,15.1507619 C18.7655654,15.1611199 19.2333975,15.241106 19.8709937,15.3907224 L21.4764852,15.7601581 L20.2542401,16.9824032 L18.413967,16.6198729 C17.7579565,16.4886708 17.3304051,16.4201935 17.1313002,16.414439 C16.9321952,16.4086845 16.7595635,16.4409091 16.6133997,16.5111138 C16.467236,16.5813184 16.2767656,16.7338098 16.0419829,16.9685925 L15.8348227,17.1757527 L17.9478566,19.2887867 L16.9258663,20.3107769 Z M15.0268979,16.367828 L15.7830326,15.6116933 C16.2733142,15.1214117 16.558732,14.7945622 16.6392947,14.6311351 C16.7198574,14.4677079 16.7440259,14.3008305 16.7118008,14.1304979 C16.6795757,13.9601654 16.5875055,13.7990424 16.4355872,13.6471242 C16.2652547,13.4767916 16.082265,13.3847213 15.8866127,13.3709106 C15.6909605,13.3570998 15.496462,13.4192473 15.3031115,13.5573547 C15.2087381,13.6287103 14.9543939,13.8715456 14.5400715,14.2858681 L13.7425048,15.0834348 L15.0268979,16.367828 Z M17.8580872,11.0507164 L16.960393,10.1530223 L17.9305933,9.18282207 L18.8282874,10.0805162 L17.8580872,11.0507164 Z M22.022007,15.2146363 L18.3552716,11.5479009 L19.3254719,10.5777007 L22.9922072,14.244436 L22.022007,15.2146363 Z M22.5986029,12.5457225 L23.423791,11.4236048 C23.6539701,11.5709194 23.8812686,11.6301897 24.1056932,11.6014173 C24.3301179,11.5726449 24.5562655,11.4443219 24.7841429,11.2164446 C25.0350381,10.9655493 25.1777471,10.7307701 25.2122739,10.5121 C25.2329901,10.3624835 25.1892567,10.2335851 25.0810725,10.1254009 C25.0074152,10.0517436 24.923401,10.0137646 24.8290276,10.0114628 C24.7346541,10.0137646 24.5838891,10.0793647 24.3767278,10.208265 C23.4214844,10.8182397 22.7677855,11.156598 22.4156114,11.2233499 C21.9276316,11.3154216 21.507561,11.1853723 21.1553869,10.8331982 C20.8377397,10.515551 20.6961816,10.1231015 20.7307085,9.65583784 C20.7652354,9.18857418 21.0460497,8.6913947 21.5731599,8.16428447 C22.0749505,7.66249395 22.5295474,7.3713217 22.9369645,7.290759 C23.3443816,7.2101963 23.7540943,7.28385252 24.166115,7.51172987 L23.4203383,8.5958682 C23.2384968,8.49228759 23.0549317,8.45718579 22.8696375,8.49056177 C22.6843432,8.52393774 22.4904202,8.64190278 22.2878626,8.84446043 C22.0323637,9.09995927 21.8850513,9.31862617 21.8459208,9.50046769 C21.8229029,9.62476443 21.8516749,9.72719261 21.9322376,9.80775531 C22.0012913,9.87680905 22.0922107,9.90327925 22.2049985,9.88716671 C22.3569167,9.8641488 22.7499417,9.65296261 23.3840853,9.2536018 C24.0182288,8.85424099 24.522889,8.63730041 24.898081,8.60277354 C25.273273,8.57285025 25.6150839,8.71210654 25.9235239,9.02054659 C26.2595855,9.35660813 26.4080488,9.78588579 26.3689183,10.3083924 C26.3297879,10.8308991 26.035163,11.3672084 25.4850348,11.9173366 C24.9855461,12.4168253 24.4889421,12.7108747 23.9952078,12.7994937 C23.5014736,12.8881127 23.0359432,12.8035231 22.5986029,12.5457225 Z M27.8846404,9.35200289 L22.8230264,4.29038892 L23.7932266,3.3201887 L26.4794038,6.00636583 L26.3240336,3.57913894 L27.5186574,2.38451517 L27.6049741,4.97747022 L31.2751622,5.96148112 L30.2290032,7.00764008 L27.6602168,6.28257941 L27.6809329,7.20789493 L28.8548406,8.38180267 L27.8846404,9.35200289 Z" id="Combined-Shape" fill="#A1A1A1" opacity="0.497326079" mask="url(#mask-4)"></path>
                    <path d="M46.9258663,9.7605244 L41.8642524,4.69891043 L44.0152657,2.54789712 C44.5561866,2.00697615 44.9946713,1.65941086 45.3307329,1.50519084 C45.6667944,1.35097081 46.0247176,1.31644446 46.4045132,1.40161074 C46.7843088,1.48677702 47.1238179,1.67897372 47.4230508,1.9782066 C47.8028464,2.35800218 48.0048255,2.78325176 48.0289943,3.2539681 C48.0531632,3.72468445 47.8753524,4.21438322 47.4955569,4.72307912 C47.8454292,4.63100746 48.1694014,4.59015128 48.4674834,4.60050934 C48.7655654,4.6108674 49.2333975,4.69085345 49.8709937,4.84046989 L51.4764852,5.20990556 L50.2542401,6.43215068 L48.413967,6.06962035 C47.7579565,5.93841824 47.3304051,5.86994097 47.1313002,5.8641865 C46.9321952,5.85843202 46.7595635,5.89065661 46.6133997,5.96086125 C46.467236,6.03106589 46.2767656,6.18355728 46.0419829,6.41834 L45.8348227,6.62550019 L47.9478566,8.73853413 L46.9258663,9.7605244 Z M45.0268979,5.81757545 L45.7830326,5.06144076 C46.2733142,4.57115919 46.558732,4.24430972 46.6392947,4.08088253 C46.7198574,3.91745534 46.7440259,3.75057797 46.7118008,3.5802454 C46.6795757,3.40991284 46.5875055,3.24878986 46.4355872,3.09687163 C46.2652547,2.92653906 46.082265,2.83446879 45.8866127,2.82065804 C45.6909605,2.80684729 45.496462,2.86899473 45.3031115,3.00710221 C45.2087381,3.07845775 44.9543939,3.3212931 44.5400715,3.73561555 L43.7425048,4.53318228 L45.0268979,5.81757545 Z M47.8580872,0.500463915 L46.960393,-0.39723024 L47.9305933,-1.36743046 L48.8282874,-0.469736307 L47.8580872,0.500463915 Z M52.022007,4.66438373 L48.3552716,0.997648371 L49.3254719,0.0274481488 L52.9922072,3.69418351 L52.022007,4.66438373 Z M52.5986029,1.99546995 L53.423791,0.873352257 C53.6539701,1.02066691 53.8812686,1.07993715 54.1056932,1.05116475 C54.3301179,1.02239236 54.5562655,0.894069416 54.7841429,0.666192067 C55.0350381,0.415296805 55.1777471,0.180517605 55.2122739,-0.038152578 C55.2329901,-0.187769019 55.1892567,-0.316667403 55.0810725,-0.424851599 C55.0074152,-0.498508924 54.923401,-0.536487912 54.8290276,-0.538789703 C54.7346541,-0.536487912 54.5838891,-0.470887841 54.3767278,-0.341987523 C53.4214844,0.267987197 52.7677855,0.606345457 52.4156114,0.673097407 C51.9276316,0.765169063 51.507561,0.6351198 51.1553869,0.282945716 C50.8377397,-0.0347014964 50.6961816,-0.427151043 50.7307085,-0.894414696 C50.7652354,-1.36167835 51.0460497,-1.85885783 51.5731599,-2.38596806 C52.0749505,-2.88775859 52.5295474,-3.17893083 52.9369645,-3.25949353 C53.3443816,-3.34005623 53.7540943,-3.26640001 54.166115,-3.03852266 L53.4203383,-1.95438433 C53.2384968,-2.05796495 53.0549317,-2.09306674 52.8696375,-2.05969076 C52.6843432,-2.02631479 52.4904202,-1.90834975 52.2878626,-1.70579211 C52.0323637,-1.45029326 51.8850513,-1.23162636 51.8459208,-1.04978484 C51.8229029,-0.925488103 51.8516749,-0.823059922 51.9322376,-0.742497223 C52.0012913,-0.673443481 52.0922107,-0.646973277 52.2049985,-0.663085817 C52.3569167,-0.686103731 52.7499417,-0.897289924 53.3840853,-1.29665073 C54.0182288,-1.69601154 54.522889,-1.91295212 54.898081,-1.94747899 C55.273273,-1.97740228 55.6150839,-1.83814599 55.9235239,-1.52970594 C56.2595855,-1.1936444 56.4080488,-0.764366745 56.3689183,-0.241860098 C56.3297879,0.280646549 56.035163,0.816955899 55.4850348,1.36708404 C54.9855461,1.86657278 54.4889421,2.16062222 53.9952078,2.24924118 C53.5014736,2.33786015 53.0359432,2.25327059 52.5986029,1.99546995 Z M57.8846404,-1.19824964 L52.8230264,-6.25986361 L53.7932266,-7.23006383 L56.4794038,-4.54388671 L56.3240336,-6.9711136 L57.5186574,-8.16573736 L57.6049741,-5.57278232 L61.2751622,-4.58877141 L60.2290032,-3.54261246 L57.6602168,-4.26767312 L57.6809329,-3.34235761 L58.8548406,-2.16844986 L57.8846404,-1.19824964 Z M56.9258663,19.7605244 L51.8642524,14.6989104 L54.0152657,12.5478971 C54.5561866,12.0069761 54.9946713,11.6594109 55.3307329,11.5051908 C55.6667944,11.3509708 56.0247176,11.3164445 56.4045132,11.4016107 C56.7843088,11.486777 57.1238179,11.6789737 57.4230508,11.9782066 C57.8028464,12.3580022 58.0048255,12.7832518 58.0289943,13.2539681 C58.0531632,13.7246844 57.8753524,14.2143832 57.4955569,14.7230791 C57.8454292,14.6310075 58.1694014,14.5901513 58.4674834,14.6005093 C58.7655654,14.6108674 59.2333975,14.6908535 59.8709937,14.8404699 L61.4764852,15.2099056 L60.2542401,16.4321507 L58.413967,16.0696204 C57.7579565,15.9384182 57.3304051,15.869941 57.1313002,15.8641865 C56.9321952,15.858432 56.7595635,15.8906566 56.6133997,15.9608613 C56.467236,16.0310659 56.2767656,16.1835573 56.0419829,16.41834 L55.8348227,16.6255002 L57.9478566,18.7385341 L56.9258663,19.7605244 Z M55.0268979,15.8175755 L55.7830326,15.0614408 C56.2733142,14.5711592 56.558732,14.2443097 56.6392947,14.0808825 C56.7198574,13.9174553 56.7440259,13.750578 56.7118008,13.5802454 C56.6795757,13.4099128 56.5875055,13.2487899 56.4355872,13.0968716 C56.2652547,12.9265391 56.082265,12.8344688 55.8866127,12.820658 C55.6909605,12.8068473 55.496462,12.8689947 55.3031115,13.0071022 C55.2087381,13.0784577 54.9543939,13.3212931 54.5400715,13.7356155 L53.7425048,14.5331823 L55.0268979,15.8175755 Z M57.8580872,10.5004639 L56.960393,9.60276976 L57.9305933,8.63256954 L58.8282874,9.53026369 L57.8580872,10.5004639 Z M62.022007,14.6643837 L58.3552716,10.9976484 L59.3254719,10.0274481 L62.9922072,13.6941835 L62.022007,14.6643837 Z M62.5986029,11.99547 L63.423791,10.8733523 C63.6539701,11.0206669 63.8812686,11.0799371 64.1056932,11.0511648 C64.3301179,11.0223924 64.5562655,10.8940694 64.7841429,10.6661921 C65.0350381,10.4152968 65.1777471,10.1805176 65.2122739,9.96184742 C65.2329901,9.81223098 65.1892567,9.6833326 65.0810725,9.5751484 C65.0074152,9.50149108 64.923401,9.46351209 64.8290276,9.4612103 C64.7346541,9.46351209 64.5838891,9.52911216 64.3767278,9.65801248 C63.4214844,10.2679872 62.7677855,10.6063455 62.4156114,10.6730974 C61.9276316,10.7651691 61.507561,10.6351198 61.1553869,10.2829457 C60.8377397,9.9652985 60.6961816,9.57284896 60.7307085,9.1055853 C60.7652354,8.63832165 61.0460497,8.14114217 61.5731599,7.61403194 C62.0749505,7.11224141 62.5295474,6.82106917 62.9369645,6.74050647 C63.3443816,6.65994377 63.7540943,6.73359999 64.166115,6.96147734 L63.4203383,8.04561567 C63.2384968,7.94203505 63.0549317,7.90693326 62.8696375,7.94030924 C62.6843432,7.97368521 62.4904202,8.09165025 62.2878626,8.29420789 C62.0323637,8.54970674 61.8850513,8.76837364 61.8459208,8.95021516 C61.8229029,9.0745119 61.8516749,9.17694008 61.9322376,9.25750278 C62.0012913,9.32655652 62.0922107,9.35302672 62.2049985,9.33691418 C62.3569167,9.31389627 62.7499417,9.10271008 63.3840853,8.70334927 C64.0182288,8.30398846 64.522889,8.08704788 64.898081,8.05252101 C65.273273,8.02259772 65.6150839,8.16185401 65.9235239,8.47029406 C66.2595855,8.8063556 66.4080488,9.23563326 66.3689183,9.7581399 C66.3297879,10.2806465 66.035163,10.8169559 65.4850348,11.367084 C64.9855461,11.8665728 64.4889421,12.1606222 63.9952078,12.2492412 C63.5014736,12.3378602 63.0359432,12.2532706 62.5986029,11.99547 Z M67.8846404,8.80175036 L62.8230264,3.74013639 L63.7932266,2.76993617 L66.4794038,5.45611329 L66.3240336,3.0288864 L67.5186574,1.83426264 L67.6049741,4.42721768 L71.2751622,5.41122859 L70.2290032,6.45738754 L67.6602168,5.73232688 L67.6809329,6.65764239 L68.8548406,7.83155014 L67.8846404,8.80175036 Z M66.9258663,29.7605244 L61.8642524,24.6989104 L64.0152657,22.5478971 C64.5561866,22.0069761 64.9946713,21.6594109 65.3307329,21.5051908 C65.6667944,21.3509708 66.0247176,21.3164445 66.4045132,21.4016107 C66.7843088,21.486777 67.1238179,21.6789737 67.4230508,21.9782066 C67.8028464,22.3580022 68.0048255,22.7832518 68.0289943,23.2539681 C68.0531632,23.7246844 67.8753524,24.2143832 67.4955569,24.7230791 C67.8454292,24.6310075 68.1694014,24.5901513 68.4674834,24.6005093 C68.7655654,24.6108674 69.2333975,24.6908535 69.8709937,24.8404699 L71.4764852,25.2099056 L70.2542401,26.4321507 L68.413967,26.0696204 C67.7579565,25.9384182 67.3304051,25.869941 67.1313002,25.8641865 C66.9321952,25.858432 66.7595635,25.8906566 66.6133997,25.9608613 C66.467236,26.0310659 66.2767656,26.1835573 66.0419829,26.41834 L65.8348227,26.6255002 L67.9478566,28.7385341 L66.9258663,29.7605244 Z M65.0268979,25.8175755 L65.7830326,25.0614408 C66.2733142,24.5711592 66.558732,24.2443097 66.6392947,24.0808825 C66.7198574,23.9174553 66.7440259,23.750578 66.7118008,23.5802454 C66.6795757,23.4099128 66.5875055,23.2487899 66.4355872,23.0968716 C66.2652547,22.9265391 66.082265,22.8344688 65.8866127,22.820658 C65.6909605,22.8068473 65.496462,22.8689947 65.3031115,23.0071022 C65.2087381,23.0784577 64.9543939,23.3212931 64.5400715,23.7356155 L63.7425048,24.5331823 L65.0268979,25.8175755 Z M67.8580872,20.5004639 L66.960393,19.6027698 L67.9305933,18.6325695 L68.8282874,19.5302637 L67.8580872,20.5004639 Z M72.022007,24.6643837 L68.3552716,20.9976484 L69.3254719,20.0274481 L72.9922072,23.6941835 L72.022007,24.6643837 Z M72.5986029,21.99547 L73.423791,20.8733523 C73.6539701,21.0206669 73.8812686,21.0799371 74.1056932,21.0511648 C74.3301179,21.0223924 74.5562655,20.8940694 74.7841429,20.6661921 C75.0350381,20.4152968 75.1777471,20.1805176 75.2122739,19.9618474 C75.2329901,19.812231 75.1892567,19.6833326 75.0810725,19.5751484 C75.0074152,19.5014911 74.923401,19.4635121 74.8290276,19.4612103 C74.7346541,19.4635121 74.5838891,19.5291122 74.3767278,19.6580125 C73.4214844,20.2679872 72.7677855,20.6063455 72.4156114,20.6730974 C71.9276316,20.7651691 71.507561,20.6351198 71.1553869,20.2829457 C70.8377397,19.9652985 70.6961816,19.572849 70.7307085,19.1055853 C70.7652354,18.6383217 71.0460497,18.1411422 71.5731599,17.6140319 C72.0749505,17.1122414 72.5295474,16.8210692 72.9369645,16.7405065 C73.3443816,16.6599438 73.7540943,16.7336 74.166115,16.9614773 L73.4203383,18.0456157 C73.2384968,17.9420351 73.0549317,17.9069333 72.8696375,17.9403092 C72.6843432,17.9736852 72.4904202,18.0916503 72.2878626,18.2942079 C72.0323637,18.5497067 71.8850513,18.7683736 71.8459208,18.9502152 C71.8229029,19.0745119 71.8516749,19.1769401 71.9322376,19.2575028 C72.0012913,19.3265565 72.0922107,19.3530267 72.2049985,19.3369142 C72.3569167,19.3138963 72.7499417,19.1027101 73.3840853,18.7033493 C74.0182288,18.3039885 74.522889,18.0870479 74.898081,18.052521 C75.273273,18.0225977 75.6150839,18.161854 75.9235239,18.4702941 C76.2595855,18.8063556 76.4080488,19.2356333 76.3689183,19.7581399 C76.3297879,20.2806465 76.035163,20.8169559 75.4850348,21.367084 C74.9855461,21.8665728 74.4889421,22.1606222 73.9952078,22.2492412 C73.5014736,22.3378602 73.0359432,22.2532706 72.5986029,21.99547 Z M77.8846404,18.8017504 L72.8230264,13.7401364 L73.7932266,12.7699362 L76.4794038,15.4561133 L76.3240336,13.0288864 L77.5186574,11.8342626 L77.6049741,14.4272177 L81.2751622,15.4112286 L80.2290032,16.4573875 L77.6602168,15.7323269 L77.6809329,16.6576424 L78.8548406,17.8315501 L77.8846404,18.8017504 Z" id="Combined-Shape" fill="#A1A1A1" opacity="0.497326079" mask="url(#mask-4)"></path>
                    <path d="M86.9258663,9.92626176 L81.8642524,4.86464779 L84.0152657,2.71363448 C84.5561866,2.1727135 84.9946713,1.82514822 85.3307329,1.67092819 C85.6667944,1.51670817 86.0247176,1.48218182 86.4045132,1.5673481 C86.7843088,1.65251438 87.1238179,1.84471108 87.4230508,2.14394396 C87.8028464,2.52373954 88.0048255,2.94898912 88.0289943,3.41970546 C88.0531632,3.8904218 87.8753524,4.38012058 87.4955569,4.88881648 C87.8454292,4.79674482 88.1694014,4.75588864 88.4674834,4.7662467 C88.7655654,4.77660476 89.2333975,4.85659081 89.8709937,5.00620725 L91.4764852,5.37564292 L90.2542401,6.59788804 L88.413967,6.23535771 C87.7579565,6.1041556 87.3304051,6.03567833 87.1313002,6.02992385 C86.9321952,6.02416938 86.7595635,6.05639397 86.6133997,6.12659861 C86.467236,6.19680325 86.2767656,6.34929464 86.0419829,6.58407736 L85.8348227,6.79123755 L87.9478566,8.90427149 L86.9258663,9.92626176 Z M85.0268979,5.98331281 L85.7830326,5.22717812 C86.2733142,4.73689655 86.558732,4.41004708 86.6392947,4.24661989 C86.7198574,4.0831927 86.7440259,3.91631532 86.7118008,3.74598276 C86.6795757,3.5756502 86.5875055,3.41452722 86.4355872,3.26260899 C86.2652547,3.09227642 86.082265,3.00020615 85.8866127,2.9863954 C85.6909605,2.97258465 85.496462,3.03473209 85.3031115,3.17283957 C85.2087381,3.2441951 84.9543939,3.48703045 84.5400715,3.9013529 L83.7425048,4.69891963 L85.0268979,5.98331281 Z M87.8580872,0.666201273 L86.960393,-0.231492882 L87.9305933,-1.2016931 L88.8282874,-0.303998949 L87.8580872,0.666201273 Z M92.022007,4.83012109 L88.3552716,1.16338573 L89.3254719,0.193185507 L92.9922072,3.85992087 L92.022007,4.83012109 Z M92.5986029,2.16120731 L93.423791,1.03908961 C93.6539701,1.18640426 93.8812686,1.2456745 94.1056932,1.21690211 C94.3301179,1.18812972 94.5562655,1.05980677 94.7841429,0.831929425 C95.0350381,0.581034163 95.1777471,0.346254962 95.2122739,0.12758478 C95.2329901,-0.0220316609 95.1892567,-0.150930046 95.0810725,-0.259114241 C95.0074152,-0.332771566 94.923401,-0.370750554 94.8290276,-0.373052346 C94.7346541,-0.370750554 94.5838891,-0.305150483 94.3767278,-0.176250165 C93.4214844,0.433724555 92.7677855,0.772082814 92.4156114,0.838834765 C91.9276316,0.930906421 91.507561,0.800857158 91.1553869,0.448683074 C90.8377397,0.131035861 90.6961816,-0.261413685 90.7307085,-0.728677338 C90.7652354,-1.19594099 91.0460497,-1.69312047 91.5731599,-2.2202307 C92.0749505,-2.72202123 92.5295474,-3.01319347 92.9369645,-3.09375617 C93.3443816,-3.17431887 93.7540943,-3.10066265 94.166115,-2.8727853 L93.4203383,-1.78864698 C93.2384968,-1.89222759 93.0549317,-1.92732938 92.8696375,-1.89395341 C92.6843432,-1.86057743 92.4904202,-1.74261239 92.2878626,-1.54005475 C92.0323637,-1.2845559 91.8850513,-1.065889 91.8459208,-0.88404748 C91.8229029,-0.759750745 91.8516749,-0.657322564 91.9322376,-0.576759865 C92.0012913,-0.507706124 92.0922107,-0.48123592 92.2049985,-0.497348459 C92.3569167,-0.520366373 92.7499417,-0.731552566 93.3840853,-1.13091337 C94.0182288,-1.53027418 94.522889,-1.74721477 94.898081,-1.78174164 C95.273273,-1.81166492 95.6150839,-1.67240863 95.9235239,-1.36396859 C96.2595855,-1.02790704 96.4080488,-0.598629387 96.3689183,-0.0761227401 C96.3297879,0.446383907 96.035163,0.982693257 95.4850348,1.5328214 C94.9855461,2.03231013 94.4889421,2.32635957 93.9952078,2.41497854 C93.5014736,2.50359751 93.0359432,2.41900795 92.5986029,2.16120731 Z M97.8846404,-1.03251228 L92.8230264,-6.09412625 L93.7932266,-7.06432648 L96.4794038,-4.37814935 L96.3240336,-6.80537624 L97.5186574,-8 L97.6049741,-5.40704496 L101.275162,-4.42303406 L100.229003,-3.3768751 L97.6602168,-4.10193576 L97.6809329,-3.17662025 L98.8548406,-2.00271251 L97.8846404,-1.03251228 Z M96.9258663,19.9262618 L91.8642524,14.8646478 L94.0152657,12.7136345 C94.5561866,12.1727135 94.9946713,11.8251482 95.3307329,11.6709282 C95.6667944,11.5167082 96.0247176,11.4821818 96.4045132,11.5673481 C96.7843088,11.6525144 97.1238179,11.8447111 97.4230508,12.143944 C97.8028464,12.5237395 98.0048255,12.9489891 98.0289943,13.4197055 C98.0531632,13.8904218 97.8753524,14.3801206 97.4955569,14.8888165 C97.8454292,14.7967448 98.1694014,14.7558886 98.4674834,14.7662467 C98.7655654,14.7766048 99.2333975,14.8565908 99.8709937,15.0062072 L101.476485,15.3756429 L100.25424,16.597888 L98.413967,16.2353577 C97.7579565,16.1041556 97.3304051,16.0356783 97.1313002,16.0299239 C96.9321952,16.0241694 96.7595635,16.056394 96.6133997,16.1265986 C96.467236,16.1968032 96.2767656,16.3492946 96.0419829,16.5840774 L95.8348227,16.7912376 L97.9478566,18.9042715 L96.9258663,19.9262618 Z M95.0268979,15.9833128 L95.7830326,15.2271781 C96.2733142,14.7368966 96.558732,14.4100471 96.6392947,14.2466199 C96.7198574,14.0831927 96.7440259,13.9163153 96.7118008,13.7459828 C96.6795757,13.5756502 96.5875055,13.4145272 96.4355872,13.262609 C96.2652547,13.0922764 96.082265,13.0002061 95.8866127,12.9863954 C95.6909605,12.9725847 95.496462,13.0347321 95.3031115,13.1728396 C95.2087381,13.2441951 94.9543939,13.4870305 94.5400715,13.9013529 L93.7425048,14.6989196 L95.0268979,15.9833128 Z M97.8580872,10.6662013 L96.960393,9.76850712 L97.9305933,8.7983069 L98.8282874,9.69600105 L97.8580872,10.6662013 Z M102.022007,14.8301211 L98.3552716,11.1633857 L99.3254719,10.1931855 L102.992207,13.8599209 L102.022007,14.8301211 Z M102.598603,12.1612073 L103.423791,11.0390896 C103.65397,11.1864043 103.881269,11.2456745 104.105693,11.2169021 C104.330118,11.1881297 104.556266,11.0598068 104.784143,10.8319294 C105.035038,10.5810342 105.177747,10.346255 105.212274,10.1275848 C105.23299,9.97796834 105.189257,9.84906995 105.081072,9.74088576 C105.007415,9.66722843 104.923401,9.62924945 104.829028,9.62694765 C104.734654,9.62924945 104.583889,9.69484952 104.376728,9.82374983 C103.421484,10.4337246 102.767785,10.7720828 102.415611,10.8388348 C101.927632,10.9309064 101.507561,10.8008572 101.155387,10.4486831 C100.83774,10.1310359 100.696182,9.73858632 100.730708,9.27132266 C100.765235,8.80405901 101.04605,8.30687953 101.57316,7.7797693 C102.07495,7.27797877 102.529547,6.98680653 102.936965,6.90624383 C103.344382,6.82568113 103.754094,6.89933735 104.166115,7.1272147 L103.420338,8.21135302 C103.238497,8.10777241 103.054932,8.07267062 102.869637,8.10604659 C102.684343,8.13942257 102.49042,8.25738761 102.287863,8.45994525 C102.032364,8.7154441 101.885051,8.934111 101.845921,9.11595252 C101.822903,9.24024926 101.851675,9.34267744 101.932238,9.42324013 C102.001291,9.49229388 102.092211,9.51876408 102.204999,9.50265154 C102.356917,9.47963363 102.749942,9.26844743 103.384085,8.86908663 C104.018229,8.46972582 104.522889,8.25278523 104.898081,8.21825836 C105.273273,8.18833508 105.615084,8.32759137 105.923524,8.63603141 C106.259585,8.97209296 106.408049,9.40137061 106.368918,9.92387726 C106.329788,10.4463839 106.035163,10.9826933 105.485035,11.5328214 C104.985546,12.0323101 104.488942,12.3263596 103.995208,12.4149785 C103.501474,12.5035975 103.035943,12.4190079 102.598603,12.1612073 Z M107.88464,8.96748772 L102.823026,3.90587375 L103.793227,2.93567352 L106.479404,5.62185065 L106.324034,3.19462376 L107.518657,2 L107.604974,4.59295504 L111.275162,5.57696594 L110.229003,6.6231249 L107.660217,5.89806424 L107.680933,6.82337975 L108.854841,7.99728749 L107.88464,8.96748772 Z M106.925866,29.9262618 L101.864252,24.8646478 L104.015266,22.7136345 C104.556187,22.1727135 104.994671,21.8251482 105.330733,21.6709282 C105.666794,21.5167082 106.024718,21.4821818 106.404513,21.5673481 C106.784309,21.6525144 107.123818,21.8447111 107.423051,22.143944 C107.802846,22.5237395 108.004826,22.9489891 108.028994,23.4197055 C108.053163,23.8904218 107.875352,24.3801206 107.495557,24.8888165 C107.845429,24.7967448 108.169401,24.7558886 108.467483,24.7662467 C108.765565,24.7766048 109.233397,24.8565908 109.870994,25.0062072 L111.476485,25.3756429 L110.25424,26.597888 L108.413967,26.2353577 C107.757956,26.1041556 107.330405,26.0356783 107.1313,26.0299239 C106.932195,26.0241694 106.759563,26.056394 106.6134,26.1265986 C106.467236,26.1968032 106.276766,26.3492946 106.041983,26.5840774 L105.834823,26.7912376 L107.947857,28.9042715 L106.925866,29.9262618 Z M105.026898,25.9833128 L105.783033,25.2271781 C106.273314,24.7368966 106.558732,24.4100471 106.639295,24.2466199 C106.719857,24.0831927 106.744026,23.9163153 106.711801,23.7459828 C106.679576,23.5756502 106.587505,23.4145272 106.435587,23.262609 C106.265255,23.0922764 106.082265,23.0002061 105.886613,22.9863954 C105.69096,22.9725847 105.496462,23.0347321 105.303112,23.1728396 C105.208738,23.2441951 104.954394,23.4870305 104.540071,23.9013529 L103.742505,24.6989196 L105.026898,25.9833128 Z M107.858087,20.6662013 L106.960393,19.7685071 L107.930593,18.7983069 L108.828287,19.6960011 L107.858087,20.6662013 Z M112.022007,24.8301211 L108.355272,21.1633857 L109.325472,20.1931855 L112.992207,23.8599209 L112.022007,24.8301211 Z M112.598603,22.1612073 L113.423791,21.0390896 C113.65397,21.1864043 113.881269,21.2456745 114.105693,21.2169021 C114.330118,21.1881297 114.556266,21.0598068 114.784143,20.8319294 C115.035038,20.5810342 115.177747,20.346255 115.212274,20.1275848 C115.23299,19.9779683 115.189257,19.84907 115.081072,19.7408858 C115.007415,19.6672284 114.923401,19.6292494 114.829028,19.6269477 C114.734654,19.6292494 114.583889,19.6948495 114.376728,19.8237498 C113.421484,20.4337246 112.767785,20.7720828 112.415611,20.8388348 C111.927632,20.9309064 111.507561,20.8008572 111.155387,20.4486831 C110.83774,20.1310359 110.696182,19.7385863 110.730708,19.2713227 C110.765235,18.804059 111.04605,18.3068795 111.57316,17.7797693 C112.07495,17.2779788 112.529547,16.9868065 112.936965,16.9062438 C113.344382,16.8256811 113.754094,16.8993373 114.166115,17.1272147 L113.420338,18.211353 C113.238497,18.1077724 113.054932,18.0726706 112.869637,18.1060466 C112.684343,18.1394226 112.49042,18.2573876 112.287863,18.4599453 C112.032364,18.7154441 111.885051,18.934111 111.845921,19.1159525 C111.822903,19.2402493 111.851675,19.3426774 111.932238,19.4232401 C112.001291,19.4922939 112.092211,19.5187641 112.204999,19.5026515 C112.356917,19.4796336 112.749942,19.2684474 113.384085,18.8690866 C114.018229,18.4697258 114.522889,18.2527852 114.898081,18.2182584 C115.273273,18.1883351 115.615084,18.3275914 115.923524,18.6360314 C116.259585,18.972093 116.408049,19.4013706 116.368918,19.9238773 C116.329788,20.4463839 116.035163,20.9826933 115.485035,21.5328214 C114.985546,22.0323101 114.488942,22.3263596 113.995208,22.4149785 C113.501474,22.5035975 113.035943,22.4190079 112.598603,22.1612073 Z M117.88464,18.9674877 L112.823026,13.9058737 L113.793227,12.9356735 L116.479404,15.6218507 L116.324034,13.1946238 L117.518657,12 L117.604974,14.592955 L121.275162,15.5769659 L120.229003,16.6231249 L117.660217,15.8980642 L117.680933,16.8233798 L118.854841,17.9972875 L117.88464,18.9674877 Z" id="Combined-Shape" fill="#A1A1A1" opacity="0.497326079" mask="url(#mask-4)"></path>
                </g>
                <g id="掀开" fill-rule="nonzero">
                    <use fill="black" fill-opacity="1" filter="url(#filter-7)" xlink:href="#path-6"></use>
                    <use fill="url(#linearGradient-5)" xlink:href="#path-6"></use>
                </g>
            </g>
        </g>
    </g>
</svg>