<?xml version="1.0" encoding="UTF-8"?>
<svg width="60px" height="33px" viewBox="0 0 60 33" version="1.1" xmlns="http://www.w3.org/2000/svg" xmlns:xlink="http://www.w3.org/1999/xlink">
    <!-- Generator: Sketch 52.5 (67469) - http://www.bohemiancoding.com/sketch -->
    <title>高</title>
    <desc>Created with Sketch.</desc>
    <g id="Symbols" stroke="none" stroke-width="1" fill="none" fill-rule="evenodd">
        <g id="仪表盘/中">
            <g id="高">
                <g id="Group-23" fill-rule="nonzero">
                    <path d="M11.1747582,6.64037317 C16.3222495,2.48683647 22.8707089,-5.86197757e-14 30,-5.86197757e-14 C37.1292911,-5.86197757e-14 43.6777505,2.48683647 48.8252418,6.64037317 L42.1401672,13.6039925 C38.7479376,11.0881254 34.547754,9.6 30,9.6 C25.452246,9.6 21.2520624,11.0881254 17.8598328,13.6039925 L11.1747582,6.64037317 Z" id="Combined-Shape" fill="#FFA85A"></path>
                    <path d="M7.8,29.9984106 L7.8,30 L1.8,30 C1.79540508,29.9999827 1.79080606,30 1.786203,30 C0.792090453,30 0.054,29.1941125 0.054,28.2 C0.593502649,19.0682819 5.21854491,11.0354966 12.1268023,5.90307822 L18.0219952,13.4849544 C13.3741661,16.8617568 10.2069993,22.1527143 9.67832146,28.2 L9.676203,28.2 C9.676203,29.1941125 8.87031555,30 7.876203,30 C7.85062984,30 7.82522611,29.9994667 7.8,29.9984106 Z" id="Combined-Shape" fill="#60BBA7"></path>
                    <path d="M58.2,29.9987476 L58.2,30 L52.2,30 L52.2,29.9946517 C52.1538661,29.9981954 52.1072453,30 52.060203,30 C51.0660905,30 50.3876495,29.2272583 50.322,28.2 C50.3212612,28.1952259 50.3208421,28.1904522 50.3204215,28.185679 C50.3187526,28.1698403 50.3173428,28.1540385 50.3161885,28.1382766 C49.7714302,22.1167955 46.6100947,16.8503977 41.9781823,13.4850833 L47.8742549,5.90386368 C54.7819269,11.0363162 59.4065249,19.0687478 59.9468904,28.2 C59.946,29.1714201 59.1633101,29.9631102 58.2,29.9987476 Z" id="Combined-Shape" fill="#EA0000"></path>
                </g>
                <g id="Group-24" transform="translate(26.000000, 13.000000)" fill="#FFA85A">
                    <path d="M3.9999038,4.81281681e-13 L3.9999038,4.81281681e-13 C4.25562993,4.72603749e-13 4.4701248,0.192991875 4.49703909,0.447297747 L6.01218575,14.7635113 C6.12980499,15.8748639 5.32422491,16.8711425 4.21287228,16.9887617 C4.14212968,16.9962487 4.07104148,17 3.9999038,17 L3.9999038,17 C2.88234442,17 1.97638355,16.0940391 1.97638355,14.9764797 C1.97638355,14.9053421 1.98013486,14.8342539 1.98762185,14.7635113 L3.50276851,0.447297747 C3.52968279,0.192991875 3.74417766,4.89959614e-13 3.9999038,4.81281681e-13 Z" id="Rectangle-8"></path>
                    <circle id="Oval" fill-rule="nonzero" cx="4" cy="16" r="4"></circle>
                </g>
            </g>
        </g>
    </g>
</svg>