<?xml version="1.0" encoding="UTF-8"?>
<svg width="48px" height="48px" viewBox="0 0 48 48" version="1.1" xmlns="http://www.w3.org/2000/svg" xmlns:xlink="http://www.w3.org/1999/xlink">
    <!-- Generator: Sketch 52.5 (67469) - http://www.bohemiancoding.com/sketch -->
    <title>风险模型48x48</title>
    <desc>Created with Sketch.</desc>
    <defs>
        <linearGradient x1="2.23311055%" y1="2.23311055%" x2="95.9027147%" y2="95.9027147%" id="linearGradient-1">
            <stop stop-color="#F58D81" offset="0%"></stop>
            <stop stop-color="#E7463A" offset="100%"></stop>
        </linearGradient>
        <linearGradient x1="2.44309971%" y1="2.44309971%" x2="97.9668303%" y2="97.9668303%" id="linearGradient-2">
            <stop stop-color="#88AAFA" offset="0%"></stop>
            <stop stop-color="#4779F9" offset="100%"></stop>
        </linearGradient>
    </defs>
    <g id="Page-1" stroke="none" stroke-width="1" fill="none" fill-rule="evenodd">
        <g id="风险模型48x48">
            <rect id="Rectangle" fill="#F6F6F6" x="0" y="0" width="48" height="48"></rect>
            <path d="M24.5020525,0.958590994 L42.5535013,11.4511373 C43.030984,11.7286778 43.1930691,12.3407451 42.9155286,12.8182277 C42.8324645,12.9611318 42.7152726,13.0812175 42.5744369,13.167742 L24.5229885,24.2579191 C24.2018824,24.4551954 23.7971373,24.455191 23.4760356,24.2579076 L5.4254739,13.1677302 C4.95490829,12.878617 4.80781207,12.2627756 5.0969253,11.79221 C5.18344526,11.6513887 5.30352003,11.5342075 5.44640963,11.4511477 L23.4969708,0.958601725 C23.8076587,0.778003037 24.1913606,0.77799894 24.5020525,0.958590994 Z" id="Path" fill="url(#linearGradient-1)"></path>
            <path d="M5.52725125,15.527198 L22.657686,26.1567649 C22.9516357,26.3391629 23.1304348,26.6605329 23.1304348,27.0064743 L23.1304348,45.7702286 C23.1304348,46.3225133 22.6827195,46.7702286 22.1304348,46.7702286 C21.9354125,46.7702286 21.7446463,46.7132031 21.5816188,46.6061718 L4.45118403,35.3596468 C4.16959323,35.1747759 4,34.8605576 4,34.5237036 L4,16.3769075 C4,15.8246227 4.44771525,15.3769075 5,15.3769075 C5.18631954,15.3769075 5.36893378,15.4289608 5.52725125,15.527198 Z" id="Path" fill="url(#linearGradient-2)"></path>
            <path d="M43.548816,35.3596468 L26.4183812,46.6061718 C25.9567025,46.9092744 25.3367247,46.7807232 25.033622,46.3190445 C24.9265907,46.156017 24.8695652,45.9652508 24.8695652,45.7702286 L24.8695652,27.0064743 C24.8695652,26.6605329 25.0483643,26.3391629 25.342314,26.1567649 L42.4727487,15.527198 C42.9420303,15.2360052 43.5585166,15.3803746 43.8497094,15.8496562 C43.9479466,16.0079737 44,16.1905879 44,16.3769075 L44,34.5237036 C44,34.8605576 43.8304068,35.1747759 43.548816,35.3596468 Z" id="Path" fill="url(#linearGradient-2)"></path>
        </g>
    </g>
</svg>