<?xml version="1.0" encoding="UTF-8"?>
<svg width="17px" height="17px" viewBox="0 0 17 17" version="1.1" xmlns="http://www.w3.org/2000/svg" xmlns:xlink="http://www.w3.org/1999/xlink">
    <!-- Generator: Sketch 52.5 (67469) - http://www.bohemiancoding.com/sketch -->
    <title>首页left图标17x17</title>
    <desc>Created with Sketch.</desc>
    <g id="智惠平台-风险查询" stroke="none" stroke-width="1" fill="none" fill-rule="evenodd">
        <g id="查询首页" transform="translate(-39.000000, -464.000000)" fill="#AAAAAA">
            <g id="Group-16" transform="translate(10.000000, 394.000000)">
                <g id="Group" transform="translate(15.000000, 22.000000)">
                    <g id="Group-20" transform="translate(0.000000, 34.000000)">
                        <g id="Group-3" transform="translate(14.000000, 14.000000)">
                            <g id="首页left图标17x17">
                                <g id="Group-12">
                                    <g id="Group-2" fill-rule="nonzero">
                                        <path d="M7,14 C3.13400675,14 0,10.8659932 0,7 C0,3.13400675 3.13400675,0 7,0 C10.8659932,0 14,3.13400675 14,7 C14,10.8659932 10.8659932,14 7,14 Z M7,12.5 C10.0375661,12.5 12.5,10.0375661 12.5,7 C12.5,3.96243388 10.0375661,1.5 7,1.5 C3.96243388,1.5 1.5,3.96243388 1.5,7 C1.5,10.0375661 3.96243388,12.5 7,12.5 Z" id="Combined-Shape"></path>
                                        <rect id="Rectangle" transform="translate(13.500000, 13.750000) rotate(45.000000) translate(-13.500000, -13.750000) " x="10" y="13" width="7" height="1.5" rx="0.75"></rect>
                                    </g>
                                </g>
                            </g>
                        </g>
                    </g>
                </g>
            </g>
        </g>
    </g>
</svg>