<?xml version="1.0" encoding="UTF-8"?>
<svg width="22px" height="22px" viewBox="0 0 22 22" version="1.1" xmlns="http://www.w3.org/2000/svg" xmlns:xlink="http://www.w3.org/1999/xlink">
    <!-- Generator: Sketch 52.5 (67469) - http://www.bohemiancoding.com/sketch -->
    <title>Combined Shape</title>
    <desc>Created with Sketch.</desc>
    <g id="智惠平台-风险报告" stroke="none" stroke-width="1" fill="none" fill-rule="evenodd">
        <g id="风险报告/详情/支付1" transform="translate(-16.000000, -585.000000)" fill="#00B32C" fill-rule="nonzero">
            <g id="支付弹层" transform="translate(0.000000, 512.000000)">
                <g id="支付方式" transform="translate(0.000000, 59.000000)">
                    <g id="Group-12">
                        <g id="Group-2" transform="translate(16.000000, 14.000000)">
                            <path d="M4,0 L18,0 C20.209139,-4.05812251e-16 22,1.790861 22,4 L22,18 C22,20.209139 20.209139,22 18,22 L4,22 C1.790861,22 2.705415e-16,20.209139 0,18 L0,4 C-2.705415e-16,1.790861 1.790861,4.05812251e-16 4,0 Z M7.530024,17.0641308 L7.86399702,16.8829459 C8.01814503,16.8228773 8.19058469,16.8093395 8.35134517,16.8516983 C8.51528307,16.8962708 8.67943567,16.9410987 8.84504816,16.9791152 C8.97038466,17.0084471 9.0964511,17.0338623 9.22247461,17.0592776 C9.27503092,17.0672811 9.32728666,17.0777111 9.37980003,17.0866512 C9.52514571,17.1098953 9.67074902,17.1329266 9.81708228,17.1508492 C9.97930266,17.170943 10.1417377,17.18695 10.3046881,17.198572 C10.4673808,17.2101941 10.6303311,17.2176867 10.7932814,17.2215607 C10.9562317,17.2252219 11.1189244,17.2242427 11.2818748,17.219645 C11.4452974,17.2152601 11.60872,17.2050855 11.771928,17.1934634 C11.9348783,17.1806494 12.0973134,17.1634504 12.2595338,17.1423775 C12.4229564,17.1210491 12.5856491,17.0949101 12.7481271,17.0660891 C12.7561566,17.0648545 12.772516,17.0624279 12.780846,17.0612359 C12.9259341,17.0304566 13.071795,17.0021465 13.2159384,16.9667694 C13.3859306,16.9265818 13.5547634,16.8810301 13.7223511,16.8318599 C13.8823387,16.7831579 14.0416393,16.7316037 14.1984494,16.6739191 C14.2873744,16.6414795 14.3760846,16.608529 14.464022,16.5741311 C14.5419547,16.5424153 14.6198875,16.5106994 14.697305,16.4770252 C14.8629604,16.4058029 15.0261255,16.3290462 15.1871006,16.2476492 C15.283368,16.1992027 15.3783901,16.1476058 15.4724677,16.0950724 C15.538893,16.0579925 15.604846,16.0204869 15.6700691,15.9817041 C15.8383867,15.8819162 16.0020669,15.775104 16.1620975,15.6632257 C16.1840818,15.6477296 16.2058085,15.6321909 16.2277929,15.6166949 C16.3761013,15.51133 16.5202018,15.4006438 16.6599655,15.284636 C16.7168585,15.2374241 16.7735369,15.1897013 16.829013,15.140531 C16.9357573,15.0470437 17.0395818,14.9498952 17.1412164,14.850831 C17.2103468,14.7818224 17.2780174,14.7115791 17.344958,14.6406122 C17.4397225,14.5386531 17.5308373,14.4335437 17.6197622,14.326476 C17.6625286,14.2741555 17.7050374,14.2211112 17.7465586,14.1678115 C17.9808292,13.8643608 18.1892081,13.5412421 18.3638806,13.2007115 C18.525371,12.8865753 18.6594669,12.5583479 18.7620891,12.2209677 C18.8087199,12.0635377 18.8492965,11.9046603 18.8834753,11.744293 C18.9159795,11.585671 18.9426011,11.4258145 18.9619233,11.2649788 C18.9807302,11.104654 18.9919371,10.94335 18.9978196,10.7817907 C19.0021993,10.6195075 19.0000094,10.4567561 18.9909924,10.2946859 C18.9817178,10.1329136 18.9648431,9.97182255 18.9421288,9.81175317 C18.9174394,9.64900177 18.8873826,9.48693152 18.8490389,9.32686214 C18.8106951,9.16892134 18.7667264,9.01247054 18.7151577,8.85840376 C18.6768139,8.74363061 18.6345627,8.63051775 18.5888765,8.51834147 C18.5690821,8.46993751 18.5492876,8.42149098 18.5285484,8.37351273 C18.4557253,8.20471616 18.3731552,8.0402619 18.2852179,7.87870251 C18.2256197,7.76703709 18.1540418,7.6619277 18.0985657,7.54809112 C17.939308,7.6248478 17.7907849,7.72054885 17.6361217,7.80556443 C17.5899631,7.83170342 17.5440622,7.85809784 17.4978608,7.88402397 C17.3835594,7.94915858 17.2702026,8.01578321 17.1561159,8.08070496 C16.9953555,8.17202114 16.8355826,8.26478475 16.674865,8.35610093 C16.6624129,8.36261439 16.6499179,8.36963871 16.6379811,8.37645018 C16.4843055,8.46606349 16.3294275,8.55325022 16.1757518,8.64213981 C15.846459,8.83009362 15.5178962,9.018984 15.1890758,9.20744867 C15.1121306,9.25176576 15.0346701,9.29489083 14.9574673,9.33869705 C14.872965,9.38765444 14.7886774,9.43682469 14.7034022,9.48450494 C14.5414395,9.57875856 14.3782745,9.67101131 14.2157965,9.76428578 C14.1786979,9.78535875 14.1417711,9.80664457 14.1048872,9.82771753 C13.9813111,9.89919532 13.8569622,9.96918311 13.7330856,10.0406183 C13.4084302,10.2283593 13.0817996,10.4133756 12.7561566,10.5994137 C12.6420699,10.6659958 12.5272532,10.7309175 12.4129518,10.7968184 C12.3638306,10.8256394 12.3147523,10.854205 12.2651587,10.8820469 C12.102423,10.9736185 11.9409755,11.0671058 11.7790128,11.1598694 C11.7074349,11.2005679 11.635857,11.2414793 11.5644937,11.2824332 C11.4729066,11.3359457 11.380332,11.3882663 11.287972,11.4408423 C11.1257516,11.5336059 10.9640465,11.6270932 10.8013538,11.7188777 C10.7779095,11.7319472 10.7542077,11.7450167 10.7312358,11.758597 C10.591515,11.839994 10.4515366,11.9206247 10.3110429,12.0000634 C9.98518519,12.1868252 9.65928453,12.3733316 9.33389914,12.5603062 C9.23127693,12.6184165 9.12942761,12.6775485 9.02633308,12.7349351 C8.97012703,12.7678856 8.9141786,12.8013043 8.85775786,12.8339993 C8.70214995,12.926763 8.5030457,12.9364693 8.34009537,12.8567752 C8.28414694,12.8250167 8.23309347,12.7860211 8.18646262,12.7426832 C8.06967082,12.5912984 8.0164275,12.4040683 7.92943478,12.2359954 C7.90182555,12.1759269 7.87473156,12.1156028 7.84759465,12.0555342 C7.79997622,11.9533197 7.75283012,11.8506369 7.70568402,11.7484224 C7.631401,11.5890767 7.55909313,11.4292202 7.48532537,11.269832 C7.44281659,11.1756209 7.39884791,11.0818782 7.35535155,10.9881354 C7.3258101,10.9227454 7.2962257,10.8573553 7.26642662,10.7921781 C7.18973906,10.6267873 7.11399614,10.4610985 7.03752327,10.2954522 C6.8948827,9.97693114 6.74172227,9.66305041 6.60341845,9.34235822 C6.56460235,9.1725825 6.71458535,9.00859652 6.88728264,9.01804743 C6.93910901,9.03209607 6.9906348,9.05074245 7.03511874,9.08199004 C7.15015007,9.16240787 7.2644944,9.24376229 7.3785811,9.3254147 C7.38150089,9.32733042 7.38738342,9.33120444 7.39030322,9.33316274 C7.54883091,9.44457273 7.70714392,9.55645101 7.86472697,9.66884016 C7.92651499,9.7117098 7.98783068,9.75555859 8.04888875,9.79915196 C8.15249854,9.87058718 8.25486312,9.94398069 8.35770002,10.0166505 C8.48398115,10.1052847 8.61051992,10.1939614 8.73585641,10.2837876 C8.77007813,10.3053714 8.80524448,10.3252098 8.84139842,10.3431324 C8.9909091,10.4114599 9.16042896,10.4318092 9.32264934,10.4046485 C9.402042,10.3882158 9.47825724,10.3591394 9.55228263,10.3257206 C9.80119516,10.2155026 10.049893,10.1040926 10.2995784,9.9953221 C10.6256938,9.85049336 10.9523244,9.70685663 11.278955,9.56275162 C11.44212,9.49106097 11.604555,9.41817831 11.7680206,9.34695595 C11.7951146,9.33507846 11.8224662,9.32320098 11.8500755,9.31136606 C11.9834843,9.25176576 12.1171079,9.19267631 12.2507315,9.13333144 C12.4161293,9.06066164 12.5814841,8.98799185 12.7464096,8.91459833 C12.8089276,8.8874802 12.8707585,8.85912748 12.9340064,8.83371221 C13.0346535,8.78816055 13.1358158,8.74265146 13.2371928,8.69833438 C13.3998855,8.62613287 13.5628358,8.55516594 13.7255285,8.48275157 C14.0487241,8.33911485 14.3723919,8.19645727 14.6963174,8.0545234 C15.0224757,7.90969467 15.349321,7.76631337 15.675694,7.6216975 C15.8391166,7.55026228 16.0018093,7.47712419 16.1652749,7.40568897 C16.1852841,7.39696179 16.2055509,7.38849003 16.2260753,7.38023113 C16.3670413,7.31628852 16.5087373,7.25430421 16.6504332,7.1915536 C16.8099485,7.12156582 16.9689914,7.05034346 17.1285067,6.98035567 C17.2005569,6.94812894 17.2731224,6.91666849 17.3456879,6.88491005 C17.4087211,6.85634447 17.4722267,6.82850262 17.5359899,6.80134191 C17.4280004,6.67784157 17.3197962,6.55429866 17.2035197,6.43829093 C17.1785726,6.41406766 17.1541408,6.38937611 17.1299666,6.36515284 C16.9870684,6.2219844 16.8346379,6.08877773 16.6807046,5.95752935 C16.6743498,5.95216532 16.6616401,5.94177784 16.6550705,5.93645638 C16.3465169,5.6828571 16.0196716,5.45079907 15.6754363,5.24688089 C15.5203437,5.15292527 15.3603132,5.06765427 15.2003256,4.98238326 L15.1873583,4.97633809 C15.027843,4.89881513 14.8688,4.82082387 14.7061073,4.75058066 C14.3853593,4.61256339 14.0575264,4.49144706 13.7225658,4.39238285 C13.5611183,4.3432126 13.3976956,4.30059838 13.2337577,4.26083646 C13.0727826,4.22260713 12.9110345,4.18795381 12.7483418,4.1579408 C12.5868514,4.12860894 12.4246739,4.10268281 12.2617236,4.08139698 C11.917746,4.03610075 11.5715785,4.00991919 11.2246811,4 L10.7559252,4 C10.4588361,4.01043005 10.1620475,4.03005558 9.86693349,4.06564548 C9.68616382,4.08718673 9.50539416,4.11140999 9.32629908,4.14482873 C9.17777598,4.1710103 9.02998282,4.1998313 8.88339194,4.23422919 C8.70558501,4.27271395 8.52940973,4.31924476 8.35452259,4.36935159 C8.02372699,4.46454178 7.69859922,4.5798258 7.38124326,4.7132879 C7.21760593,4.78182825 7.0561155,4.85594548 6.89660022,4.93393673 C6.8652983,4.94921995 6.83382463,4.96471603 6.80303797,4.98046754 C6.66718162,5.05092361 6.53282811,5.12431713 6.40044976,5.20086094 C6.06308462,5.39703108 5.74010376,5.61746705 5.43571512,5.86089172 C5.39638377,5.89188387 5.35756767,5.92359975 5.31896626,5.95557105 C5.18701729,6.06625733 5.05803105,6.18081762 4.93466971,6.30121023 C4.88997108,6.34433531 4.84553008,6.38741781 4.80203372,6.43152204 C4.68279445,6.55238293 4.56724785,6.67639413 4.45732616,6.80572679 C4.42877228,6.84033754 4.39944551,6.87473542 4.3708487,6.90964417 C4.12313844,7.21117913 3.90303742,7.53502163 3.71492533,7.87627593 C3.62892019,8.03102386 3.55296258,8.19066752 3.47867956,8.35124776 L3.47283997,8.36550926 C3.40662932,8.52587665 3.34093393,8.68645689 3.28743298,8.85163487 C3.23393203,9.00932024 3.18897578,9.16964505 3.150632,9.33167273 C3.11349049,9.48693152 3.08463604,9.6441486 3.06024716,9.80183397 C2.98841162,10.2842984 2.98008162,10.7759583 3.03920747,11.2603811 C3.05874433,11.4245799 3.08613888,11.5880976 3.11933008,11.7503807 C3.15402411,11.9087898 3.19460067,12.0659643 3.24123152,12.2214785 C3.29305788,12.3900197 3.35119615,12.5569005 3.4188667,12.7199073 C3.43715835,12.7647353 3.4562229,12.8095206 3.47429986,12.8548169 C3.52780082,12.9727829 3.58422156,13.0895143 3.64287509,13.2050538 C3.72763502,13.3678052 3.81900743,13.5271934 3.91767933,13.6819839 C3.93554161,13.7098258 3.95310331,13.7379231 3.97143791,13.7655095 C4.06306795,13.9016536 4.15710252,14.0358394 4.25774958,14.1651721 C4.31953759,14.2453345 4.38304313,14.3240495 4.44830914,14.401317 C4.51718195,14.4829268 4.58923219,14.5616418 4.66132537,14.6403568 C4.75364241,14.7401447 4.84917983,14.8365695 4.94664945,14.9312488 C5.02041722,15.0017475 5.09641777,15.0700324 5.17284769,15.1376362 C5.25541778,15.2105188 5.33923307,15.2814857 5.42472295,15.3507498 C5.53490228,15.4394265 5.64825903,15.5239313 5.76234573,15.6074994 C5.82537895,15.6544985 5.87982454,15.7126088 5.92087342,15.7794888 C5.97072463,15.877063 5.99781861,15.987281 5.98390664,16.0967753 C5.97072463,16.1788534 5.94556287,16.2580793 5.92306327,16.3379862 C5.90258176,16.4256838 5.87814995,16.5126151 5.85419046,16.5998444 C5.81095173,16.7604247 5.76698305,16.9210049 5.72421664,17.081798 C5.68076322,17.24191 5.63773918,17.4022348 5.59329818,17.5620913 C5.56543131,17.6565578 5.53490228,17.7638809 5.58621338,17.8566445 C5.64070191,17.9704811 5.77823285,18.0201196 5.89841676,17.9925332 C6.06845189,17.905091 6.23088695,17.804324 6.39748702,17.7113049 C6.48933175,17.6594952 6.58048947,17.6066638 6.6723342,17.5553224 C6.74266691,17.5144111 6.81330019,17.4734571 6.88389053,17.4327586 C7.04413575,17.3412296 7.2046386,17.249658 7.36488382,17.158129 C7.41962998,17.1263705 7.47506315,17.0956338 7.530024,17.0641308 Z" id="Combined-Shape"></path>
                        </g>
                    </g>
                </g>
            </g>
        </g>
    </g>
</svg>