<?xml version="1.0" encoding="UTF-8"?>
<svg width="58px" height="28px" viewBox="0 0 58 28" version="1.1" xmlns="http://www.w3.org/2000/svg" xmlns:xlink="http://www.w3.org/1999/xlink">
    <!-- Generator: Sketch 52.5 (67469) - http://www.bohemiancoding.com/sketch -->
    <title>Group 2</title>
    <desc>Created with Sketch.</desc>
    <defs>
        <filter x="-24.0%" y="-60.0%" width="148.0%" height="220.0%" filterUnits="objectBoundingBox" id="filter-1">
            <feOffset dx="1" dy="2" in="SourceAlpha" result="shadowOffsetOuter1"></feOffset>
            <feGaussianBlur stdDeviation="2" in="shadowOffsetOuter1" result="shadowBlurOuter1"></feGaussianBlur>
            <feColorMatrix values="0 0 0 0 0.984313725   0 0 0 0 0.6   0 0 0 0 0  0 0 0 0.15 0" type="matrix" in="shadowBlurOuter1" result="shadowMatrixOuter1"></feColorMatrix>
            <feMerge>
                <feMergeNode in="shadowMatrixOuter1"></feMergeNode>
                <feMergeNode in="SourceGraphic"></feMergeNode>
            </feMerge>
        </filter>
    </defs>
    <g id="Symbols" stroke="none" stroke-width="1" fill="none" fill-rule="evenodd">
        <g id="风险等级/负向" transform="translate(3.000000, 2.000000)">
            <g id="Group-2" filter="url(#filter-1)">
                <path d="M2,-8.5508942e-15 L47.4676192,-7.54951657e-15 C48.5721887,-1.16766419e-14 49.4676192,0.8954305 49.4676192,2 C49.4676192,2.36248789 49.3691036,2.71816071 49.1826051,3.02899151 L45.9260924,8.45651273 C45.3560641,9.4065599 45.3560641,10.5934401 45.9260924,11.5434873 L49.1826051,16.9710085 C49.7509014,17.918169 49.4437713,19.1466895 48.4966108,19.7149859 C48.1857799,19.9014843 47.8301071,20 47.4676192,20 L2,20 C0.8954305,20 -2.62380273e-16,19.1045695 -8.8817842e-16,18 L-2.22044605e-16,2 C-3.57315355e-16,0.8954305 0.8954305,-8.67887807e-15 2,-8.8817842e-15 Z" id="Rectangle" fill="#FB9900" fill-rule="nonzero"></path>
                <rect id="Rectangle-13" fill="#FFFFFF" fill-rule="nonzero" x="4" y="9" width="10" height="2" rx="1"></rect>
                <path d="M26.688,7.184 L26.688,12.752 L25.572,12.752 L25.572,8.252 L19.98,8.252 L19.98,12.872 L18.864,12.872 L18.864,7.856 L18.012,8.456 L17.28,7.592 C18.6640069,6.76799588 19.8439951,5.62800728 20.82,4.172 L21.936,4.412 C21.8639996,4.5320006 21.7160011,4.75999832 21.492,5.096 L25.32,5.096 L25.32,5.936 C24.919998,6.44800256 24.5560016,6.8639984 24.228,7.184 L26.688,7.184 Z M22.908,7.184 C23.2440017,6.87199844 23.5799983,6.51200204 23.916,6.104 L20.712,6.104 C20.3759983,6.48800192 20.0280018,6.84799832 19.668,7.184 L22.908,7.184 Z M23.496,12.332 C25.0800079,12.8760027 26.5159936,13.5359961 27.804,14.312 L27.168,15.284 C25.7919931,14.3799955 24.3800072,13.6760025 22.932,13.172 L23.496,12.332 Z M22.188,8.768 L23.292,8.768 L23.292,10.46 C23.2199996,11.7720066 22.7920039,12.8119962 22.008,13.58 C21.2479962,14.2920036 19.9960087,14.847998 18.252,15.248 L17.64,14.276 C19.3920088,13.883998 20.571997,13.4080028 21.18,12.848 C21.7960031,12.2319969 22.1319997,11.4360049 22.188,10.46 L22.188,8.768 Z M32.22,8.372 L36.816,8.372 L36.816,12.764 L32.22,12.764 L32.22,8.372 Z M35.712,11.696 L35.712,9.44 L33.324,9.44 L33.324,11.696 L35.712,11.696 Z M34.8,4.268 C34.6479992,4.85200292 34.4600011,5.36799776 34.236,5.816 L39.396,5.816 L39.396,13.808 C39.396,14.7120045 38.9880041,15.164 38.172,15.164 L36.396,15.164 L36.084,14.012 L37.788,14.06 C38.1000016,14.06 38.256,13.8920017 38.256,13.556 L38.256,6.908 L30.84,6.908 L30.84,15.212 L29.7,15.212 L29.7,5.816 L33.024,5.816 C33.2800013,5.27999732 33.4759993,4.70800304 33.612,4.1 L34.8,4.268 Z" id="负向" fill="#FFFFFF"></path>
            </g>
        </g>
    </g>
</svg>