<?xml version="1.0" encoding="UTF-8"?>
<svg width="22px" height="22px" viewBox="0 0 22 22" version="1.1" xmlns="http://www.w3.org/2000/svg" xmlns:xlink="http://www.w3.org/1999/xlink">
    <!-- Generator: Sketch 52.5 (67469) - http://www.bohemiancoding.com/sketch -->
    <title>(Alipay)_SFont.CN</title>
    <desc>Created with Sketch.</desc>
    <g id="智惠平台-风险报告" stroke="none" stroke-width="1" fill="none" fill-rule="evenodd">
        <g id="风险报告/详情/支付1" transform="translate(-16.000000, -635.000000)" fill="#49A8E8" fill-rule="nonzero">
            <g id="支付弹层" transform="translate(0.000000, 512.000000)">
                <g id="支付方式" transform="translate(0.000000, 59.000000)">
                    <g id="Group-13" transform="translate(0.000000, 50.000000)">
                        <g id="Group" transform="translate(16.000000, 14.000000)">
                            <g id="(Alipay)_SFont.CN">
                                <path d="M22,15.0610204 L22,4.23163265 C22,1.89469388 20.107551,0 17.7683673,0 L4.23163265,0 C1.89469388,0 0,1.89244898 0,4.23163265 L0,17.7706122 C0,20.1053061 1.89244898,22 4.23163265,22 L17.7706122,22 C19.8538776,22 21.5846939,20.4959184 21.934898,18.5136735 C20.812449,18.0310204 15.9477551,15.9297959 13.4177551,14.7197959 C11.4916327,17.0544898 9.47122449,18.457551 6.42938776,18.457551 C3.38755102,18.457551 1.35591837,16.587551 1.60061224,14.2910204 C1.76,12.782449 2.79489796,10.3265306 7.28020408,10.7485714 C9.64408163,10.9730612 10.7261224,11.4108163 12.6544898,12.0483673 C13.1506122,11.1346939 13.5659184,10.1289796 13.8802041,9.05816327 L5.33163265,9.05816327 L5.33163265,8.21183673 L9.55877551,8.21183673 L9.55877551,6.68979592 L4.4,6.68979592 L4.4,5.75816327 L9.55877551,5.75816327 L9.55877551,3.56265306 C9.55877551,3.56265306 9.60816327,3.21918367 9.98530612,3.21918367 L12.1022449,3.21918367 L12.1022449,5.75816327 L17.6022449,5.75816327 L17.6022449,6.68979592 L12.1022449,6.68979592 L12.1022449,8.21183673 L16.5853061,8.21183673 C16.1744898,9.89102041 15.5481633,11.4332653 14.7669388,12.7802041 C16.0712245,13.2493878 22,15.0610204 22,15.0610204 Z M6.09265306,17.0073469 C2.87571429,17.0073469 2.37061224,14.9757143 2.53897959,14.1293878 C2.70734694,13.2830612 3.63897959,12.1830612 5.42591837,12.1830612 C7.48,12.1830612 9.32081633,12.7083673 11.527551,13.7836735 C9.97857143,15.8040816 8.07040816,17.0073469 6.09265306,17.0073469 Z" id="Shape"></path>
                            </g>
                        </g>
                    </g>
                </g>
            </g>
        </g>
    </g>
</svg>